# Blender v2.92.0 OBJ File: ''
# www.blender.org
mtllib Mega Man Volnutt Buster US.mtl
o CH036_000_U_S_-_BusterMesh_m_95646_[TCP2_Smoothed]
v -0.078131 0.017927 0.194572
v -0.078223 0.017884 0.213869
v -0.056017 0.046114 0.195224
v -0.056197 0.046061 0.214519
v -0.021511 0.055094 0.196142
v -0.021796 0.055006 0.215435
v -0.079725 -0.017741 0.213728
v -0.079649 -0.017766 0.194430
v -0.060983 -0.048225 0.194825
v -0.061106 -0.048148 0.214122
v -0.027962 -0.062114 0.195639
v -0.028167 -0.062071 0.214934
v -0.021511 0.055094 0.196142
v -0.021796 0.055006 0.215435
v 0.012221 0.041377 0.196975
v 0.011857 0.041235 0.216265
v 0.031616 0.011133 0.216689
v 0.032038 0.011197 0.197401
v 0.029378 -0.024811 0.197229
v 0.028969 -0.024779 0.216518
v 0.006246 -0.053171 0.215849
v 0.006559 -0.053193 0.196557
v -0.028167 -0.062071 0.214934
v -0.027962 -0.062114 0.195639
v -0.079725 -0.017741 0.213728
v -0.079802 -0.017716 0.233026
v -0.078223 0.017884 0.213869
v -0.078315 0.017841 0.233167
v -0.056197 0.046061 0.214519
v -0.056377 0.046007 0.233815
v -0.021796 0.055006 0.215435
v -0.022081 0.054918 0.234727
v -0.061106 -0.048148 0.214122
v -0.061229 -0.048071 0.233419
v -0.028167 -0.062071 0.214934
v -0.028372 -0.062027 0.234229
v -0.078315 0.017841 0.233167
v -0.071921 0.015289 0.237750
v -0.056377 0.046007 0.233815
v -0.052609 0.040084 0.238398
v -0.056377 0.046007 0.233815
v -0.052609 0.040084 0.238398
v -0.022081 0.054918 0.234727
v -0.022419 0.047928 0.239310
v -0.022081 0.054918 0.234727
v -0.022419 0.047928 0.239310
v 0.011493 0.041093 0.235555
v 0.007137 0.035758 0.240139
v 0.011493 0.041093 0.235555
v 0.007137 0.035758 0.240139
v 0.031195 0.011069 0.235978
v 0.024481 0.009327 0.240562
v -0.079802 -0.017716 0.233026
v -0.073230 -0.016011 0.237609
v -0.078315 0.017841 0.233167
v -0.071921 0.015289 0.237750
v -0.028372 -0.062027 0.234229
v -0.027956 -0.055019 0.238812
v -0.061229 -0.048071 0.233419
v -0.056880 -0.042733 0.238002
v 0.005932 -0.053149 0.235141
v 0.002242 -0.047203 0.239724
v -0.028372 -0.062027 0.234229
v -0.027956 -0.055019 0.238812
v 0.028560 -0.024748 0.235808
v 0.022161 -0.022202 0.240391
v 0.005932 -0.053149 0.235141
v 0.002242 -0.047203 0.239724
v 0.031195 0.011069 0.235978
v 0.024481 0.009327 0.240562
v 0.028560 -0.024748 0.235808
v 0.022161 -0.022202 0.240391
v -0.061229 -0.048071 0.233419
v -0.056880 -0.042733 0.238002
v -0.079802 -0.017716 0.233026
v -0.073230 -0.016011 0.237609
v -0.071921 0.015289 0.237750
v -0.049777 0.006451 0.267590
v -0.052609 0.040084 0.238398
v -0.039560 0.019569 0.267932
v -0.052609 0.040084 0.238398
v -0.039560 0.019569 0.267932
v -0.022419 0.047928 0.239310
v -0.023587 0.023720 0.268415
v -0.022419 0.047928 0.239310
v -0.023587 0.023720 0.268415
v 0.007137 0.035758 0.240139
v -0.007950 0.017281 0.268853
v 0.007137 0.035758 0.240139
v -0.007950 0.017281 0.268853
v 0.024481 0.009327 0.240562
v 0.001226 0.003297 0.269077
v -0.073230 -0.016011 0.237609
v -0.050470 -0.010109 0.267515
v -0.071921 0.015289 0.237750
v -0.049777 0.006451 0.267590
v -0.027956 -0.055019 0.238812
v -0.026517 -0.030747 0.268151
v -0.056880 -0.042733 0.238002
v -0.041820 -0.024247 0.267723
v 0.002242 -0.047203 0.239724
v -0.010540 -0.026612 0.268634
v -0.027956 -0.055019 0.238812
v -0.026517 -0.030747 0.268151
v 0.022161 -0.022202 0.240391
v -0.000001 -0.013384 0.268987
v 0.002242 -0.047203 0.239724
v -0.010540 -0.026612 0.268634
v 0.024481 0.009327 0.240562
v 0.001226 0.003297 0.269077
v 0.022161 -0.022202 0.240391
v -0.000001 -0.013384 0.268987
v -0.056880 -0.042733 0.238002
v -0.041820 -0.024247 0.267723
v -0.073230 -0.016011 0.237609
v -0.050470 -0.010109 0.267515
v 0.012221 0.041377 0.196975
v 0.032038 0.011197 0.197401
v -0.021511 0.055094 0.196142
v -0.078131 0.017927 0.194572
v 0.006559 -0.053193 0.196557
v 0.029378 -0.024811 0.197229
v -0.060983 -0.048225 0.194825
v -0.027962 -0.062114 0.195639
v -0.079649 -0.017766 0.194430
v -0.056017 0.046114 0.195224
v 0.011493 0.041093 0.235555
v 0.011857 0.041235 0.216265
v -0.022081 0.054918 0.234727
v -0.021796 0.055006 0.215435
v 0.031616 0.011133 0.216689
v 0.031195 0.011069 0.235978
v 0.028969 -0.024779 0.216518
v 0.028560 -0.024748 0.235808
v 0.005932 -0.053149 0.235141
v 0.006246 -0.053171 0.215849
v -0.028372 -0.062027 0.234229
v -0.028167 -0.062071 0.214934
v -0.049777 0.006451 0.267590
v -0.044181 0.004218 0.299081
v -0.039560 0.019569 0.267932
v -0.036262 0.014385 0.299347
v -0.039560 0.019569 0.267932
v -0.036262 0.014385 0.299347
v -0.023587 0.023720 0.268415
v -0.023882 0.017601 0.299721
v -0.023587 0.023720 0.268415
v -0.023882 0.017601 0.299721
v -0.007950 0.017281 0.268853
v -0.011763 0.012611 0.300061
v -0.007950 0.017281 0.268853
v -0.011763 0.012611 0.300061
v 0.001226 0.003297 0.269077
v -0.004651 0.001773 0.300234
v -0.050470 -0.010109 0.267515
v -0.044718 -0.008617 0.299024
v -0.049777 0.006451 0.267590
v -0.044181 0.004218 0.299081
v -0.026517 -0.030747 0.268151
v -0.026153 -0.024613 0.299517
v -0.041820 -0.024247 0.267723
v -0.038013 -0.019575 0.299185
v -0.010540 -0.026612 0.268634
v -0.013770 -0.021408 0.299891
v -0.026517 -0.030747 0.268151
v -0.026153 -0.024613 0.299517
v -0.000001 -0.013384 0.268987
v -0.005602 -0.011156 0.300164
v -0.010540 -0.026612 0.268634
v -0.013770 -0.021408 0.299891
v 0.001226 0.003297 0.269077
v -0.004651 0.001773 0.300234
v -0.000001 -0.013384 0.268987
v -0.005602 -0.011156 0.300164
v -0.041820 -0.024247 0.267723
v -0.038013 -0.019575 0.299185
v -0.050470 -0.010109 0.267515
v -0.044718 -0.008617 0.299024
v -0.044181 0.004218 0.299081
v -0.039623 0.002398 0.299209
v -0.036262 0.014385 0.299347
v -0.033576 0.010162 0.299412
v -0.023882 0.017601 0.299721
v -0.024123 0.012618 0.299698
v -0.011763 0.012611 0.300061
v -0.014868 0.008807 0.299957
v -0.004651 0.001773 0.300234
v -0.009438 0.000531 0.300090
v -0.040032 -0.007402 0.299165
v -0.044718 -0.008617 0.299024
v -0.005602 -0.011156 0.300164
v -0.010164 -0.009341 0.300036
v -0.013770 -0.021408 0.299891
v -0.016401 -0.017169 0.299828
v -0.026153 -0.024613 0.299517
v -0.025857 -0.019616 0.299542
v -0.038013 -0.019575 0.299185
v -0.034913 -0.015769 0.299289
v -0.039623 0.002398 0.299209
v -0.039623 0.002398 0.279255
v -0.033576 0.010162 0.299412
v -0.033576 0.010162 0.279458
v -0.033576 0.010162 0.299412
v -0.033576 0.010162 0.279458
v -0.024123 0.012618 0.299698
v -0.024123 0.012618 0.279743
v -0.024123 0.012618 0.299698
v -0.024123 0.012618 0.279743
v -0.014868 0.008807 0.299957
v -0.014868 0.008807 0.280003
v -0.014868 0.008807 0.299957
v -0.014868 0.008807 0.280003
v -0.009438 0.000531 0.300090
v -0.009438 0.000531 0.280135
v -0.040032 -0.007402 0.299165
v -0.040032 -0.007402 0.279211
v -0.039623 0.002398 0.299209
v -0.039623 0.002398 0.279255
v -0.025857 -0.019616 0.299542
v -0.025857 -0.019616 0.279587
v -0.034913 -0.015769 0.299289
v -0.034913 -0.015769 0.279334
v -0.016401 -0.017169 0.299828
v -0.016401 -0.017169 0.279873
v -0.025857 -0.019616 0.299542
v -0.025857 -0.019616 0.279587
v -0.010164 -0.009341 0.300036
v -0.010164 -0.009341 0.280082
v -0.016401 -0.017169 0.299828
v -0.016401 -0.017169 0.279873
v -0.009438 0.000531 0.300090
v -0.009438 0.000531 0.280135
v -0.010164 -0.009341 0.300036
v -0.010164 -0.009341 0.280082
v -0.034913 -0.015769 0.299289
v -0.034913 -0.015769 0.279334
v -0.040032 -0.007402 0.299165
v -0.040032 -0.007402 0.279211
v -0.034913 -0.015769 0.279334
v -0.025857 -0.019616 0.279587
v -0.040032 -0.007402 0.279211
v -0.024123 0.012618 0.279743
v -0.033576 0.010162 0.279458
v -0.039623 0.002398 0.279255
v -0.050604 0.036932 0.214361
v -0.056017 0.046114 0.190762
v -0.068518 0.013931 0.213832
v -0.078131 0.017927 0.190109
v -0.021511 0.055094 0.191680
v -0.022598 0.044209 0.215106
v 0.012221 0.041377 0.192512
v 0.004819 0.032919 0.215782
v 0.032038 0.011197 0.192938
v 0.020908 0.008401 0.216128
v -0.079649 -0.017766 0.189967
v -0.069733 -0.015104 0.213717
v -0.068762 0.030125 0.029772
v -0.017154 0.055578 0.023146
v -0.051660 0.046598 0.022228
v -0.045117 0.037483 0.002683
v -0.017140 0.044873 0.003428
v 0.016579 0.041858 0.023979
v 0.010293 0.033521 0.004104
v 0.036395 0.011681 0.024405
v 0.026380 0.009008 0.004450
v 0.032349 0.011232 0.180900
v -0.054744 0.029141 0.002410
v -0.069047 0.025036 0.021633
v -0.059802 0.020704 0.002255
v -0.075846 0.015981 0.034544
v -0.077766 0.001034 0.041885
v -0.065832 0.000101 0.014807
v -0.075910 -0.017351 0.045350
v -0.063779 -0.014315 0.016936
v -0.065339 0.010914 0.011115
v 0.035461 0.011577 0.060519
v -0.042022 0.007950 0.011745
v -0.026374 0.012494 0.002568
v -0.035750 -0.007056 0.015261
v -0.016237 -0.002043 0.003316
v -0.065832 0.000101 0.014807
v -0.063779 -0.014315 0.016936
v -0.040609 0.021840 0.003456
v 0.010293 0.033521 0.004104
v 0.026380 0.009008 0.004450
v -0.017140 0.044873 0.003428
v -0.045117 0.037483 0.002683
v -0.054744 0.029141 0.002410
v -0.059802 0.020704 0.002255
v -0.065339 0.010914 0.011115
v -0.068518 0.013931 0.213832
v -0.069733 -0.015104 0.213717
v 0.004819 0.032919 0.215782
v 0.020908 0.008401 0.216128
v -0.022598 0.044209 0.215106
v -0.050604 0.036932 0.214361
v -0.060983 -0.048225 0.190362
v -0.027962 -0.062114 0.191176
v -0.054566 -0.039892 0.214038
v -0.027735 -0.051289 0.214699
v 0.006559 -0.053193 0.192095
v 0.000278 -0.044039 0.215444
v 0.029378 -0.024811 0.192766
v 0.018756 -0.020847 0.215988
v 0.032038 0.011197 0.192938
v 0.020908 0.008401 0.216128
v -0.079649 -0.017766 0.189967
v -0.069733 -0.015104 0.213717
v -0.046569 -0.055486 0.030100
v -0.023604 -0.061631 0.022643
v 0.010916 -0.052710 0.023561
v -0.022277 -0.050625 0.003021
v 0.005765 -0.043488 0.003766
v 0.033735 -0.024325 0.024233
v 0.024227 -0.020235 0.004310
v 0.036395 0.011681 0.024405
v 0.026380 0.009008 0.004450
v 0.032801 -0.024429 0.060347
v -0.034744 -0.048013 0.002706
v -0.049276 -0.051235 0.021925
v -0.043264 -0.043097 0.002500
v -0.059641 -0.046531 0.034783
v -0.068595 -0.034347 0.042021
v -0.058566 -0.027928 0.014914
v -0.075910 -0.017351 0.045350
v -0.063779 -0.014315 0.016936
v -0.052875 -0.037166 0.011299
v 0.035461 0.011577 0.060519
v 0.029690 -0.024776 0.180728
v 0.032349 0.011232 0.180900
v 0.021848 -0.023619 0.060066
v 0.024508 0.012388 0.060238
v 0.018736 -0.023966 0.180447
v 0.021395 0.012042 0.180619
v -0.016237 -0.002043 0.003316
v -0.018034 -0.019679 0.002691
v -0.035750 -0.007056 0.015261
v -0.033936 -0.023244 0.011864
v -0.058566 -0.027928 0.014914
v -0.063779 -0.014315 0.016936
v -0.025938 -0.034757 0.003673
v 0.024227 -0.020235 0.004310
v 0.026380 0.009008 0.004450
v 0.005765 -0.043488 0.003766
v -0.022277 -0.050625 0.003021
v -0.034744 -0.048013 0.002706
v -0.043264 -0.043097 0.002500
v -0.052875 -0.037166 0.011299
v -0.054566 -0.039892 0.214038
v 0.018756 -0.020847 0.215988
v -0.069733 -0.015104 0.213717
v 0.020908 0.008401 0.216128
v 0.000278 -0.044039 0.215444
v -0.027735 -0.051289 0.214699
v 0.032349 0.011232 0.180900
v 0.021395 0.012042 0.180619
v 0.035461 0.011577 0.060519
v 0.024508 0.012388 0.060238
v 0.029690 -0.024776 0.180728
v 0.018736 -0.023966 0.180447
v 0.032349 0.011232 0.180900
v 0.021395 0.012042 0.180619
v 0.032801 -0.024429 0.060347
v 0.021848 -0.023619 0.060066
v 0.029690 -0.024776 0.180728
v 0.018736 -0.023966 0.180447
v 0.035461 0.011577 0.060519
v 0.024508 0.012388 0.060238
v 0.032801 -0.024429 0.060347
v 0.021848 -0.023619 0.060066
v -0.010164 -0.009341 0.280082
v -0.009438 0.000531 0.280135
v -0.016401 -0.017169 0.279873
v -0.024123 0.012618 0.279743
v -0.014868 0.008807 0.280003
v -0.025857 -0.019616 0.279587
vt 0.379717 0.615074
vt 0.379654 0.601244
vt 0.421403 0.615074
vt 0.421324 0.601244
vt 0.434683 0.615074
vt 0.434554 0.601244
vt 0.326968 0.601244
vt 0.326930 0.615074
vt 0.281884 0.615074
vt 0.281998 0.601244
vt 0.261343 0.614848
vt 0.261408 0.601244
vt 0.434683 0.615074
vt 0.434554 0.601244
vt 0.414396 0.615074
vt 0.414187 0.601244
vt 0.369669 0.601244
vt 0.369764 0.615074
vt 0.316512 0.615074
vt 0.316558 0.601244
vt 0.274570 0.601244
vt 0.274536 0.615074
vt 0.261408 0.601244
vt 0.261343 0.614848
vt 0.326968 0.601244
vt 0.327005 0.615074
vt 0.379654 0.601244
vt 0.379590 0.615074
vt 0.421324 0.601244
vt 0.421245 0.615074
vt 0.434554 0.601244
vt 0.434424 0.615074
vt 0.281998 0.601244
vt 0.282113 0.615074
vt 0.261408 0.601244
vt 0.261472 0.615300
vt 0.401198 0.615147
vt 0.405900 0.617335
vt 0.349304 0.615147
vt 0.360218 0.617335
vt 0.349304 0.615147
vt 0.360218 0.617335
vt 0.339325 0.615147
vt 0.339325 0.617335
vt 0.339325 0.615147
vt 0.339325 0.617335
vt 0.358359 0.615147
vt 0.368188 0.617335
vt 0.358359 0.615147
vt 0.368188 0.617335
vt 0.413676 0.615147
vt 0.416884 0.617335
vt 0.466709 0.615147
vt 0.463569 0.617335
vt 0.401198 0.615147
vt 0.405900 0.617335
vt 0.541894 0.615147
vt 0.541894 0.617335
vt 0.522636 0.615147
vt 0.512802 0.617335
vt 0.531992 0.615147
vt 0.521038 0.617335
vt 0.541894 0.615147
vt 0.541894 0.617335
vt 0.479666 0.615147
vt 0.474975 0.617335
vt 0.531992 0.615147
vt 0.521038 0.617335
vt 0.413676 0.615147
vt 0.416884 0.617335
vt 0.479666 0.615147
vt 0.474975 0.617335
vt 0.522636 0.615147
vt 0.512802 0.617335
vt 0.466709 0.615147
vt 0.463569 0.617335
vt 0.894743 0.701981
vt 0.894736 0.725339
vt 0.888181 0.701981
vt 0.888177 0.725339
vt 0.888181 0.701981
vt 0.888177 0.725339
vt 0.886105 0.701981
vt 0.886102 0.725339
vt 0.886105 0.701981
vt 0.886102 0.725339
vt 0.889325 0.701981
vt 0.889322 0.725339
vt 0.889325 0.701981
vt 0.889322 0.725339
vt 0.896321 0.701981
vt 0.896313 0.725339
vt 0.903027 0.701981
vt 0.903017 0.725339
vt 0.894743 0.701981
vt 0.894736 0.725339
vt 0.913350 0.701981
vt 0.913336 0.725339
vt 0.910099 0.701981
vt 0.910086 0.725339
vt 0.911282 0.701981
vt 0.911268 0.725339
vt 0.913350 0.701981
vt 0.913336 0.725339
vt 0.904665 0.701981
vt 0.904654 0.725339
vt 0.911282 0.701981
vt 0.911268 0.725339
vt 0.896321 0.701981
vt 0.896313 0.725339
vt 0.904665 0.701981
vt 0.904654 0.725339
vt 0.910099 0.701981
vt 0.910086 0.725339
vt 0.903027 0.701981
vt 0.903017 0.725339
vt 0.832690 0.366490
vt 0.797897 0.366490
vt 0.868937 0.366490
vt 0.942625 0.366490
vt 0.868937 0.366490
vt 0.832690 0.366490
vt 0.942625 0.366490
vt 0.904703 0.366490
vt 0.982696 0.366490
vt 0.904703 0.366490
vt 0.413977 0.615074
vt 0.414187 0.601244
vt 0.434424 0.615074
vt 0.434554 0.601244
vt 0.369669 0.601244
vt 0.369574 0.615074
vt 0.316558 0.601244
vt 0.316604 0.615074
vt 0.274603 0.615074
vt 0.274570 0.601244
vt 0.261472 0.615300
vt 0.261408 0.601244
vt 0.894736 0.725339
vt 0.894736 0.704563
vt 0.888177 0.725339
vt 0.888177 0.704563
vt 0.888177 0.725339
vt 0.888177 0.704563
vt 0.886102 0.725339
vt 0.886102 0.704563
vt 0.886102 0.725339
vt 0.886102 0.704563
vt 0.889322 0.725339
vt 0.889322 0.704563
vt 0.889322 0.725339
vt 0.889322 0.704563
vt 0.896313 0.725339
vt 0.896313 0.704563
vt 0.903017 0.725339
vt 0.903017 0.704563
vt 0.894736 0.725339
vt 0.894736 0.704563
vt 0.913336 0.725339
vt 0.913336 0.704563
vt 0.910086 0.725339
vt 0.910086 0.704563
vt 0.911268 0.725339
vt 0.911268 0.704563
vt 0.913336 0.725339
vt 0.913336 0.704563
vt 0.904654 0.725339
vt 0.904654 0.704563
vt 0.911268 0.725339
vt 0.911268 0.704563
vt 0.896313 0.725339
vt 0.896313 0.704563
vt 0.904654 0.725339
vt 0.904654 0.704563
vt 0.910086 0.725339
vt 0.910086 0.704563
vt 0.903017 0.725339
vt 0.903017 0.704563
vt 0.894736 0.704563
vt 0.894736 0.704563
vt 0.888177 0.704563
vt 0.888177 0.704563
vt 0.886102 0.704563
vt 0.886102 0.704563
vt 0.889322 0.704563
vt 0.889322 0.704563
vt 0.896313 0.704563
vt 0.896313 0.704563
vt 0.903017 0.704563
vt 0.903017 0.704563
vt 0.904654 0.704563
vt 0.904654 0.704563
vt 0.911268 0.704563
vt 0.911268 0.704563
vt 0.913336 0.704563
vt 0.913336 0.704563
vt 0.910086 0.704563
vt 0.910086 0.704563
vt 0.916727 0.648085
vt 0.916727 0.648085
vt 0.914484 0.648085
vt 0.914484 0.648085
vt 0.914484 0.648085
vt 0.914484 0.648085
vt 0.913774 0.648085
vt 0.913774 0.648085
vt 0.913774 0.648085
vt 0.913774 0.648085
vt 0.914875 0.648085
vt 0.914875 0.648085
vt 0.914875 0.648085
vt 0.914875 0.648085
vt 0.917267 0.648085
vt 0.917267 0.648085
vt 0.919559 0.648085
vt 0.919559 0.648085
vt 0.916727 0.648085
vt 0.916727 0.648085
vt 0.923089 0.648085
vt 0.923089 0.648085
vt 0.921977 0.648085
vt 0.921977 0.648085
vt 0.922382 0.648085
vt 0.922382 0.648085
vt 0.923089 0.648085
vt 0.923089 0.648085
vt 0.920120 0.648085
vt 0.920120 0.648085
vt 0.922382 0.648085
vt 0.922382 0.648085
vt 0.917267 0.648085
vt 0.917267 0.648085
vt 0.920120 0.648085
vt 0.920120 0.648085
vt 0.921977 0.648085
vt 0.921977 0.648085
vt 0.919559 0.648085
vt 0.919559 0.648085
vt 0.199027 0.070867
vt 0.178118 0.064177
vt 0.213012 0.088083
vt 0.178118 0.132691
vt 0.199027 0.126034
vt 0.213012 0.108992
vt 0.904703 0.343015
vt 0.904703 0.366490
vt 0.942599 0.343015
vt 0.942625 0.366490
vt 0.868937 0.366490
vt 0.868937 0.343015
vt 0.832690 0.366490
vt 0.832690 0.343015
vt 0.797897 0.366490
vt 0.797897 0.343015
vt 0.982696 0.366490
vt 0.982696 0.343015
vt 0.929196 0.519314
vt 0.868937 0.526551
vt 0.904703 0.526551
vt 0.904703 0.548297
vt 0.868937 0.548297
vt 0.832690 0.526551
vt 0.832690 0.548297
vt 0.797897 0.526551
vt 0.797897 0.548297
vt 0.797897 0.377923
vt 0.918932 0.548297
vt 0.933307 0.526551
vt 0.930657 0.548297
vt 0.945526 0.515630
vt 0.961334 0.509326
vt 0.958383 0.538091
vt 0.982696 0.506890
vt 0.982696 0.537801
vt 0.945469 0.540525
vt 0.797897 0.492252
vt 0.138705 0.230737
vt 0.149549 0.232026
vt 0.139402 0.218332
vt 0.152975 0.218332
vt 0.123888 0.230267
vt 0.122411 0.218332
vt 0.142888 0.242253
vt 0.173736 0.239700
vt 0.178795 0.218332
vt 0.160198 0.254233
vt 0.143310 0.255140
vt 0.136465 0.251592
vt 0.131962 0.246926
vt 0.126284 0.238634
vt 0.208536 0.627196
vt 0.204438 0.644046
vt 0.245222 0.627214
vt 0.249785 0.644046
vt 0.233742 0.616419
vt 0.219729 0.616428
vt 0.942625 0.366490
vt 0.904703 0.366490
vt 0.942599 0.343015
vt 0.904703 0.343015
vt 0.868937 0.366490
vt 0.868937 0.343015
vt 0.832690 0.366490
vt 0.832690 0.343015
vt 0.797897 0.366490
vt 0.797897 0.343015
vt 0.982696 0.366490
vt 0.982696 0.343015
vt 0.929196 0.519314
vt 0.904703 0.526551
vt 0.868937 0.526551
vt 0.904703 0.548297
vt 0.868937 0.548297
vt 0.832690 0.526551
vt 0.832690 0.548297
vt 0.797897 0.526551
vt 0.797897 0.548297
vt 0.832690 0.492252
vt 0.918932 0.548297
vt 0.933307 0.526551
vt 0.930657 0.548297
vt 0.945526 0.515630
vt 0.961334 0.509326
vt 0.958383 0.538091
vt 0.982696 0.506890
vt 0.982696 0.537801
vt 0.945469 0.540525
vt 0.797897 0.492252
vt 0.832690 0.377923
vt 0.797897 0.377923
vt 0.088959 0.549068
vt 0.062308 0.549068
vt 0.088959 0.454520
vt 0.062308 0.454520
vt 0.152975 0.218332
vt 0.149549 0.232026
vt 0.139402 0.218332
vt 0.138705 0.230737
vt 0.123888 0.230267
vt 0.122411 0.218332
vt 0.142888 0.242253
vt 0.173736 0.239700
vt 0.178795 0.218332
vt 0.160198 0.254233
vt 0.143310 0.255140
vt 0.136465 0.251592
vt 0.131962 0.246926
vt 0.126284 0.238634
vt 0.208536 0.627196
vt 0.245222 0.627214
vt 0.204438 0.644046
vt 0.249785 0.644046
vt 0.233742 0.616419
vt 0.219729 0.616428
vt 0.883965 0.381665
vt 0.883965 0.381665
vt 0.883965 0.495994
vt 0.883965 0.495994
vt 0.861053 0.397582
vt 0.861053 0.397582
vt 0.826260 0.397582
vt 0.826260 0.397582
vt 0.918758 0.495994
vt 0.918758 0.495994
vt 0.918758 0.381665
vt 0.918758 0.381665
vt 0.826260 0.511911
vt 0.826260 0.511911
vt 0.861053 0.511911
vt 0.861053 0.511911
vt 0.213012 0.088083
vt 0.213012 0.108992
vt 0.199027 0.070867
vt 0.178118 0.132691
vt 0.199027 0.126034
vt 0.178118 0.064177
vn -0.9386 0.3450 -0.0036
vn -0.9383 0.3459 -0.0039
vn -0.5509 0.8346 -0.0023
vn -0.5490 0.8358 -0.0025
vn 0.0635 0.9980 0.0054
vn 0.0665 0.9978 0.0058
vn -0.9679 -0.2512 -0.0037
vn -0.9681 -0.2507 -0.0035
vn -0.6531 -0.7573 -0.0010
vn -0.6521 -0.7581 -0.0013
vn -0.0762 -0.9971 0.0020
vn -0.0737 -0.9973 0.0018
vn 0.6341 0.7731 0.0170
vn 0.6360 0.7715 0.0174
vn 0.9678 0.2507 0.0219
vn 0.9677 0.2512 0.0220
vn 0.9300 -0.3671 0.0197
vn 0.9307 -0.3653 0.0200
vn 0.5429 -0.8397 0.0101
vn 0.5405 -0.8413 0.0097
vn -0.0763 -0.9971 0.0020
vn -0.9383 0.3458 -0.0039
vn -0.9380 0.3466 -0.0042
vn -0.5470 0.8371 -0.0027
vn 0.0695 0.9976 0.0062
vn -0.6522 -0.7581 -0.0013
vn -0.6511 -0.7590 -0.0017
vn -0.0712 -0.9975 0.0016
vn -0.4563 0.3364 0.8238
vn -0.4562 0.3364 0.8238
vn -0.4629 0.3392 0.8189
vn -0.1617 0.5375 0.8276
vn -0.1667 0.5463 0.8208
vn 0.1982 0.5307 0.8240
vn 0.1982 0.5308 0.8240
vn 0.1994 0.5398 0.8178
vn 0.4714 0.3209 0.8215
vn 0.4715 0.3210 0.8214
vn 0.4744 0.3244 0.8183
vn -0.5756 0.0208 0.8175
vn -0.5758 0.0208 0.8174
vn -0.5771 0.0205 0.8164
vn -0.2415 -0.5211 0.8186
vn -0.2415 -0.5210 0.8186
vn -0.2406 -0.5121 0.8246
vn 0.1224 -0.5572 0.8213
vn 0.1169 -0.5484 0.8280
vn 0.4395 -0.3694 0.8188
vn 0.4325 -0.3666 0.8237
vn 0.5713 -0.0459 0.8195
vn 0.5711 -0.0460 0.8196
vn 0.5694 -0.0463 0.8207
vn -0.4983 -0.2943 0.8155
vn -0.4954 -0.2910 0.8185
vn -0.6325 0.4767 0.6105
vn -0.2149 0.7551 0.6194
vn 0.2839 0.7315 0.6199
vn 0.6499 0.4364 0.6223
vn -0.7983 0.0307 0.6015
vn -0.3235 -0.7212 0.6125
vn 0.1785 -0.7624 0.6220
vn 0.6043 -0.4981 0.6219
vn 0.7798 -0.0607 0.6231
vn -0.6849 -0.4102 0.6022
vn 0.0258 0.0029 -0.9997
vn 0.6376 0.7701 0.0177
vn 0.6358 0.7716 0.0173
vn 0.0695 0.9976 0.0063
vn 0.9677 0.2512 0.0219
vn 0.9678 0.2506 0.0219
vn 0.9306 -0.3654 0.0200
vn 0.9313 -0.3636 0.0203
vn 0.5453 -0.8382 0.0105
vn 0.5428 -0.8398 0.0101
vn -0.7782 0.6014 0.1809
vn -0.2524 0.9501 0.1833
vn 0.3701 0.9111 0.1815
vn 0.8209 0.5416 0.1813
vn -0.9833 0.0403 0.1776
vn -0.3888 -0.9033 0.1812
vn 0.2411 -0.9530 0.1836
vn 0.7667 -0.6157 0.1818
vn 0.9807 -0.0731 0.1814
vn -0.8406 -0.5117 0.1777
vn -0.0294 -0.0033 0.9996
vn -0.0294 -0.0032 0.9996
vn 0.7889 -0.6145 -0.0000
vn 0.2515 -0.9679 -0.0000
vn -0.3808 -0.9247 -0.0000
vn -0.8361 -0.5486 -0.0000
vn 0.9991 -0.0418 -0.0000
vn 0.3910 0.9204 0.0000
vn -0.2506 0.9681 0.0000
vn -0.7821 0.6231 0.0000
vn -0.9973 0.0734 0.0000
vn 0.8530 0.5219 0.0000
vn -0.0293 -0.0033 0.9996
vn -0.3543 0.5057 0.7866
vn -0.5385 0.8184 0.2007
vn -0.5879 0.2061 0.7822
vn -0.9208 0.3380 0.1946
vn 0.0583 0.9759 0.2102
vn 0.0213 0.6043 0.7965
vn 0.6160 0.7554 0.2236
vn 0.3645 0.4636 0.8076
vn 0.9415 0.2449 0.2315
vn 0.5684 0.1505 0.8088
vn -0.9505 -0.2457 0.1905
vn -0.6038 -0.1535 0.7822
vn -0.8093 0.5677 -0.1508
vn 0.0688 0.9702 -0.2325
vn -0.4883 0.8348 -0.2544
vn -0.2277 0.4842 -0.8448
vn 0.0579 0.5716 -0.8185
vn 0.6230 0.7510 -0.2189
vn 0.3864 0.4450 -0.8078
vn 0.9460 0.2444 -0.2130
vn 0.5807 0.1475 -0.8007
vn 0.9333 0.3583 0.0252
vn -0.4034 0.3502 -0.8454
vn -0.8535 0.3560 -0.3806
vn -0.4754 -0.0884 -0.8753
vn -0.9609 0.1840 -0.2071
vn -0.9796 -0.0448 -0.1959
vn -0.5865 -0.2141 -0.7811
vn -0.9495 -0.2469 -0.1935
vn -0.6005 -0.1587 -0.7837
vn -0.6365 -0.2347 -0.7347
vn -0.1666 -0.4064 -0.8984
vn -0.1708 -0.1532 -0.9733
vn -0.2980 -0.0809 -0.9511
vn -0.1784 -0.0500 -0.9827
vn -0.5865 -0.2141 -0.7812
vn -0.0276 -0.2147 -0.9763
vn 0.3864 0.4451 -0.8078
vn 0.5807 0.1474 -0.8007
vn 0.0580 0.5716 -0.8185
vn -0.2278 0.4843 -0.8448
vn 0.5685 0.1504 0.8088
vn -0.6410 -0.7413 0.1987
vn -0.0735 -0.9754 0.2076
vn -0.4152 -0.4602 0.7848
vn -0.0655 -0.6085 0.7908
vn 0.5246 -0.8232 0.2171
vn 0.3107 -0.5121 0.8008
vn 0.9050 -0.3594 0.2278
vn 0.5423 -0.2223 0.8102
vn -0.9505 -0.2456 0.1905
vn -0.4313 -0.8904 -0.1453
vn -0.0208 -0.9687 -0.2475
vn 0.5319 -0.8162 -0.2257
vn 0.0378 -0.5400 -0.8408
vn 0.3299 -0.4773 -0.8145
vn 0.9098 -0.3553 -0.2146
vn 0.5555 -0.2071 -0.8053
vn 0.8872 -0.4609 0.0216
vn -0.1809 -0.5081 -0.8421
vn -0.5724 -0.7285 -0.3765
vn -0.4568 -0.1600 -0.8750
vn -0.7501 -0.6291 -0.2040
vn -0.8776 -0.4382 -0.1944
vn -0.6152 -0.1034 -0.7816
vn -0.6690 -0.1093 -0.7352
vn 0.9333 0.3583 0.0251
vn 0.9969 -0.0738 0.0256
vn -0.2219 0.0440 -0.9741
vn -0.3414 0.2678 -0.9009
vn -0.6006 -0.1587 -0.7837
vn -0.1266 0.1672 -0.9778
vn 0.3299 -0.4774 -0.8144
vn -0.4568 -0.1600 -0.8751
vn -0.6038 -0.1536 0.7822
vn -0.0737 -0.9973 -0.0048
vn 0.0737 0.9973 0.0048
vn -0.0258 -0.0029 0.9997
usemtl Mega_Man_Volnutt_Buster
s 1
f 1/1/1 2/2/2 3/3/3
f 4/4/4 3/3/3 2/2/2
f 3/3/3 4/4/4 5/5/5
f 6/6/6 5/5/5 4/4/4
f 2/2/2 1/1/1 7/7/7
f 8/8/8 7/7/7 1/1/1
f 8/8/8 9/9/9 7/7/7
f 10/10/10 7/7/7 9/9/9
f 9/9/9 11/11/11 10/10/10
f 12/12/12 10/10/10 11/11/11
f 13/13/5 14/14/6 15/15/13
f 16/16/14 15/15/13 14/14/6
f 16/16/14 17/17/15 15/15/13
f 18/18/16 15/15/13 17/17/15
f 18/18/16 17/17/15 19/19/17
f 20/20/18 19/19/17 17/17/15
f 20/20/18 21/21/19 19/19/17
f 22/22/20 19/19/17 21/21/19
f 21/21/19 23/23/12 22/22/20
f 24/24/21 22/22/20 23/23/12
f 25/25/8 26/26/7 27/27/22
f 28/28/23 27/27/22 26/26/7
f 27/27/22 28/28/23 29/29/4
f 30/30/24 29/29/4 28/28/23
f 29/29/4 30/30/24 31/31/6
f 32/32/25 31/31/6 30/30/24
f 25/25/8 33/33/26 26/26/7
f 34/34/27 26/26/7 33/33/26
f 33/33/26 35/35/12 34/34/27
f 36/36/28 34/34/27 35/35/12
f 37/37/29 38/38/30 39/39/29
f 40/40/31 39/39/29 38/38/30
f 41/41/32 42/42/32 43/43/32
f 44/44/33 43/43/32 42/42/32
f 45/45/34 46/46/35 47/47/35
f 48/48/36 47/47/35 46/46/35
f 49/49/37 50/50/38 51/51/37
f 52/52/39 51/51/37 50/50/38
f 53/53/40 54/54/41 55/55/40
f 56/56/42 55/55/40 54/54/41
f 57/57/43 58/58/43 59/59/44
f 60/60/45 59/59/44 58/58/43
f 61/61/46 62/62/46 63/63/46
f 64/64/47 63/63/46 62/62/46
f 65/65/48 66/66/48 67/67/48
f 68/68/49 67/67/48 66/66/48
f 69/69/50 70/70/51 71/71/50
f 72/72/52 71/71/50 70/70/51
f 73/73/53 74/74/53 75/75/53
f 76/76/54 75/75/53 74/74/53
f 77/77/55 78/78/55 79/79/55
f 80/80/55 79/79/55 78/78/55
f 81/81/56 82/82/56 83/83/56
f 84/84/56 83/83/56 82/82/56
f 85/85/57 86/86/57 87/87/57
f 88/88/57 87/87/57 86/86/57
f 89/89/58 90/90/58 91/91/58
f 92/92/58 91/91/58 90/90/58
f 93/93/59 94/94/59 95/95/59
f 96/96/59 95/95/59 94/94/59
f 97/97/60 98/98/60 99/99/60
f 100/100/60 99/99/60 98/98/60
f 101/101/61 102/102/61 103/103/61
f 104/104/61 103/103/61 102/102/61
f 105/105/62 106/106/62 107/107/62
f 108/108/62 107/107/62 106/106/62
f 109/109/63 110/110/63 111/111/63
f 112/112/63 111/111/63 110/110/63
f 113/113/64 114/114/64 115/115/64
f 116/116/64 115/115/64 114/114/64
f 117/117/65 118/118/65 119/119/65
f 118/118/65 120/120/65 119/119/65
f 121/121/65 120/120/65 118/118/65
f 122/122/65 121/121/65 118/118/65
f 123/123/65 120/120/65 121/121/65
f 124/124/65 123/123/65 121/121/65
f 125/125/65 120/120/65 123/123/65
f 119/119/65 120/120/65 126/126/65
f 127/127/66 128/128/67 129/129/68
f 130/130/6 129/129/68 128/128/67
f 128/128/67 127/127/66 131/131/69
f 132/132/70 131/131/69 127/127/66
f 131/131/69 132/132/70 133/133/71
f 134/134/72 133/133/71 132/132/70
f 134/134/72 135/135/73 133/133/71
f 136/136/74 133/133/71 135/135/73
f 135/135/73 137/137/28 136/136/74
f 138/138/12 136/136/74 137/137/28
f 139/139/75 140/140/75 141/141/75
f 142/142/75 141/141/75 140/140/75
f 143/143/76 144/144/76 145/145/76
f 146/146/76 145/145/76 144/144/76
f 147/147/77 148/148/77 149/149/77
f 150/150/77 149/149/77 148/148/77
f 151/151/78 152/152/78 153/153/78
f 154/154/78 153/153/78 152/152/78
f 155/155/79 156/156/79 157/157/79
f 158/158/79 157/157/79 156/156/79
f 159/159/80 160/160/80 161/161/80
f 162/162/80 161/161/80 160/160/80
f 163/163/81 164/164/81 165/165/81
f 166/166/81 165/165/81 164/164/81
f 167/167/82 168/168/82 169/169/82
f 170/170/82 169/169/82 168/168/82
f 171/171/83 172/172/83 173/173/83
f 174/174/83 173/173/83 172/172/83
f 175/175/84 176/176/84 177/177/84
f 178/178/84 177/177/84 176/176/84
f 179/179/85 180/180/85 181/181/86
f 182/182/86 181/181/86 180/180/85
f 181/181/86 182/182/86 183/183/85
f 184/184/85 183/183/85 182/182/86
f 183/183/85 184/184/85 185/185/85
f 186/186/85 185/185/85 184/184/85
f 185/185/85 186/186/85 187/187/85
f 188/188/85 187/187/85 186/186/85
f 180/180/85 179/179/85 189/189/85
f 190/190/85 189/189/85 179/179/85
f 187/187/85 188/188/85 191/191/85
f 192/192/85 191/191/85 188/188/85
f 191/191/85 192/192/85 193/193/85
f 194/194/85 193/193/85 192/192/85
f 193/193/85 194/194/85 195/195/85
f 196/196/85 195/195/85 194/194/85
f 195/195/85 196/196/85 197/197/85
f 198/198/85 197/197/85 196/196/85
f 197/197/85 198/198/85 190/190/85
f 189/189/85 190/190/85 198/198/85
f 199/199/87 200/200/87 201/201/87
f 202/202/87 201/201/87 200/200/87
f 203/203/88 204/204/88 205/205/88
f 206/206/88 205/205/88 204/204/88
f 207/207/89 208/208/89 209/209/89
f 210/210/89 209/209/89 208/208/89
f 211/211/90 212/212/90 213/213/90
f 214/214/90 213/213/90 212/212/90
f 215/215/91 216/216/91 217/217/91
f 218/218/91 217/217/91 216/216/91
f 219/219/92 220/220/92 221/221/92
f 222/222/92 221/221/92 220/220/92
f 223/223/93 224/224/93 225/225/93
f 226/226/93 225/225/93 224/224/93
f 227/227/94 228/228/94 229/229/94
f 230/230/94 229/229/94 228/228/94
f 231/231/95 232/232/95 233/233/95
f 234/234/95 233/233/95 232/232/95
f 235/235/96 236/236/96 237/237/96
f 238/238/96 237/237/96 236/236/96
f 239/239/97 240/240/85 241/241/85
f 240/240/85 242/242/85 241/241/85
f 242/242/85 243/243/86 241/241/85
f 241/241/85 243/243/86 244/244/86
f 245/245/98 246/246/99 247/247/100
f 248/248/101 247/247/100 246/246/99
f 246/246/99 245/245/98 249/249/102
f 250/250/103 249/249/102 245/245/98
f 249/249/102 250/250/103 251/251/104
f 252/252/105 251/251/104 250/250/103
f 251/251/104 252/252/105 253/253/106
f 254/254/107 253/253/106 252/252/105
f 248/248/101 255/255/108 247/247/100
f 256/256/109 247/247/100 255/255/108
f 248/248/101 246/246/99 257/257/110
f 249/249/102 258/258/111 246/246/99
f 259/259/112 246/246/99 258/258/111
f 257/257/110 246/246/99 259/259/112
f 259/259/112 258/258/111 260/260/113
f 261/261/114 260/260/113 258/258/111
f 258/258/111 262/262/115 261/261/114
f 251/251/104 262/262/115 249/249/102
f 258/258/111 249/249/102 262/262/115
f 263/263/116 261/261/114 262/262/115
f 262/262/115 264/264/117 263/263/116
f 265/265/118 263/263/116 264/264/117
f 253/253/106 266/266/119 251/251/104
f 251/251/104 266/266/119 262/262/115
f 260/260/113 267/267/120 259/259/112
f 267/267/120 268/268/121 259/259/112
f 268/268/121 257/257/110 259/259/112
f 269/269/122 268/268/121 267/267/120
f 270/270/123 257/257/110 268/268/121
f 257/257/110 270/270/123 248/248/101
f 271/271/124 248/248/101 270/270/123
f 255/255/108 248/248/101 271/271/124
f 272/272/125 271/271/124 270/270/123
f 271/271/124 273/273/126 255/255/108
f 273/273/126 271/271/124 274/274/127
f 274/274/127 271/271/124 272/272/125
f 275/275/128 272/272/125 270/270/123
f 269/269/122 275/275/128 268/268/121
f 268/268/121 275/275/128 270/270/123
f 276/276/119 262/262/115 266/266/119
f 264/264/117 262/262/115 276/276/119
f 277/277/129 278/278/130 279/279/131
f 280/280/132 279/279/131 278/278/130
f 277/277/129 279/279/131 281/281/133
f 282/282/127 281/281/133 279/279/131
f 283/283/134 278/278/130 277/277/129
f 284/284/135 278/278/130 283/283/134
f 280/280/132 278/278/130 284/284/135
f 285/285/136 280/280/132 284/284/135
f 284/284/135 283/283/134 286/286/137
f 287/287/138 286/286/137 283/283/134
f 288/288/120 287/287/138 283/283/134
f 289/289/122 283/283/134 277/277/129
f 289/289/122 288/288/120 283/283/134
f 277/277/129 290/290/128 289/289/122
f 281/281/133 290/290/128 277/277/129
f 291/291/100 292/292/109 293/293/105
f 294/294/139 293/293/105 292/292/109
f 293/293/105 295/295/103 291/291/100
f 296/296/98 291/291/100 295/295/103
f 297/297/140 298/298/141 299/299/142
f 300/300/143 299/299/142 298/298/141
f 298/298/141 301/301/144 300/300/143
f 302/302/145 300/300/143 301/301/144
f 301/301/144 303/303/146 302/302/145
f 304/304/147 302/302/145 303/303/146
f 303/303/146 305/305/106 304/304/147
f 306/306/139 304/304/147 305/305/106
f 297/297/140 299/299/142 307/307/148
f 308/308/109 307/307/148 299/299/142
f 298/298/141 297/297/140 309/309/149
f 298/298/141 310/310/150 301/301/144
f 310/310/150 298/298/141 309/309/149
f 311/311/151 301/301/144 310/310/150
f 310/310/150 312/312/152 311/311/151
f 313/313/153 311/311/151 312/312/152
f 311/311/151 313/313/153 314/314/154
f 315/315/155 314/314/154 313/313/153
f 314/314/154 315/315/155 316/316/117
f 317/317/136 316/316/117 315/315/155
f 314/314/154 318/318/156 311/311/151
f 314/314/154 316/316/117 318/318/156
f 319/319/157 312/312/152 310/310/150
f 320/320/158 319/319/157 310/310/150
f 309/309/149 320/320/158 310/310/150
f 320/320/158 321/321/159 319/319/157
f 309/309/149 322/322/160 320/320/158
f 322/322/160 309/309/149 297/297/140
f 322/322/160 297/297/140 323/323/161
f 297/297/140 307/307/148 323/323/161
f 323/323/161 324/324/162 322/322/160
f 325/325/126 323/323/161 307/307/148
f 323/323/161 325/325/126 326/326/127
f 323/323/161 326/326/127 324/324/162
f 324/324/162 327/327/163 322/322/160
f 327/327/163 321/321/159 320/320/158
f 327/327/163 320/320/158 322/322/160
f 328/328/164 318/318/156 316/316/117
f 311/311/151 318/318/156 301/301/144
f 329/329/156 301/301/144 318/318/156
f 303/303/146 301/301/144 329/329/156
f 303/303/146 329/329/156 305/305/106
f 330/330/119 305/305/106 329/329/156
f 331/331/165 332/332/165 333/333/165
f 334/334/165 333/333/165 332/332/165
f 335/335/132 336/336/166 337/337/131
f 338/338/167 337/337/131 336/336/166
f 338/338/167 339/339/162 337/337/131
f 340/340/168 337/337/131 339/339/162
f 336/336/166 341/341/169 338/338/167
f 336/336/166 342/342/155 341/341/169
f 336/336/166 335/335/132 342/342/155
f 335/335/132 343/343/118 342/342/155
f 342/342/155 344/344/170 341/341/169
f 345/345/152 341/341/169 344/344/170
f 341/341/169 345/345/152 346/346/157
f 341/341/169 347/347/171 338/338/167
f 347/347/171 341/341/169 346/346/157
f 348/348/163 338/338/167 347/347/171
f 348/348/163 339/339/162 338/338/167
f 349/349/142 350/350/147 351/351/172
f 352/352/107 351/351/172 350/350/147
f 350/350/147 349/349/142 353/353/145
f 354/354/143 353/353/145 349/349/142
f 355/355/173 356/356/173 357/357/173
f 358/358/173 357/357/173 356/356/173
f 359/359/65 360/360/65 361/361/65
f 362/362/65 361/361/65 360/360/65
f 363/363/174 364/364/174 365/365/174
f 366/366/174 365/365/174 364/364/174
f 367/367/175 368/368/175 369/369/175
f 370/370/175 369/369/175 368/368/175
f 371/371/85 372/372/85 373/373/85
f 372/372/85 374/374/85 373/373/85
f 375/375/85 374/374/85 372/372/85
f 373/373/85 374/374/85 376/376/85
