<?xml version="1.0" encoding="UTF-8"?>
<COLLADA xmlns="http://www.collada.org/2008/03/COLLADASchema" version="1.5.0">
	<asset>
		<contributor>
			<authoring_tool>CINEMA4D 20.057 COLLADA Exporter</authoring_tool>
		</contributor>
		<created>2019-09-15T11:08:48Z</created>
		<modified>2019-09-15T11:08:48Z</modified>
		<unit/>
		<up_axis>Y_UP</up_axis>
	</asset>
	<library_images>
		<image id="ID3">
			<init_from>
				<ref>Rotating_Trap.png</ref>
			</init_from>
		</image>
	</library_images>
	<library_effects>
		<effect id="ID2">
			<profile_COMMON>
				<newparam sid="ID4">
					<sampler2D>
						<instance_image url="#ID3"/>
					</sampler2D>
				</newparam>
				<technique sid="COMMON">
					<blinn>
						<diffuse>
							<texture texture="ID4" texcoord="UVSET0"/>
						</diffuse>
					</blinn>
				</technique>
			</profile_COMMON>
		</effect>
	</library_effects>
	<library_materials>
		<material id="ID1" name="material">
			<instance_effect url="#ID2"/>
		</material>
	</library_materials>
	<library_geometries>
		<geometry id="ID10">
			<mesh>
				<source id="ID11">
					<float_array id="ID12" count="174" digits="2490374">11.05 -19.75 -16.55 13.4 -19.25 -23.05 8.8 -19.75 -17.85 13.4 21.15 -23.05 11.05 21.7 -16.55 8.8 21.7 -17.85 -8.8 -19.75 -17.85 -13.25 -19.25 -23.1 -11.05 -19.75 -16.55 -13.25 21.15 -23.1 -8.8 21.7 -17.85 -11.05 21.7 -16.55 -19.85 -19.75 -1.3 -26.65 -19.25 -0.05 -19.85 -19.75 1.3 -26.65 21.15 -0.05 -19.85 21.7 -1.3 -19.85 21.7 1.3 -11.05 -19.75 16.55 -13.4 -19.25 23.05 -8.8 -19.75 17.85 -13.4 21.15 23.05 -11.05 21.7 16.55 -8.8 21.7 17.85 8.8 -19.75 17.85 13.25 -19.25 23.1 11.05 -19.75 16.55 13.25 21.15 23.1 8.8 21.7 17.85 11.05 21.7 16.55 19.85 -19.75 1.3 26.65 -19.25 0.05 19.85 -19.75 -1.3 26.65 21.15 0.05 19.85 21.7 1.3 19.85 21.7 -1.3 -20.5 -26.2 0 0 -39.3 0 -10.25 -26.2 -17.75 -20.5 28.4 0 0 59.75 0 -10.25 28.4 17.75 20.5 28.4 0 10.25 28.4 -17.75 20.5 -26.2 0 10.25 -26.2 17.75 -10.25 -26.2 17.75 10.25 -26.2 -17.75 10.25 28.4 17.75 -10.25 28.4 -17.75 2.5 53.9 2.5 2.5 150.35 -2.5 2.5 53.9 -2.5 2.5 150.35 2.5 -2.5 53.9 2.5 -2.5 150.35 2.5 -2.5 53.9 -2.5 -2.5 150.35 -2.5</float_array>
					<technique_common>
						<accessor count="58" source="#ID12" stride="3">
							<param name="X" type="float"/>
							<param name="Y" type="float"/>
							<param name="Z" type="float"/>
						</accessor>
					</technique_common>
				</source>
				<source id="ID13">
					<float_array id="ID14" count="192" digits="2490374">0.0366659 -0.997311 -0.0634601 0.0403098 0.996749 -0.0697669 -0.0368368 -0.997285 -0.063756 -0.0404975 0.996718 -0.0700918 -0.0733315 -0.997308 0 -0.0806193 0.996745 -0 -0.0366659 -0.997311 0.0634601 -0.0403098 0.996749 0.0697669 0.0368368 -0.997285 0.063756 0.0404975 0.996718 0.0700918 0.0733315 -0.997308 -0 0.0806193 0.996745 -0 -0.906861 -0.402446 0.125057 0 -1 1.23462e-08 -0.561676 -0.40241 -0.722901 -0.965621 0.231818 -0.117631 0 1 -2.01612e-08 -0.584621 0.231789 0.77749 0.965621 0.231818 0.117631 0.584621 0.231789 -0.77749 0.906861 -0.402446 -0.125057 0.561676 -0.40241 0.722901 -0.345127 -0.402409 0.847912 0.345127 -0.402409 -0.847912 0.380932 0.231789 0.895078 -0.380932 0.231789 -0.895078 -0.748996 0 -0.662574 -0.748997 0 -0.662574 -0.748996 0 -0.662574 0.940426 0 0.34 0.940425 0 0.34 0.940425 0 0.34 -0.947957 0 0.318398 -0.947957 0 0.318398 -0.947957 0 0.318398 0.762835 0 -0.646593 0.762835 0 -0.646593 0.762835 -0 -0.646593 -0.194729 0 0.980857 -0.194729 0 0.980857 -0.180794 0 -0.983521 -0.180794 0 -0.983521 -0.180794 0 -0.983521 0.748996 0 0.662574 0.748997 0 0.662574 0.748996 0 0.662574 -0.940426 0 -0.34 -0.940425 0 -0.34 -0.940425 0 -0.34 0.947957 0 -0.318398 0.947957 0 -0.318398 0.947957 -0 -0.318398 -0.762835 0 0.646593 -0.762835 0 0.646593 -0.762835 0 0.646593 0.194729 0 -0.980857 0.194729 -0 -0.980857 0.180794 0 0.983521 0.180794 0 0.983521 0.180794 0 0.983521 1 0 -0 0 0 1 -1 0 -0 0 0 -1</float_array>
					<technique_common>
						<accessor count="64" source="#ID14" stride="3">
							<param name="X" type="float"/>
							<param name="Y" type="float"/>
							<param name="Z" type="float"/>
						</accessor>
					</technique_common>
				</source>
				<source id="ID15">
					<float_array id="ID16" count="50" digits="2490374">0.259843 0.322835 0.346457 0.330709 0.346457 0.992126 0.259843 1 0.480315 0.724409 0.645669 0.598425 0.645669 0.84252 0.551181 0.905512 0.417323 1 0.417323 0.80315 0.259843 0.330709 0.354331 1 0.354331 0.322835 0.259843 0.992126 0.370079 0.307087 0.377953 0.850394 0.377953 0.307087 0.370079 0.858268 0.393701 0.307087 0.393701 0.858268 0.393701 0.850394 0.19685 0.322835 0 1 0 0.322835 0.19685 1</float_array>
					<technique_common>
						<accessor count="25" source="#ID16" stride="2">
							<param name="S" type="float"/>
							<param name="T" type="float"/>
						</accessor>
					</technique_common>
				</source>
				<vertices id="ID17">
					<input semantic="POSITION" source="#ID11"/>
				</vertices>
				<polylist count="68" material="Material1">
					<input offset="0" semantic="VERTEX" source="#ID17" set="0"/>
					<input offset="1" semantic="NORMAL" source="#ID13" set="0"/>
					<input offset="2" semantic="TEXCOORD" source="#ID15" set="0"/>
					<vcount>3 3 3 3 3 3 3 3 3 3 3 3 3 3 3 3 3 3 3 3 3 3 3 3 3 3 3 3 3 3 3 3 3 3 3 3 3 3 3 3 3 3 3 3 3 3 3 3 3 3 3 3 3 3 3 3 3 3 3 3 3 3 3 3 3 3 3 3</vcount>
					<p>2 0 0 1 0 1 0 0 0 5 1 3 4 1 3 3 1 2 8 2 0 7 2 1 6 2 0 11 3 3 10 3 3 9 3 2 14 4 0 13 4 1 12 4 0 17 5 3 16 5 3 15 5 2 20 6 0 19 6 1 18 6 0 23 7 3 22 7 3 21 7 2 26 8 0 25 8 1 24 8 0 29 9 3 28 9 3 27 9 2 32 10 0 31 10 1 30 10 0 35 11 3 34 11 3 33 11 2 38 14 6 37 13 5 36 12 4 41 17 9 40 16 8 39 15 7 43 19 9 40 16 8 42 18 7 45 21 6 37 13 5 44 20 4 37 13 5 46 22 4 36 12 6 46 22 6 37 13 5 45 21 4 37 13 5 47 23 4 44 20 6 47 23 6 37 13 5 38 14 4 40 16 8 48 24 7 42 18 9 40 16 8 41 17 7 48 24 9 40 16 8 49 25 7 39 15 9 40 16 8 43 19 7 49 25 9 2 27 12 5 26 11 1 26 10 5 26 11 3 28 13 1 26 10 1 30 10 3 29 13 0 29 12 3 29 13 4 31 11 0 29 12 8 33 12 11 32 11 7 32 10 11 32 11 9 34 13 7 32 10 7 36 10 9 35 13 6 35 12 9 35 13 10 37 11 6 35 12 14 38 12 17 38 11 13 38 10 17 38 11 15 39 13 13 38 10 13 41 10 15 40 13 12 40 12 15 40 13 16 42 11 12 40 12 20 44 12 23 43 11 19 43 10 23 43 11 21 45 13 19 43 10 19 47 10 21 46 13 18 46 12 21 46 13 22 48 11 18 46 12 26 50 12 29 49 11 25 49 10 29 49 11 27 51 13 25 49 10 25 53 10 27 52 13 24 52 12 27 52 13 28 54 11 24 52 12 32 55 12 35 55 11 31 55 10 35 55 11 33 56 13 31 55 10 31 58 10 33 57 13 30 57 12 33 57 13 34 59 11 30 57 12 52 60 16 51 60 15 50 60 14 51 60 15 53 60 17 50 60 14 50 61 14 53 61 17 54 61 18 53 61 17 55 61 19 54 61 18 54 62 18 55 62 19 56 62 18 55 62 19 57 62 20 56 62 18 56 63 18 57 63 20 52 63 16 57 63 20 51 63 15 52 63 16 36 12 23 39 15 22 38 14 21 39 15 22 49 25 24 38 14 21 38 14 23 49 25 22 47 23 21 49 25 22 43 19 24 47 23 21 47 23 23 43 19 22 44 20 21 43 19 22 42 18 24 44 20 21 44 20 23 42 18 22 45 21 21 42 18 22 48 24 24 45 21 21 45 21 23 48 24 22 46 22 21 48 24 22 41 17 24 46 22 21 46 22 23 41 17 22 36 12 21 41 17 22 39 15 24 36 12 21</p>
				</polylist>
			</mesh>
		</geometry>
	</library_geometries>
	<library_controllers>
		<controller id="ID9">
			<skin source="#ID10">
				<bind_shape_matrix>1 0 0 0 0 1 0 0 0 0 1 0 0 0 0 1</bind_shape_matrix>
				<source id="ID18">
					<Name_array id="ID19" count="1">joint1</Name_array>
					<technique_common>
						<accessor count="1" source="#ID19">
							<param name="JOINT" type="Name"/>
						</accessor>
					</technique_common>
				</source>
				<source id="ID20">
					<float_array id="ID21" count="2" digits="2490374">0 1</float_array>
					<technique_common>
						<accessor count="2" source="#ID21">
							<param name="WEIGHT" type="float"/>
						</accessor>
					</technique_common>
				</source>
				<source id="ID22">
					<float_array id="ID23" count="16" digits="2490374">1 0 0 -0 0 1 0 0 0 0 1 0 0 0 0 1</float_array>
					<technique_common>
						<accessor count="1" source="#ID23" stride="16">
							<param name="TRANSFORM" type="float4x4"/>
						</accessor>
					</technique_common>
				</source>
				<joints>
					<input semantic="JOINT" source="#ID18"/>
					<input semantic="INV_BIND_MATRIX" source="#ID22"/>
				</joints>
				<vertex_weights count="58">
					<input offset="0" semantic="JOINT" source="#ID18" set="0"/>
					<input offset="1" semantic="WEIGHT" source="#ID20" set="0"/>
					<vcount>1 1 1 1 1 1 1 1 1 1 1 1 1 1 1 1 1 1 1 1 1 1 1 1 1 1 1 1 1 1 1 1 1 1 1 1 1 1 1 1 1 1 1 1 1 1 1 1 1 1 1 1 1 1 1 1 1 1</vcount>
					<v>0 1 0 1 0 1 0 1 0 1 0 1 0 1 0 1 0 1 0 1 0 1 0 1 0 1 0 1 0 1 0 1 0 1 0 1 0 1 0 1 0 1 0 1 0 1 0 1 0 1 0 1 0 1 0 1 0 1 0 1 0 1 0 1 0 1 0 1 0 1 0 1 0 1 0 1 0 1 0 1 0 1 0 1 0 1 0 1 0 1 0 1 0 1 0 1 0 1 0 1 0 1 0 1 0 1 0 1 0 1 0 1 0 1 0 1</v>
				</vertex_weights>
			</skin>
		</controller>
	</library_controllers>
	<library_visual_scenes>
		<visual_scene id="ID5">
			<node id="ID6" name="Mesh">
				<translate sid="translate">0 0 -0</translate>
				<rotate sid="rotateY">0 1 0 -0</rotate>
				<rotate sid="rotateX">1 0 0 0</rotate>
				<rotate sid="rotateZ">0 0 1 -0</rotate>
				<scale sid="scale">1 1 1</scale>
				<instance_controller url="#ID9">
					<skeleton>#ID5</skeleton>
					<bind_material>
						<technique_common>
							<instance_material symbol="Material1" target="#ID1">
								<bind_vertex_input semantic="UVSET0" input_semantic="TEXCOORD" input_set="0"/>
							</instance_material>
						</technique_common>
					</bind_material>
				</instance_controller>
			</node>
			<node id="ID7" name="Armature">
				<translate sid="translate">0 0 -0</translate>
				<rotate sid="rotateY">0 1 0 -0</rotate>
				<rotate sid="rotateX">1 0 0 0</rotate>
				<rotate sid="rotateZ">0 0 1 -0</rotate>
				<scale sid="scale">1 1 1</scale>
				<node id="ID8" name="Bone000" sid="joint1" type="JOINT">
					<translate sid="translate">0 0 -0</translate>
					<rotate sid="rotateY">0 1 0 -0</rotate>
					<rotate sid="rotateX">1 0 0 0</rotate>
					<rotate sid="rotateZ">0 0 1 -0</rotate>
					<scale sid="scale">1 1 1</scale>
				</node>
			</node>
		</visual_scene>
	</library_visual_scenes>
	<scene>
		<instance_visual_scene url="#ID5"/>
	</scene>
</COLLADA>
