# WaveFront *.obj file (generated by CINEMA 4D)

mtllib ./Rotating_Trap.mtl

v 11.05000019073486 -19.75 16.54999923706055
v 13.39999961853027 -19.25 23.04999923706055
v 8.80000019073486 -19.75 17.85000038146973
v 13.39999961853027 21.14999961853027 23.04999923706055
v 11.05000019073486 21.70000076293945 16.54999923706055
v 8.80000019073486 21.70000076293945 17.85000038146973
v -8.80000019073486 -19.75 17.85000038146973
v -13.25 -19.25 23.10000038146973
v -11.05000019073486 -19.75 16.54999923706055
v -13.25 21.14999961853027 23.10000038146973
v -8.80000019073486 21.70000076293945 17.85000038146973
v -11.05000019073486 21.70000076293945 16.54999923706055
v -19.85000038146973 -19.75 1.29999995231628
v -26.64999961853027 -19.25 0.05000000074506
v -19.85000038146973 -19.75 -1.29999995231628
v -26.64999961853027 21.14999961853027 0.05000000074506
v -19.85000038146973 21.70000076293945 1.29999995231628
v -19.85000038146973 21.70000076293945 -1.29999995231628
v -11.05000019073486 -19.75 -16.54999923706055
v -13.39999961853027 -19.25 -23.04999923706055
v -8.80000019073486 -19.75 -17.85000038146973
v -13.39999961853027 21.14999961853027 -23.04999923706055
v -11.05000019073486 21.70000076293945 -16.54999923706055
v -8.80000019073486 21.70000076293945 -17.85000038146973
v 8.80000019073486 -19.75 -17.85000038146973
v 13.25 -19.25 -23.10000038146973
v 11.05000019073486 -19.75 -16.54999923706055
v 13.25 21.14999961853027 -23.10000038146973
v 8.80000019073486 21.70000076293945 -17.85000038146973
v 11.05000019073486 21.70000076293945 -16.54999923706055
v 19.85000038146973 -19.75 -1.29999995231628
v 26.64999961853027 -19.25 -0.05000000074506
v 19.85000038146973 -19.75 1.29999995231628
v 26.64999961853027 21.14999961853027 -0.05000000074506
v 19.85000038146973 21.70000076293945 -1.29999995231628
v 19.85000038146973 21.70000076293945 1.29999995231628
v -20.5 -26.20000076293945 0
v 0 -39.29999923706055 0
v -10.25 -26.20000076293945 17.75
v -20.5 28.39999961853027 0
v 0 59.75 0
v -10.25 28.39999961853027 -17.75
v 20.5 28.39999961853027 0
v 10.25 28.39999961853027 17.75
v 20.5 -26.20000076293945 0
v 10.25 -26.20000076293945 -17.75
v -10.25 -26.20000076293945 -17.75
v 10.25 -26.20000076293945 17.75
v 10.25 28.39999961853027 -17.75
v -10.25 28.39999961853027 17.75
v 2.5 53.90000152587891 -2.5
v 2.5 150.35000610351562 2.5
v 2.5 53.90000152587891 2.5
v 2.5 150.35000610351562 -2.5
v -2.5 53.90000152587891 -2.5
v -2.5 150.35000610351562 -2.5
v -2.5 53.90000152587891 2.5
v -2.5 150.35000610351562 2.5
# 58 vertices

vn 0.03666586056352 -0.99731057882309 0.0634600892663
vn 0 0 0
vn 0.04030980169773 0.9967485666275 0.06976690888405
vn -0.03683682158589 -0.99728542566299 0.06375598162413
vn -0.04049753770232 0.99671816825867 0.07009182870388
vn -0.07333145290613 -0.99730759859085 0
vn -0.08061926066875 0.99674499034882 0
vn -0.03666586056352 -0.99731057882309 -0.0634600892663
vn -0.04030980169773 0.9967485666275 -0.06976690888405
vn 0.03683682158589 -0.99728542566299 -0.06375598162413
vn 0.04049753770232 0.99671816825867 -0.07009182870388
vn 0.07333145290613 -0.99730759859085 0
vn 0.08061926066875 0.99674499034882 0
vn -0.9068615436554 -0.40244606137276 -0.12505742907524
vn 0 -1 -0.00000001234621
vn -0.56167644262314 -0.40240985155106 0.72290104627609
vn -0.96562069654465 0.23181802034378 0.11763124167919
vn 0 1 0.00000002016118
vn -0.58462154865265 0.23178900778294 -0.77749055624008
vn 0.96562069654465 0.2318180501461 -0.11763125658035
vn 0.58462154865265 0.23178900778294 0.77749055624008
vn 0.9068615436554 -0.40244606137276 0.12505742907524
vn 0.56167644262314 -0.40240985155106 -0.72290104627609
vn -0.3451267182827 -0.40240916609764 -0.84791177511215
vn 0.3451267182827 -0.40240916609764 0.84791177511215
vn 0.38093227148056 0.23178879916668 -0.89507794380188
vn -0.38093227148056 0.23178879916668 0.89507794380188
vn -0.74899649620056 0 0.66257393360138
vn -0.74899655580521 0 0.66257393360138
vn -0.74899655580521 0 0.66257393360138
vn 0.94042545557022 0 -0.33999988436699
vn 0.94042545557022 0 -0.33999988436699
vn 0.94042545557022 0 -0.33999988436699
vn -0.94795721769333 0 -0.31839776039124
vn -0.94795721769333 0 -0.31839776039124
vn -0.94795721769333 0 -0.31839776039124
vn 0.76283490657806 0 0.64659333229065
vn 0.76283484697342 0 0.64659333229065
vn 0.76283484697342 0 0.64659333229065
vn -0.19472898542881 0 -0.98085707426071
vn -0.19472900032997 0 -0.98085707426071
vn -0.18079429864883 0 0.98352092504501
vn -0.18079431355 0 0.98352092504501
vn -0.18079429864883 0 0.98352092504501
vn 0.74899649620056 0 -0.66257393360138
vn 0.74899655580521 0 -0.66257393360138
vn 0.74899655580521 0 -0.66257393360138
vn -0.94042545557022 0 0.33999988436699
vn -0.94042545557022 0 0.33999988436699
vn -0.94042545557022 0 0.33999988436699
vn 0.94795721769333 0 0.31839776039124
vn 0.94795721769333 0 0.31839776039124
vn 0.94795721769333 0 0.31839776039124
vn -0.76283490657806 0 -0.64659333229065
vn -0.76283484697342 0 -0.64659333229065
vn -0.76283484697342 0 -0.64659333229065
vn 0.19472898542881 0 0.98085707426071
vn 0.19472900032997 0 0.98085707426071
vn 0.18079429864883 0 -0.98352092504501
vn 0.18079431355 0 -0.98352092504501
vn 0.18079429864883 0 -0.98352092504501
vn 1 0 0
vn 0 0 -1
vn -1 0 0
vn 0 0 1
vn 0 0 1
# 66 normals

vt 0.25984251499176 0.32283473014832 0
vt 0.3464567065239 0.33070874214172 0
vt 0.3464567065239 0.99212598800659 0
vt 0.25984251499176 1 0
vt 0.48031497001648 0.72440946102142 0
vt 0.6456692814827 0.59842520952225 0
vt 0.6456692814827 0.84251970052719 0
vt 0.55118107795715 0.90551179647446 0
vt 0.41732284426689 1 0
vt 0.41732284426689 0.80314958095551 0
vt 0.25984251499176 0.33070874214172 0
vt 0.3543307185173 1 0
vt 0.3543307185173 0.32283473014832 0
vt 0.25984251499176 0.99212598800659 0
vt 0.37007874250412 0.30708658695221 0
vt 0.37795275449753 0.8503937125206 0
vt 0.37795275449753 0.30708658695221 0
vt 0.37007874250412 0.85826772451401 0
vt 0.39370077848434 0.30708658695221 0
vt 0.39370077848434 0.85826772451401 0
vt 0.39370077848434 0.8503937125206 0
vt 0.19685038924217 0.32283473014832 0
vt 0 1 0
vt 0 0.32283473014832 0
vt 0.19685038924217 1 0
# 25 texture coordinates

o Mesh
usemtl material
f 1/1/1 2/2/1 3/1/1
f 4/3/3 5/4/3 6/4/3
f 7/1/4 8/2/4 9/1/4
f 10/3/5 11/4/5 12/4/5
f 13/1/6 14/2/6 15/1/6
f 16/3/7 17/4/7 18/4/7
f 19/1/8 20/2/8 21/1/8
f 22/3/9 23/4/9 24/4/9
f 25/1/10 26/2/10 27/1/10
f 28/3/11 29/4/11 30/4/11
f 31/1/12 32/2/12 33/1/12
f 34/3/13 35/4/13 36/4/13
f 37/5/14 38/6/15 39/7/16
f 40/8/17 41/9/18 42/10/19
f 43/8/20 41/9/18 44/10/21
f 45/5/22 38/6/15 46/7/23
f 37/7/14 47/5/24 38/6/15
f 46/5/23 38/6/15 47/7/24
f 45/7/22 48/5/25 38/6/15
f 39/5/16 38/6/15 48/7/25
f 43/10/20 49/8/26 41/9/18
f 49/10/26 42/8/19 41/9/18
f 40/10/17 50/8/27 41/9/18
f 50/10/27 44/8/21 41/9/18
f 2/11/28 6/12/28 3/13/29
f 2/11/28 4/14/30 6/12/28
f 1/13/31 4/14/31 2/11/32
f 1/13/31 5/12/33 4/14/31
f 8/11/34 12/12/34 9/13/35
f 8/11/34 10/14/36 12/12/34
f 7/13/37 10/14/37 8/11/38
f 7/13/37 11/12/39 10/14/37
f 14/11/40 18/12/40 15/13/40
f 14/11/40 16/14/41 18/12/40
f 13/13/42 16/14/42 14/11/43
f 13/13/42 17/12/44 16/14/42
f 20/11/45 24/12/45 21/13/46
f 20/11/45 22/14/47 24/12/45
f 19/13/48 22/14/48 20/11/49
f 19/13/48 23/12/50 22/14/48
f 26/11/51 30/12/51 27/13/52
f 26/11/51 28/14/53 30/12/51
f 25/13/54 28/14/54 26/11/55
f 25/13/54 29/12/56 28/14/54
f 32/11/57 36/12/57 33/13/57
f 32/11/57 34/14/58 36/12/57
f 31/13/59 34/14/59 32/11/60
f 31/13/59 35/12/61 34/14/59
f 51/15/62 52/16/62 53/17/62
f 51/15/62 54/18/62 52/16/62
f 55/19/63 54/18/63 51/15/63
f 55/19/63 56/20/63 54/18/63
f 57/19/64 56/20/64 55/19/64
f 57/19/64 58/21/64 56/20/64
f 53/17/65 58/21/65 57/19/65
f 53/17/65 52/16/66 58/21/65
f 39/22/16 40/23/17 37/24/14
f 39/22/16 50/25/27 40/23/17
f 48/22/25 50/23/27 39/24/16
f 48/22/25 44/25/21 50/23/27
f 45/22/22 44/23/21 48/24/25
f 45/22/22 43/25/20 44/23/21
f 46/22/23 43/23/20 45/24/22
f 46/22/23 49/25/26 43/23/20
f 47/22/24 49/23/26 46/24/23
f 47/22/24 42/25/19 49/23/26
f 37/22/14 42/23/19 47/24/24
f 37/22/14 40/25/17 42/23/19

