# WaveFront *.obj file (generated by CINEMA 4D)

mtllib ./Gorubesshu.mtl

v 5.59999990463257 -11.35000038146973 9.75
v -11.25 -11.35000038146973 0
v 11.25 -11.35000038146973 0
v -5.59999990463257 -11.35000038146973 9.75
v -9.55000019073486 -8.94999980926514 16.5
v -15.60000038146973 9.14999961853027 0
v -19.10000038146973 -8.94999980926514 0
v -7.80000019073486 9.14999961853027 13.55000019073486
v 9.55000019073486 -8.94999980926514 16.5
v 7.80000019073486 9.14999961853027 13.55000019073486
v 19.10000038146973 -8.94999980926514 0
v 15.60000038146973 9.14999961853027 0
v 9.55000019073486 -8.94999980926514 -16.5
v 7.80000019073486 9.14999961853027 -13.55000019073486
v -9.55000019073486 -8.94999980926514 -16.5
v -7.80000019073486 9.14999961853027 -13.55000019073486
v -5.59999990463257 -11.35000038146973 -9.75
v 5.59999990463257 -11.35000038146973 -9.75
v 25.5 3 3.45000004768372
v 16 -2.59999990463257 6.25
v 28.70000076293945 -2.59999990463257 6.25
v 19.20000076293945 3 3.45000004768372
v 16 -2.59999990463257 -6.25
v 19.20000076293945 3 -3.45000004768372
v 25.5 3 -3.45000004768372
v 28.70000076293945 -2.59999990463257 -6.25
v 19.20000076293945 -8.19999980926514 3.45000004768372
v 25.5 -8.19999980926514 3.45000004768372
v 25.5 -8.19999980926514 -3.45000004768372
v 19.20000076293945 -8.19999980926514 -3.45000004768372
v 19.20000076293945 -15.25 -3.45000004768372
v 20.85000038146973 -19.45000076293945 1.64999997615814
v 19.20000076293945 -15.25 3.45000004768372
v 20.85000038146973 -19.45000076293945 -1.64999997615814
v 25.5 -15.25 3.45000004768372
v 25.5 -15.25 -3.45000004768372
v 23.85000038146973 -19.45000076293945 -1.64999997615814
v 23.85000038146973 -19.45000076293945 1.64999997615814
v 18.79999923706055 -34.95000076293945 -23.54999923706055
v 29.45000076293945 -39 -18.89999961853027
v 15.25 -39 -18.89999961853027
v 25.89999961853027 -34.95000076293945 -23.54999923706055
v 18.79999923706055 -43.04999923706055 -14.25
v 16.75 -17.45000076293945 -0.15000000596046
v 19.54999923706055 -20.64999961853027 3.5
v 25.14999961853027 -14.25 -3.79999995231628
v 27.95000076293945 -17.45000076293945 -0.15000000596046
v 19.54999923706055 -14.25 -3.79999995231628
v 25.89999961853027 -43.04999923706055 -14.25
v 25.14999961853027 -20.64999961853027 3.5
v -19.20000076293945 3 3.45000004768372
v -28.70000076293945 -2.59999990463257 6.25
v -16 -2.59999990463257 6.25
v -25.5 3 3.45000004768372
v -19.20000076293945 3 -3.45000004768372
v -16 -2.59999990463257 -6.25
v -28.70000076293945 -2.59999990463257 -6.25
v -25.5 3 -3.45000004768372
v -25.5 -8.19999980926514 3.45000004768372
v -19.20000076293945 -8.19999980926514 3.45000004768372
v -25.5 -8.19999980926514 -3.45000004768372
v -19.20000076293945 -8.19999980926514 -3.45000004768372
v -19.20000076293945 -15.25 3.45000004768372
v -20.85000038146973 -19.45000076293945 -1.64999997615814
v -19.20000076293945 -15.25 -3.45000004768372
v -20.85000038146973 -19.45000076293945 1.64999997615814
v -25.5 -15.25 3.45000004768372
v -25.5 -15.25 -3.45000004768372
v -23.85000038146973 -19.45000076293945 -1.64999997615814
v -23.85000038146973 -19.45000076293945 1.64999997615814
v -46.54999923706055 -45.20000076293945 21.29999923706055
v -44.70000076293945 -25.64999961853027 6.09999990463257
v -44.20000076293945 -21.25 19.89999961853027
v -46.54999923706055 -45.20000076293945 -21.29999923706055
v -44.20000076293945 -21.25 -19.89999961853027
v -44.70000076293945 -25.64999961853027 -6.09999990463257
v -30.79999923706055 -20.39999961853027 -33.45000076293945
v -25.5 5.94999980926514 -27.75
v -25.89999961853027 -21.85000038146973 -30.45000076293945
v -29.04999923706055 8.44999980926514 -29.95000076293945
v -30.79999923706055 -20.39999961853027 33.45000076293945
v -45.29999923706055 8.5 20.54999923706055
v -48.90000152587891 -20.04999923706055 22.79999923706055
v -29.04999923706055 8.44999980926514 29.95000076293945
v -25.5 5.94999980926514 27.75
v -25.89999961853027 -21.85000038146973 30.45000076293945
v -41.75 6 -18.5
v -48.90000152587891 -20.04999923706055 -22.79999923706055
v -51.95000076293945 -45.25 -24.60000038146973
v -41.70000076293945 6.05000019073486 18.5
v -51.95000076293945 -45.25 24.60000038146973
v -45.29999923706055 8.5 -20.54999923706055
v -20.25 -14.89999961853027 4.69999980926514
v -20.25 -23.60000038146973 -4.69999980926514
v -20.25 -14.89999961853027 -4.69999980926514
v -20.25 -23.60000038146973 4.69999980926514
v -43.40000152587891 -12.80000019073486 6.09999990463257
v -43.40000152587891 -12.80000019073486 -6.09999990463257
v -5.69999980926514 20.85000038146973 9.85000038146973
v 0 30.25 0
v -11.35000038146973 20.85000038146973 0
v 5.69999980926514 20.85000038146973 9.85000038146973
v 11.35000038146973 20.85000038146973 0
v 5.69999980926514 20.85000038146973 -9.85000038146973
v -5.69999980926514 20.85000038146973 -9.85000038146973
v 2.70000004768372 26.35000038146973 2.70000004768372
v 0 26.35000038146973 -2.70000004768372
v 0 48.09999847412109 0
v -2.70000004768372 26.35000038146973 2.70000004768372
v -18.5 9.05000019073486 -32.04999923706055
v 37 9.05000019073486 0
v -37 9.05000019073486 0
v 18.5 9.05000019073486 -32.04999923706055
v -18.5 9.05000019073486 32.04999923706055
v -41.09999847412109 11.55000019073486 0
v -20.54999923706055 11.55000019073486 35.59999847412109
v 18.5 9.05000019073486 32.04999923706055
v 20.54999923706055 11.55000019073486 35.59999847412109
v 41.09999847412109 11.55000019073486 0
v 20.54999923706055 11.55000019073486 -35.59999847412109
v -20.54999923706055 11.55000019073486 -35.59999847412109
v 3.90000009536743 -27.29999923706055 3.90000009536743
v 5.84999990463257 -11.10000038146973 -6.15000009536743
v 5.84999990463257 -11.10000038146973 6.15000009536743
v 3.90000009536743 -27.29999923706055 -3.90000009536743
v -5.84999990463257 -11.10000038146973 -6.15000009536743
v -3.90000009536743 -27.29999923706055 -3.90000009536743
v -5.84999990463257 -11.10000038146973 6.15000009536743
v -3.90000009536743 -27.29999923706055 3.90000009536743
v 14.85000038146973 -28.85000038146973 7.40000009536743
v 9.5 -33.34999847412109 0
v 14.85000038146973 -28.85000038146973 -7.40000009536743
v 4.15000009536743 -28.85000038146973 -7.40000009536743
v 4.15000009536743 -28.85000038146973 7.40000009536743
v 12.5 -12.75 4.25
v 14.14999961853027 -16.70000076293945 -6.55000019073486
v 12.5 -12.75 -4.25
v 14.14999961853027 -16.70000076293945 6.55000019073486
v 4.84999990463257 -16.70000076293945 -6.55000019073486
v 6.5 -12.75 -4.25
v 4.84999990463257 -16.70000076293945 6.55000019073486
v 6.5 -12.75 4.25
v 15.80000019073486 -46.40000152587891 7.5
v 9.5 -50.90000152587891 0
v 15.80000019073486 -46.40000152587891 -7.5
v 3.20000004768372 -46.40000152587891 -7.5
v 3.20000004768372 -46.40000152587891 7.5
v 15.14999961853027 -30.95000076293945 -7.44999980926514
v 3.84999990463257 -30.95000076293945 7.44999980926514
v 15.14999961853027 -30.95000076293945 7.44999980926514
v 3.84999990463257 -30.95000076293945 -7.44999980926514
v 19.10000038146973 -33.25 -14.05000019073486
v 19.75 -47.54999923706055 -8.55000019073486
v 21.39999961853027 -58.20000076293945 -16.20000076293945
v 18.60000038146973 -34.70000076293945 -8.60000038146973
v 0.30000001192093 -32.90000152587891 -24.04999923706055
v 0.30000001192093 -58.04999923706055 -27.60000038146973
v 0.40000000596046 -58.29999923706055 13.39999961853027
v 0.40000000596046 -47.29999923706055 -19
v 0.34999999403954 -48.15000152587891 13.05000019073486
v 17.04999923706055 -48.15000152587891 12.89999961853027
v 17.95000076293945 -58.29999923706055 13.25
v 0.34999999403954 -34.15000152587891 -18.29999923706055
v -9.5 -33.34999847412109 0
v -14.85000038146973 -28.85000038146973 7.40000009536743
v -14.85000038146973 -28.85000038146973 -7.40000009536743
v -4.15000009536743 -28.85000038146973 -7.40000009536743
v -4.15000009536743 -28.85000038146973 7.40000009536743
v -12.5 -12.75 -4.25
v -14.14999961853027 -16.70000076293945 6.55000019073486
v -12.5 -12.75 4.25
v -14.14999961853027 -16.70000076293945 -6.55000019073486
v -6.5 -12.75 -4.25
v -4.84999990463257 -16.70000076293945 -6.55000019073486
v -6.5 -12.75 4.25
v -4.84999990463257 -16.70000076293945 6.55000019073486
v -9.5 -50.90000152587891 0
v -15.80000019073486 -46.40000152587891 7.5
v -15.80000019073486 -46.40000152587891 -7.5
v -3.20000004768372 -46.40000152587891 -7.5
v -3.20000004768372 -46.40000152587891 7.5
v -3.84999990463257 -30.95000076293945 -7.44999980926514
v -15.14999961853027 -30.95000076293945 7.44999980926514
v -3.84999990463257 -30.95000076293945 7.44999980926514
v -15.14999961853027 -30.95000076293945 -7.44999980926514
v -19.75 -47.54999923706055 -8.55000019073486
v -19.10000038146973 -33.25 -14.05000019073486
v -21.39999961853027 -58.20000076293945 -16.20000076293945
v -18.60000038146973 -34.70000076293945 -8.60000038146973
v -0.30000001192093 -58.04999923706055 -27.60000038146973
v -0.30000001192093 -32.90000152587891 -24.04999923706055
v -0.40000000596046 -47.29999923706055 -19
v -0.40000000596046 -58.29999923706055 13.39999961853027
v -0.34999999403954 -48.15000152587891 13.05000019073486
v -17.04999923706055 -48.15000152587891 12.89999961853027
v -17.95000076293945 -58.29999923706055 13.25
v -0.34999999403954 -34.15000152587891 -18.29999923706055
# 197 vertices

vn 0.058658298105 -0.9836083650589 0.17051033675671
vn -0.14664034545422 -0.98878592252731 -0.02826718054712
vn 0.14664034545422 -0.98878592252731 0.02826718054712
vn 0 0 0
vn -0.14669969677925 -0.97442251443863 0.17023488879204
vn -0.47934418916702 -0.56140702962875 0.67457491159439
vn -0.96484506130218 0.18565039336681 0.18603222072124
vn -0.82382988929749 -0.56141728162766 -0.07819776982069
vn -0.32208847999573 0.18254360556602 0.92894393205643
vn 0.34306648373604 -0.56215065717697 0.75252377986908
vn 0.64339876174927 0.18423092365265 0.7430322766304
vn 0.82382988929749 -0.56141728162766 0.07819776982069
vn 0.96484506130218 0.18565036356449 -0.18603220582008
vn 0.47934418916702 -0.56140702962875 -0.67457491159439
vn 0.32208847999573 0.18254360556602 -0.92894393205643
vn -0.34306648373604 -0.56215065717697 -0.75252377986908
vn -0.64339876174927 0.18423092365265 -0.7430322766304
vn -0.058658298105 -0.9836083650589 -0.17051033675671
vn 0.14669969677925 -0.97442251443863 -0.17023488879204
vn 0.45526361465454 0.75682258605957 0.46899324655533
vn -0.5380637049675 0.13857260346413 0.83143556118011
vn 0.5380637049675 -0.13857260346413 0.83143556118011
vn -0.43901237845421 0.86956030130386 0.22612595558167
vn -0.78725016117096 0.10137397050858 -0.60824376344681
vn -0.37606137990952 0.8417227268219 -0.38740253448486
vn 0.22089204192162 0.86260306835175 -0.45510724186897
vn 0.78725016117096 -0.10137397050858 -0.60824376344681
vn -0.74287259578705 -0.37510687112808 0.55446839332581
vn 0.64610600471497 -0.33987537026405 0.68339717388153
vn 0.80467140674591 -0.26465290784836 -0.53147220611572
vn -0.4200747013092 -0.31266900897026 -0.85192447900772
vn -0.98253536224365 -0.18607586622238 0
vn -0.93075156211853 -0.36565226316452 0
vn -0.98253536224365 -0.18607585132122 0
vn 0 -0.20106583833694 0.97957772016525
vn 0.98253536224365 -0.18607586622238 0
vn 0.98253536224365 -0.18607585132122 0
vn 0 -0.20106583833694 -0.97957772016525
vn 0 -0.39391925930977 -0.91914504766464
vn 0.93075156211853 -0.36565226316452 0
vn 0 -0.39391925930977 0.91914504766464
vn 0 -0.75408166646957 -0.65678071975708
vn -0.65417122840881 -0.45621985197067 0.60326063632965
vn -0.98074233531952 -0.08472168445587 0.17597348988056
vn -0.9807300567627 0.16258582472801 -0.10832520574331
vn -0.32695147395134 -0.58017981052399 0.7459853887558
vn 0 0.75193816423416 0.65923368930817
vn 0 0.75193822383881 0.65923357009888
vn 0 0.75193828344345 0.65923345088959
vn 0.32721638679504 -0.58011734485626 0.74591773748398
vn 0.65417218208313 -0.45623499155045 0.60324823856354
vn 0.98070430755615 -0.08487179875374 0.17611308395863
vn 0.98078215122223 0.16241765022278 -0.10810568928719
vn 0.65426343679428 0.53429490327835 -0.53522729873657
vn 0.32703280448914 0.65852719545364 -0.67778420448303
vn -0.327228307724 0.65848416090012 -0.67773169279099
vn -0.65426415205002 0.53428423404694 -0.53523713350296
vn 0 0.75193840265274 0.65923339128494
vn 0 0.75193840265274 0.65923339128494
vn 0 -0.75408166646957 -0.65678071975708
vn 0.27922758460045 0.76880782842636 0.57529681921005
vn -0.78725016117096 0.10137397050858 0.60824376344681
vn 0.78725016117096 -0.10137397050858 0.60824376344681
vn -0.27162891626358 0.92082470655441 0.27982059121132
vn 0.37606140971184 0.8417227268219 -0.38740250468254
vn 0.5380637049675 -0.13857260346413 -0.83143556118011
vn -0.5380637049675 0.13857261836529 -0.83143556118011
vn -0.55565059185028 0.78060221672058 -0.28620383143425
vn -0.67721492052078 -0.32832369208336 0.65847063064575
vn 0.52304953336716 -0.26410916447639 0.81034898757935
vn -0.54293406009674 -0.37433275580406 -0.75172972679138
vn 0.84350603818893 -0.32496303319931 -0.42766407132149
vn 0.8712522983551 -0.05623961240053 0.48760282993317
vn 0.94666510820389 -0.32221263647079 -0.00204679649323
vn 0.99549388885498 -0.09469877928495 -0.00490236515179
vn 0.91947120428085 -0.06618000566959 -0.38754722476006
vn 0.9761146903038 -0.10187734663486 0.19188822805882
vn 0.8096017241478 -0.58697521686554 0.00225680624135
vn 0.02897940389812 0.11890993267298 -0.99248206615448
vn 0.54780328273773 0.0701521858573 -0.83366072177887
vn 0.53654527664185 0.07392363250256 -0.84062743186951
vn 0.03715471550822 0.1181296184659 -0.99230283498764
vn 0.02897943928838 0.1189099252224 0.99248206615448
vn -0.74938827753067 0.14689072966576 0.64563173055649
vn -0.96168726682663 0.13851849734783 0.23658032715321
vn 0.03715471550822 0.11812961101532 0.99230283498764
vn 0.54780328273773 0.07015217840672 0.83366072177887
vn 0.53654527664185 0.07392362505198 0.84062743186951
vn 0.48114478588104 0.24557779729366 0.84154099225998
vn 0.49513307213783 -0.09104120731354 0.86403399705887
vn 0.83148646354675 0.47045084834099 0.29547634720802
vn 0.52312558889389 -0.00194964814 -0.85225337743759
vn 0.52146339416504 -0.0021656518802 -0.85327088832855
vn 0.7672398686409 0.39577946066856 -0.50467973947525
vn 0.28328222036362 0.82663327455521 -0.48623922467232
vn 0.45022532343864 0.42758509516716 -0.78388017416
vn 0.49169945716858 0.85418182611465 -0.16913019120693
vn -0.14282338321209 -0.96891087293625 -0.20202271640301
vn -0.15472039580345 -0.96460956335068 -0.21351818740368
vn -0.13088463246822 -0.97292912006378 -0.19046820700169
vn -0.14282341301441 -0.96891087293625 0.20202273130417
vn -0.15472041070461 -0.96460956335068 0.213518217206
vn -0.13088464736938 -0.97292912006378 0.19046820700169
vn 0.52312558889389 -0.00194964825641 0.85225337743759
vn 0.52146339416504 -0.00216565211304 0.85327088832855
vn 0.00925871916115 -0.99995714426041 0
vn 0.28489804267883 0.82264488935471 0.49202483892441
vn 0.45164772868156 0.85376065969467 0.25905022025108
vn -0.85741472244263 0.14811326563358 -0.49285131692886
vn -0.96188133955002 0.13715355098248 -0.23658645153046
vn 0.49429684877396 -0.09038902819157 -0.86458110809326
vn -0.99275517463684 0.1201548576355 0
vn 1 0 0
vn 0.99575394392014 -0.09205094724894 -0.00080749142217
vn 0.99571317434311 -0.09249407798052 0.0003181049251
vn 0.08355138450861 -0.99650347232819 0
vn 0.05900900438428 -0.00291628949344 -0.99825316667557
vn 0.05765252932906 -0.0058325487189 -0.99831968545914
vn 0.06036487594247 0 -0.9981763958931
vn 0.09034177660942 0.99591082334518 0
vn 0.09034176915884 0.99591082334518 0
vn 0.09034177660942 0.99591082334518 0
vn 0.05900900438428 -0.00291629019193 0.99825316667557
vn 0.05765252560377 -0.00583255011588 0.99831968545914
vn 0.06036488339305 0 0.9981763958931
vn -0.18826824426651 0.89857810735703 0.39637410640717
vn 0 1 -0.00000001373386
vn -0.43802604079247 0.89824682474136 0.03585756197572
vn 0.24999295175076 0.89864069223404 0.3604836165905
vn 0.43802604079247 0.89824682474136 -0.03585756570101
vn 0.18826824426651 0.89857810735703 -0.39637410640717
vn -0.24999295175076 0.89864069223404 -0.3604836165905
vn 0.89305204153061 0.0554308257997 -0.4465260207653
vn 0 0.1231923699379 0.99238282442093
vn -0.89305204153061 0.0554308257997 -0.4465260207653
vn -0.10595669597387 -0.94616514444351 -0.3058508336544
vn 0.26419761776924 -0.96312767267227 0.05084040760994
vn -0.26419761776924 -0.96312767267227 -0.05084040760994
vn 0.26423880457878 -0.91492909193039 -0.30509436130524
vn -0.2642388343811 -0.91492909193039 0.30509439110756
vn -0.51803821325302 -0.84952908754349 0.09968313574791
vn -0.17269812524319 -0.84950429201126 0.49851557612419
vn -0.1989983767271 0.95281505584717 0.22922295331955
vn -0.29799005389214 0.95286422967911 -0.05702390894294
vn 0.10595669597387 -0.94616514444351 0.3058508336544
vn 0.34537696838379 -0.84952467679977 0.39877635240555
vn 0.09940062463284 0.95281940698624 0.28680083155632
vn 0.51803821325302 -0.84952908754349 -0.09968312829733
vn 0.29799005389214 0.95286422967911 0.05702390149236
vn 0.17269812524319 -0.84950429201126 -0.49851557612419
vn 0.1989983767271 0.95281505584717 -0.22922295331955
vn -0.34537696838379 -0.84952467679977 -0.39877635240555
vn -0.09940062463284 0.95281940698624 -0.28680083155632
vn 0.9928332567215 -0.11950770020485 0
vn 0.9928332567215 -0.11950769275427 0
vn 0.9928332567215 -0.11950770765543 0
vn 0 -0.13756836950779 -0.99049228429794
vn 0 -0.13756838440895 -0.99049228429794
vn 0 -0.13756838440895 -0.99049228429794
vn -0.9928332567215 -0.11950770020485 0
vn -0.9928332567215 -0.11950769275427 0
vn -0.9928332567215 -0.11950770765543 0
vn 0 -0.13756836950779 0.99049228429794
vn 0 -0.13756838440895 0.99049228429794
vn 0 -0.13756838440895 0.99049228429794
vn 0 -1 0
vn 0.61088109016418 -0.55521047115326 0.56441617012024
vn -0.00000001839986 -1 0
vn 0.67816305160522 -0.35061359405518 -0.64588308334351
vn -0.61088109016418 -0.5552105307579 -0.56441611051559
vn -0.67816305160522 -0.3506136238575 0.64588302373886
vn 0.60437256097794 0.74474102258682 0.28300982713699
vn 0.77349400520325 0.38116642832756 -0.50637853145599
vn 0.23556913435459 0.86591809988022 -0.44124031066895
vn 0.5827425122261 0.32864388823509 0.74323910474777
vn -0.58274257183075 0.32864385843277 -0.74323910474777
vn -0.60437256097794 0.74474108219147 -0.28300982713699
vn -0.7734939455986 0.38116639852524 0.50637853145599
vn -0.23556911945343 0.86591809988022 0.44124031066895
vn 0.76209843158722 -0.46796602010727 0.44745260477066
vn 0.46696865558624 -0.47948694229126 -0.74298894405365
vn -0.76209843158722 -0.46796602010727 -0.44745260477066
vn -0.46696865558624 -0.47948694229126 0.74298894405365
vn 0 1 0
vn 0 1 0
vn 0.99911618232727 0.04203404858708 0
vn 0 0.003236241173 -0.99999475479126
vn 0 0.00323624140583 -0.99999475479126
vn -0.99911618232727 0.0420340038836 0
vn 0 0.003236241173 0.99999475479126
vn 0 0.00323624140583 0.99999475479126
vn 0.9590060710907 0.11376511305571 -0.25954741239548
vn 0.98996502161026 0.08346616476774 0.11402925103903
vn 0.87923109531403 0.11872708797455 -0.46136382222176
vn 0.98943471908569 0.08899395167828 0.11445114016533
vn 0.47021192312241 0.1208987981081 -0.87423354387283
vn 0.47239974141121 0.12318901717663 -0.87273305654526
vn -0.99999922513962 0.00116542854812 0.00039567009662
vn -0.9405699968338 -0.01744022779167 0.3391517996788
vn -0.99996203184128 0.00266129896045 0.00830084178597
vn -0.99998617172241 -0.00498439511284 -0.00169223279227
vn 0.00875886809081 0.03486126661301 0.99935376644135
vn 0.00854137260467 0.03521751984954 0.99934315681458
vn 0.00897636078298 0.03450500592589 0.99936419725418
vn -0.00192432827316 -0.99998688697815 -0.00474351551384
vn -0.00381959555671 -0.99997419118881 -0.00608808826655
vn -0.0000290507578 -0.99999421834946 -0.00339891714975
vn -0.09853444248438 0.96826899051666 0.22966529428959
vn -0.58412533998489 0.65994894504547 0.47250917553902
vn -0.43143293261528 0.36075866222382 0.8268728852272
vn -0.09479735791683 0.97260427474976 0.21226006746292
vn -0.4752117395401 -0.03910839557648 0.87900191545486
vn -0.0005748871481 0.99962842464447 0.02725122869015
vn -0.00140120717697 0.99964755773544 0.02650959789753
vn 0.00025143349194 0.9996080994606 0.02799282222986
vn 0.98927134275436 0.08095905184746 0.12160538882017
vn 0.98764556646347 0.0919502004981 0.12689110636711
vn -0.99993526935577 -0.00310450000688 0.01094826497138
vn 0.00000001839986 -1 0
vn -0.67816305160522 -0.35061359405518 0.64588308334351
vn -0.61088109016418 -0.55521047115326 -0.56441617012024
vn 0.67816299200058 -0.35061365365982 -0.64588308334351
vn 0.61088109016418 -0.55521047115326 0.56441611051559
vn -0.60437256097794 0.74474102258682 -0.28300982713699
vn -0.77349400520325 0.38116642832756 0.50637853145599
vn -0.23556913435459 0.86591809988022 0.44124031066895
vn -0.5827425122261 0.32864388823509 -0.74323910474777
vn 0.23556910455227 0.86591809988022 -0.44124028086662
vn 0.7734939455986 0.38116639852524 -0.50637853145599
vn 0.60437256097794 0.74474108219147 0.28300982713699
vn 0.5827425122261 0.32864388823509 0.74323910474777
vn 0.46696865558624 -0.47948691248894 -0.74298894405365
vn -0.99911618232727 0.04203404858708 0
vn 0.99911618232727 0.0420340038836 0
vn -0.98996502161026 0.08346612751484 0.11402924358845
vn -0.87829768657684 0.12454257160425 -0.46160840988159
vn -0.96039056777954 0.10628864914179 -0.2575900554657
vn -0.98943471908569 0.08899395167828 0.11445114016533
vn -0.47022125124931 0.12117417901754 -0.87419039011002
vn -0.46780762076378 0.123530857265 -0.87515491247177
vn 0.94056993722916 -0.01744021475315 0.33915185928345
vn 0.99999922513962 0.00116542808246 0.00039567003842
vn 0.99996203184128 0.00266129919328 0.00830084178597
vn 0.99998617172241 -0.0049843955785 -0.00169223290868
vn -0.00875886809081 0.03486126661301 0.99935376644135
vn -0.00897636078298 0.03450500592589 0.99936419725418
vn -0.00854137260467 0.03521751984954 0.99934315681458
vn 0.00192432792392 -0.99998688697815 -0.00474351504818
vn 0.00381959509104 -0.99997419118881 -0.00608808733523
vn 0.00002905049951 -0.99999421834946 -0.00339891714975
vn 0.58412539958954 0.65994894504547 0.47250914573669
vn 0.09853444248438 0.96826899051666 0.22966527938843
vn 0.43143299221992 0.36075866222382 0.8268728852272
vn 0.09479735791683 0.9726043343544 0.21226005256176
vn 0.47521176934242 -0.03910841047764 0.87900191545486
vn 0.0005748894182 0.99962842464447 0.0272512268275
vn 0.00140121008735 0.99964755773544 0.02650959976017
vn -0.00025143197854 0.9996080994606 0.02799281850457
vn -0.98927134275436 0.08095897734165 0.12160537391901
vn -0.98764562606812 0.09195004403591 0.12689106166363
vn 0.99993526935577 -0.00310449837707 0.0109482659027
# 261 normals

vt 0.9450980424881 0.97647058963776 0
vt 0.95686274766922 0.97647058963776 0
vt 0.95294117927551 0.97647058963776 0
vt 0.41176471114159 0.86274510622025 0
vt 0.3137255012989 1 0
vt 0.30588236451149 0.86274510622025 0
vt 0.40392157435417 1 0
vt 0.29019609093666 0.86274510622025 0
vt 0.17254902422428 1 0
vt 0.16078431904316 0.86274510622025 0
vt 0.27843138575554 1 0
vt 0.39215686917305 0.84313726425171 0
vt 0.32549020648003 0.84313726425171 0
vt 0.26274511218071 0.84313726425171 0
vt 0.18823529779911 0.84313726425171 0
vt 0.29803922772408 0.84313726425171 0
vt 0.35294118523598 0.86274510622025 0
vt 0.34117648005486 0.83529412746429 0
vt 0.28235295414925 0.79607844352722 0
vt 0.35686275362968 0.79607844352722 0
vt 0.30196079611778 0.83529412746429 0
vt 0.35294118523598 0.76862746477127 0
vt 0.30196079611778 0.839215695858 0
vt 0.34117648005486 0.839215695858 0
vt 0.34901961684227 0.76862746477127 0
vt 0.30196079611778 0.75294119119644 0
vt 0.34117648005486 0.75294119119644 0
vt 0.34117648005486 0.75686275959015 0
vt 0.30196079611778 0.75686275959015 0
vt 0.05098039284348 0.99215686321259 0
vt 0.04705882444978 0.98823529481888 0
vt 0.79607844352722 0.77647060155869 0
vt 0.8901960849762 0.94117647409439 0
vt 0.79607844352722 0.94117647409439 0
vt 0.8901960849762 0.77647060155869 0
vt 0.38431373238564 0.83137255907059 0
vt 0.40392157435417 0.81568628549576 0
vt 0.03921568766236 0.99215686321259 0
vt 0.04313725605607 0.98823529481888 0
vt 0.42352941632271 0.58823531866074 0
vt 0.35294118523598 0.54901963472366 0
vt 0.44313725829124 0.54901963472366 0
vt 0.37254902720451 0.58823531866074 0
vt 0.43529412150383 0.60000002384186 0
vt 0.40000000596046 0.839215695858 0
vt 0.40392157435417 0.59607845544815 0
vt 0.42745098471642 0.839215695858 0
vt 0.37647059559822 0.83529412746429 0
vt 0.37254902720451 0.59607845544815 0
vt 0.37254902720451 0.50588238239288 0
vt 0.42352941632271 0.50588238239288 0
vt 0.3647058904171 0.80000001192093 0
vt 0.27843138575554 0.80000001192093 0
vt 0.05098039284348 0.99607843160629 0
vt 0.04313725605607 0.99607843160629 0
vt 0.3647058904171 0.79607844352722 0
vt 0.27843138575554 0.79607844352722 0
vt 0.28627452254295 0.83137255907059 0
vt 0.33725491166115 0.81568628549576 0
vt 0.35686275362968 0.83137255907059 0
vt 0.30588236451149 0.81568628549576 0
vt 0.8901960849762 0.9450980424881 0
vt 0.79215687513351 0.77254903316498 0
vt 0.8901960849762 0.77254903316498 0
vt 0.79215687513351 0.9450980424881 0
vt 0.33725491166115 0.7843137383461 0
vt 0.35686275362968 0.76862746477127 0
vt 0.30588236451149 0.7843137383461 0
vt 0.28627452254295 0.76862746477127 0
vt 0.49019607901573 0.77647060155869 0
vt 0.58039218187332 0.85882353782654 0
vt 0.49803921580315 0.87843137979507 0
vt 0.7294117808342 0.77647060155869 0
vt 0.72156864404678 0.87843137979507 0
vt 0.64705884456635 0.85882353782654 0
vt 0.37647059559822 0.74509805440903 0
vt 0.38039216399193 0.75294119119644 0
vt 0.21176470816135 0.51764708757401 0
vt 0.31764706969261 0.74117648601532 0
vt 0.32156863808632 0.51764708757401 0
vt 0.21568627655506 0.74901962280273 0
vt 0.37647059559822 0.74901962280273 0
vt 0.37647059559822 0.75294119119644 0
vt 0.76862746477127 1 0
vt 0.7843137383461 0.88235294818878 0
vt 0.71764707565308 0.99215686321259 0
vt 0.34117648005486 0.678431391716 0
vt 0.34117648005486 0.54509806632996 0
vt 0.34509804844856 0.54509806632996 0
vt 0.33725491166115 0.67058825492859 0
vt 0.12156862765551 0.63529413938522 0
vt 0.1176470592618 0.63529413938522 0
vt 0.11372549086809 0.63529413938522 0
vt 0.14117647707462 0.77254903316498 0
vt 0.33725491166115 0.54509806632996 0
vt 0.34509804844856 0.67058825492859 0
vt 0.65098041296005 0.50196081399918 0
vt 0.45882353186607 0.50196081399918 0
vt 0.4745098054409 0.50196081399918 0
vt 0.66666668653488 0.50196081399918 0
vt 0.3137255012989 0.74509805440903 0
vt 0.20392157137394 0.52156865596771 0
vt 0.21176470816135 0.74901962280273 0
vt 0.50980395078659 0.99215686321259 0
vt 0.43921568989754 0.88235294818878 0
vt 0.45490196347237 1 0
vt 0.46666666865349 0.62745100259781 0
vt 0.65882354974747 0.62745100259781 0
vt 0.97647058963776 0.7294117808342 0
vt 0.90980392694473 0.7294117808342 0
vt 0.58039218187332 0.91372549533844 0
vt 0.64705884456635 0.91372549533844 0
vt 0.89803922176361 0.60392159223557 0
vt 0.98823529481888 0.61176472902298 0
vt 0.47843137383461 0.76862746477127 0
vt 0.65098041296005 0.76862746477127 0
vt 0.09411764889956 0.94117647409439 0
vt 0.07450980693102 1 0
vt 0.05098039284348 0.94117647409439 0
vt 0.1843137294054 0.50980395078659 0
vt 0.1843137294054 0.51764708757401 0
vt 0.0627451017499 0.51764708757401 0
vt 0.1843137294054 0.52549022436142 0
vt 0.65490198135376 0.96862745285034 0
vt 0.52549022436142 0.88235294818878 0
vt 0.70196080207825 0.88235294818878 0
vt 0.5686274766922 0.96862745285034 0
vt 0.1176470592618 0.76078432798386 0
vt 0.11372549086809 0.76862746477127 0
vt 0.11372549086809 0.76078432798386 0
vt 0.1176470592618 0.76862746477127 0
vt 0.14901961386204 0.77647060155869 0
vt 0 0.77647060155869 0
vt 0.5686274766922 0.79607844352722 0
vt 0.65490198135376 0.79607844352722 0
vt 0.91764706373215 0.78823530673981 0
vt 0.99607843160629 0.99215686321259 0
vt 0.90196079015732 0.99215686321259 0
vt 0.98039215803146 0.78823530673981 0
vt 0.91372549533844 0.78823530673981 0
vt 0.89803922176361 0.99215686321259 0
vt 0.97647058963776 0.78823530673981 0
vt 0.04705882444978 0.97254902124405 0
vt 0.04313725605607 0.97254902124405 0
vt 0.27450981736183 0.80392158031464 0
vt 0.31764706969261 0.74901962280273 0
vt 0.3647058904171 0.80392158031464 0
vt 0.32156863808632 0.74901962280273 0
vt 0.79607844352722 0.94901961088181 0
vt 0.8941176533699 0.77647060155869 0
vt 0.88627451658249 0.94901961088181 0
vt 0.78823530673981 0.77647060155869 0
vt 0.29803922772408 0.83137255907059 0
vt 0.35686275362968 0.79215687513351 0
vt 0.34117648005486 0.83137255907059 0
vt 0.28627452254295 0.79215687513351 0
vt 0.78823530673981 0.77254903316498 0
vt 0.27843138575554 0.80392158031464 0
vt 0.32156863808632 0.76470589637756 0
vt 0.27843138575554 0.83529412746429 0
vt 0.27843138575554 0.83137255907059 0
vt 0.28627452254295 0.75294119119644 0
vt 0.35686275362968 0.839215695858 0
vt 0.28627452254295 0.839215695858 0
vt 0.35686275362968 0.75294119119644 0
vt 0.80000001192093 0.77647060155869 0
vt 0.80000001192093 0.9450980424881 0
vt 0.88627451658249 0.77647060155869 0
vt 0.88627451658249 0.9450980424881 0
vt 0.79607844352722 0.9450980424881 0
vt 0.11372549086809 0.72156864404678 0
vt 0.10196078568697 0.61960786581039 0
vt 0.12156862765551 0.54117649793625 0
vt 0.10196078568697 0.70980393886566 0
vt 0.00392156885937 0.72156864404678 0
vt 0.09411764889956 0.54117649793625 0
vt 0 0.54117649793625 0
vt 0.08235294371843 0.72156864404678 0
vt 0.19215686619282 0.54117649793625 0
vt 0.1176470592618 0.61960786581039 0
vt 0.09803921729326 0.54117649793625 0
vt 0.19215686619282 0.61568629741669 0
vt 0.17647059261799 0.61568629741669 0
vt 0.14117647707462 0.54117649793625 0
vt 0.1803921610117 0.54117649793625 0
vt 0.14117647707462 0.61568629741669 0
vt 0.678431391716 0.7294117808342 0
vt 0.77647060155869 0.62745100259781 0
vt 0.77647060155869 0.76862746477127 0
vt 0.69411766529083 0.62745100259781 0
vt 0.44313725829124 0.96862745285034 0
vt 0.44313725829124 0.96078431606293 0
vt 0.44313725829124 0.95686274766922 0
vt 0.44313725829124 0.96470588445663 0
vt 0.44705882668495 0.96078431606293 0
vt 0.44705882668495 0.96470588445663 0
vt 0.14117647707462 0.61960786581039 0
vt 0.12549020349979 0.54117649793625 0
vt 0.18823529779911 0.61568629741669 0
vt 0.10588235408068 0.72156864404678 0
vt 0.12156862765551 0.71372550725937 0
vt 0.43529412150383 0.97647058963776 0
# 202 texture coordinates

o Mesh
usemtl material
f 1/1/1 2/2/2 3/1/3
f 1/1/1 4/3/5 2/2/2
f 5/4/6 6/5/7 7/6/8
f 5/4/6 8/7/9 6/5/7
f 9/4/10 8/5/9 5/6/6
f 9/4/10 10/7/11 8/5/9
f 11/4/12 10/5/11 9/6/10
f 11/4/12 12/7/13 10/5/11
f 13/4/14 12/5/13 11/6/12
f 13/4/14 14/7/15 12/5/13
f 15/8/16 14/9/15 13/10/14
f 15/8/16 16/11/17 14/9/15
f 7/4/8 16/5/17 15/6/16
f 7/4/8 6/7/7 16/5/17
f 17/3/18 3/1/3 2/2/2
f 17/3/18 18/1/19 3/1/3
f 18/12/19 11/6/12 3/13/3
f 18/12/19 13/4/14 11/6/12
f 17/14/18 13/10/14 18/15/19
f 17/14/18 15/8/16 13/10/14
f 2/16/2 15/8/16 17/14/18
f 2/16/2 7/17/8 15/8/16
f 4/12/5 7/6/8 2/13/2
f 4/12/5 5/4/6 7/6/8
f 1/15/1 5/8/6 4/14/5
f 1/15/1 9/10/10 5/8/6
f 3/12/3 9/6/10 1/13/1
f 3/12/3 11/4/12 9/6/10
f 19/18/20 20/19/21 21/20/22
f 19/18/20 22/21/23 20/19/21
f 22/22/23 23/22/24 20/22/21
f 22/22/23 24/22/25 23/22/24
f 23/20/24 25/23/26 26/19/27
f 23/20/24 24/24/25 25/23/26
f 25/25/26 22/22/23 19/25/20
f 25/25/26 24/22/25 22/22/23
f 26/25/27 19/25/20 21/25/22
f 26/25/27 25/25/26 19/25/20
f 27/26/28 21/20/22 20/19/21
f 27/26/28 28/27/29 21/20/22
f 28/25/29 26/25/27 21/25/22
f 28/25/29 29/25/30 26/25/27
f 26/19/27 30/28/31 23/20/24
f 26/19/27 29/29/30 30/28/31
f 31/30/32 32/31/33 33/30/34
f 31/30/32 34/31/33 32/31/33
f 23/22/24 27/22/28 20/22/21
f 23/22/24 30/22/31 27/22/28
f 33/32/35 28/33/29 27/34/28
f 33/32/35 35/35/35 28/33/29
f 35/32/36 29/33/30 28/34/29
f 35/32/36 36/35/37 29/33/30
f 36/32/38 30/33/31 29/34/30
f 36/32/38 31/35/38 30/33/31
f 31/32/32 27/33/28 30/34/31
f 31/32/32 33/35/34 27/33/28
f 36/36/38 34/37/39 31/36/38
f 36/36/38 37/37/39 34/37/39
f 35/38/36 37/39/40 36/38/37
f 35/38/36 38/39/40 37/39/40
f 33/30/35 38/39/41 35/38/35
f 33/30/35 32/31/41 38/39/41
f 39/40/42 40/41/42 41/42/42
f 39/40/42 42/43/42 40/41/42
f 43/44/43 44/45/44 41/46/45
f 43/44/43 45/47/46 44/45/44
f 46/48/47 44/45/48 47/45/49
f 46/48/47 48/48/47 44/45/48
f 49/44/50 45/47/46 43/44/43
f 49/44/50 50/47/51 45/47/46
f 40/46/52 50/47/51 49/44/50
f 40/46/52 47/45/53 50/47/51
f 42/49/54 47/45/53 40/46/52
f 42/49/54 46/48/55 47/45/53
f 39/49/56 46/48/55 42/49/54
f 39/49/56 48/48/57 46/48/55
f 41/46/45 48/48/57 39/49/56
f 41/46/45 44/45/44 48/48/57
f 45/47/58 47/45/49 44/45/48
f 45/47/58 50/47/59 47/45/49
f 49/50/42 41/42/42 40/41/42
f 49/50/42 43/51/60 41/42/42
f 51/23/61 52/52/62 53/53/63
f 51/23/61 54/24/64 52/52/62
f 55/54/65 53/55/63 56/55/66
f 55/54/65 51/54/61 53/55/63
f 57/56/67 55/23/65 56/57/66
f 57/56/67 58/24/68 55/23/65
f 54/54/64 55/55/65 58/54/68
f 54/54/64 51/55/61 55/55/65
f 52/54/62 58/55/68 57/54/67
f 52/54/62 54/55/64 58/55/68
f 59/28/69 53/53/63 52/52/62
f 59/28/69 60/29/70 53/53/63
f 61/54/71 52/55/62 57/55/67
f 61/54/71 59/54/69 52/55/62
f 56/57/66 61/28/71 57/56/67
f 56/57/66 62/29/72 61/28/71
f 63/58/36 64/59/40 65/60/37
f 63/58/36 66/61/40 64/59/40
f 53/54/63 62/55/72 56/54/66
f 53/54/63 60/55/70 62/55/72
f 60/62/70 67/63/35 63/64/35
f 60/62/70 59/65/69 67/63/35
f 59/62/69 68/63/32 67/64/34
f 59/62/69 61/65/71 68/63/32
f 61/62/71 65/63/38 68/64/38
f 61/62/71 62/65/72 65/63/38
f 62/62/72 63/63/36 65/64/37
f 62/62/72 60/65/70 63/63/36
f 65/60/38 69/66/39 68/67/38
f 65/60/38 64/59/39 69/66/39
f 68/67/32 70/68/33 67/69/34
f 68/67/32 69/66/33 70/68/33
f 67/69/35 66/61/41 63/58/35
f 67/69/35 70/68/41 66/61/41
f 71/70/73 72/71/74 73/72/75
f 74/73/76 75/74/77 76/75/78
f 77/76/79 78/77/80 79/76/81
f 77/76/79 80/77/82 78/77/80
f 81/78/83 82/79/84 83/80/85
f 81/78/83 84/81/86 82/79/84
f 85/82/87 81/83/83 86/83/88
f 85/82/87 84/83/86 81/83/83
f 78/84/89 75/74/77 79/85/90
f 78/84/89 87/86/91 75/74/77
f 88/87/92 74/88/76 89/89/93
f 88/87/92 75/90/77 74/88/76
f 90/91/94 84/92/95 85/93/96
f 90/91/94 82/91/97 84/92/95
f 75/94/98 77/94/98 79/94/99
f 75/94/98 88/94/100 77/94/98
f 81/94/101 73/94/101 86/94/102
f 81/94/101 83/94/103 73/94/101
f 71/88/73 83/87/104 91/95/105
f 71/88/73 73/96/75 83/87/104
f 71/97/106 89/98/106 74/99/106
f 71/97/106 91/100/106 89/98/106
f 80/92/107 87/91/91 78/93/89
f 80/92/107 92/91/108 87/91/91
f 92/101/109 77/102/79 88/80/110
f 92/101/109 80/103/82 77/102/79
f 90/104/94 86/105/111 73/72/75
f 90/104/94 85/106/96 86/105/111
f 88/107/110 91/100/112 83/108/85
f 88/107/110 89/98/112 91/100/112
f 93/109/113 94/110/113 95/109/113
f 93/109/113 96/110/113 94/110/113
f 87/91/91 82/91/97 90/91/94
f 87/91/91 92/91/108 82/91/97
f 74/73/76 72/71/74 71/70/73
f 74/73/76 76/75/78 72/71/74
f 97/111/114 87/86/91 90/104/94
f 97/111/114 98/112/115 87/86/91
f 76/113/78 96/110/116 72/113/74
f 76/113/78 94/110/116 96/110/116
f 98/114/117 94/110/117 76/113/118
f 98/114/117 95/109/119 94/110/117
f 97/114/120 95/109/120 98/114/121
f 97/114/120 93/109/122 95/109/120
f 96/110/123 97/114/123 72/113/124
f 96/110/123 93/109/125 97/114/123
f 92/115/109 83/108/85 82/116/84
f 92/115/109 88/107/110 83/108/85
f 97/111/114 73/72/75 72/71/74
f 97/111/114 90/104/94 73/72/75
f 75/74/77 98/112/115 76/75/78
f 75/74/77 87/86/91 98/112/115
f 99/117/126 100/118/127 101/119/128
f 102/117/129 100/118/127 99/119/126
f 103/117/130 100/118/127 102/119/129
f 104/117/131 100/118/127 103/119/130
f 105/117/132 100/118/127 104/119/131
f 101/117/128 100/118/127 105/119/132
f 106/120/133 107/121/133 108/122/133
f 109/123/134 106/120/134 108/122/134
f 108/122/135 107/121/135 109/123/135
f 110/124/136 111/125/137 112/126/138
f 110/124/136 113/127/139 111/125/137
f 114/128/140 115/129/141 112/130/138
f 114/128/140 116/131/142 115/129/141
f 116/132/143 101/119/128 115/133/144
f 116/132/143 99/117/126 101/119/128
f 117/128/145 116/129/142 114/130/140
f 117/128/145 118/129/146 116/129/142
f 118/132/147 99/119/126 116/133/143
f 118/132/147 102/117/129 99/119/126
f 111/128/137 118/129/146 117/130/145
f 111/128/137 119/131/148 118/129/146
f 119/132/149 102/119/129 118/133/147
f 119/132/149 103/117/130 102/119/129
f 113/128/139 119/129/148 111/130/137
f 113/128/139 120/131/150 119/129/148
f 120/132/151 103/119/130 119/133/149
f 120/132/151 104/117/131 103/119/130
f 110/128/136 120/129/150 113/130/139
f 110/128/136 121/131/152 120/129/150
f 121/132/153 104/119/131 120/133/151
f 121/132/153 105/117/132 104/119/131
f 112/128/138 121/129/152 110/130/136
f 112/128/138 115/131/141 121/129/152
f 115/132/144 105/119/132 121/133/153
f 115/132/144 101/117/128 105/119/132
f 117/134/145 112/126/138 111/125/137
f 117/134/145 114/135/140 112/126/138
f 122/136/154 123/137/154 124/138/155
f 122/136/154 125/139/156 123/137/154
f 125/136/157 126/137/157 123/138/158
f 125/136/157 127/139/159 126/137/157
f 127/140/160 128/137/160 126/141/161
f 127/140/160 129/142/162 128/137/160
f 129/136/163 124/137/163 128/138/164
f 129/136/163 122/139/165 124/137/163
f 127/143/166 122/144/166 129/143/166
f 127/143/166 125/144/166 122/144/166
f 130/145/167 131/146/168 132/147/169
f 133/145/170 131/148/168 134/147/171
f 133/55/170 132/54/169 131/55/168
f 130/55/167 134/54/171 131/55/168
f 135/55/172 136/38/173 137/55/174
f 135/55/172 138/38/175 136/38/173
f 138/149/175 132/150/169 136/151/173
f 138/149/175 130/152/167 132/150/169
f 137/153/174 139/154/176 140/155/177
f 137/153/174 136/156/173 139/154/176
f 139/151/176 132/157/169 133/64/170
f 139/151/176 136/149/173 132/157/169
f 140/55/177 141/38/178 142/55/179
f 140/55/177 139/38/176 141/38/178
f 139/149/176 134/150/171 141/151/178
f 139/149/176 133/152/170 134/150/171
f 142/153/179 138/154/175 135/155/172
f 142/153/179 141/156/178 138/154/175
f 138/151/175 134/157/171 130/64/167
f 138/151/175 141/149/178 134/157/171
f 137/55/174 142/54/179 135/55/172
f 137/55/174 140/54/177 142/54/179
f 143/158/180 144/159/166 145/147/181
f 146/158/182 144/159/166 147/147/183
f 146/160/182 145/161/181 144/160/166
f 143/160/180 147/161/183 144/160/166
f 148/162/184 149/163/184 150/164/185
f 148/162/184 151/165/184 149/163/184
f 143/166/180 148/62/186 150/167/186
f 143/166/180 145/168/181 148/62/186
f 151/169/187 145/152/181 146/150/182
f 151/169/187 148/170/188 145/152/181
f 146/166/182 149/62/189 151/167/189
f 146/166/182 147/168/183 149/62/189
f 150/169/190 147/152/183 143/150/180
f 150/169/190 149/170/191 147/152/183
f 152/171/192 153/172/193 154/173/194
f 152/171/192 155/174/195 153/172/193
f 156/175/196 154/176/194 157/177/197
f 156/175/196 152/178/192 154/176/194
f 158/179/198 159/180/199 157/181/200
f 158/179/198 160/182/201 159/180/199
f 161/183/202 158/184/202 162/185/203
f 161/183/202 160/186/204 158/184/202
f 154/187/205 158/188/205 157/189/206
f 154/187/205 162/190/207 158/188/205
f 152/191/208 163/192/209 155/191/210
f 152/191/208 156/192/211 163/192/209
f 159/193/199 155/191/210 163/192/209
f 159/193/199 153/194/212 155/191/210
f 160/195/213 153/194/213 159/193/214
f 160/195/213 161/196/215 153/194/213
f 153/197/193 162/179/216 154/198/194
f 153/197/193 161/199/217 162/179/216
f 159/180/199 156/200/218 157/181/200
f 159/180/199 163/201/209 156/200/218
f 164/146/219 165/145/220 166/147/221
f 164/148/219 167/145/222 168/147/223
f 166/54/221 167/55/222 164/55/219
f 168/54/223 165/55/220 164/55/219
f 169/55/224 170/38/225 171/55/226
f 169/55/224 172/38/227 170/38/225
f 172/151/227 165/152/220 170/149/225
f 172/151/227 166/150/221 165/152/220
f 173/155/228 172/156/227 169/153/224
f 173/155/228 174/154/229 172/156/227
f 172/149/227 167/64/222 166/157/221
f 172/149/227 174/151/229 167/64/222
f 175/55/230 174/38/229 173/55/228
f 175/55/230 176/38/231 174/38/229
f 176/151/231 167/152/222 174/149/229
f 176/151/231 168/150/223 167/152/222
f 171/155/226 176/156/231 175/153/230
f 171/155/226 170/154/225 176/156/231
f 176/149/231 165/64/220 168/157/223
f 176/149/231 170/151/225 165/64/220
f 173/54/228 171/55/226 175/54/230
f 173/54/228 169/55/224 171/55/226
f 177/159/166 178/158/183 179/147/182
f 177/159/166 180/158/232 181/147/180
f 179/161/182 180/160/232 177/160/166
f 181/161/180 178/160/183 177/160/166
f 182/165/184 183/164/184 184/163/185
f 182/165/184 185/162/184 183/164/184
f 179/168/182 183/167/233 185/62/233
f 179/168/182 178/166/183 183/167/233
f 185/170/187 180/150/232 179/152/182
f 185/170/187 182/169/188 180/150/232
f 181/168/180 182/167/234 184/62/234
f 181/168/180 180/166/232 182/167/234
f 184/170/190 178/150/183 181/152/180
f 184/170/190 183/169/191 178/150/183
f 186/172/235 187/171/236 188/173/237
f 186/172/235 189/174/238 187/171/236
f 187/178/236 190/177/239 188/176/237
f 187/178/236 191/175/240 190/177/239
f 192/180/241 193/179/242 190/181/243
f 192/180/241 194/182/244 193/179/242
f 195/183/245 193/184/245 194/186/246
f 195/183/245 196/185/247 193/184/245
f 193/188/248 188/187/248 190/189/249
f 193/188/248 196/190/250 188/187/248
f 197/202/251 187/202/252 189/202/253
f 197/202/251 191/202/254 187/202/252
f 189/202/253 192/202/241 197/202/251
f 189/202/253 186/202/255 192/202/241
f 186/202/256 194/202/256 192/202/257
f 186/202/256 195/202/258 194/202/256
f 196/179/259 186/197/235 188/198/237
f 196/179/259 195/199/260 186/197/235
f 191/200/261 192/180/241 190/181/243
f 191/200/261 197/201/251 192/180/241

