# WaveFront *.obj file (generated by CINEMA 4D)

mtllib ./Horokko.mtl

v -3.09999990463257 25.25 0
v -18.45000076293945 16 -7.65000009536743
v -18.45000076293945 16 7.65000009536743
v 0 37.5 0
v 3.09999990463257 25.25 0
v 0 25.25 -3.09999990463257
v -22.54999923706055 -14.75 9.35000038146973
v -22.54999923706055 -14.75 -9.35000038146973
v -12.30000019073486 -25 0
v 22.54999923706055 -14.75 9.35000038146973
v 12.30000019073486 -25 0
v 22.54999923706055 -14.75 -9.35000038146973
v 9.35000038146973 -14.75 22.54999923706055
v -9.35000038146973 -14.75 22.54999923706055
v 0 -25 12.30000019073486
v 9.35000038146973 -14.75 -22.54999923706055
v 0 -25 -12.30000019073486
v -9.35000038146973 -14.75 -22.54999923706055
v 7.65000009536743 16 -18.45000076293945
v -7.65000009536743 16 -18.45000076293945
v 18.45000076293945 16 7.65000009536743
v 18.45000076293945 16 -7.65000009536743
v 0 25.25 3.04999995231628
v 7.65000009536743 16 18.45000076293945
v -7.65000009536743 16 18.45000076293945
v -6.34999990463257 2.70000004768372 15.39999961853027
v 6.34999990463257 2.70000004768372 15.39999961853027
v 15.39999961853027 2.65000009536743 -6.34999990463257
v 15.35000038146973 2.70000004768372 6.34999990463257
v -6.34999990463257 2.65000009536743 -15.39999961853027
v 6.34999990463257 2.65000009536743 -15.39999961853027
v -15.39999961853027 2.70000004768372 6.34999990463257
v -15.35000038146973 2.65000009536743 -6.34999990463257
v 21.60000038146973 -29.10000038146973 -13.44999980926514
v 15.14999961853027 -31.14999961853027 -15.14999961853027
v 19.85000038146973 -29.10000038146973 -19.85000038146973
v 20.25 -18.85000038146973 -13.80000019073486
v 13.30000019073486 -14.75 -13.30000019073486
v 16.5 -18.85000038146973 -10.10000038146973
v 10.10000038146973 -18.85000038146973 -16.5
v 13.80000019073486 -18.85000038146973 -20.25
v 11.44999980926514 -18.85000038146973 -11.44999980926514
v 18.85000038146973 -18.85000038146973 -18.85000038146973
v 8.75 -29.10000038146973 -16.89999961853027
v 10.44999980926514 -29.10000038146973 -10.44999980926514
v 16.89999961853027 -29.10000038146973 -8.75
v 13.44999980926514 -29.10000038146973 -21.60000038146973
v -15.14999961853027 -31.14999961853027 -15.14999961853027
v -21.60000038146973 -29.10000038146973 -13.44999980926514
v -19.85000038146973 -29.10000038146973 -19.85000038146973
v -13.30000019073486 -14.75 -13.30000019073486
v -20.25 -18.85000038146973 -13.80000019073486
v -16.5 -18.85000038146973 -10.10000038146973
v -10.10000038146973 -18.85000038146973 -16.5
v -13.80000019073486 -18.85000038146973 -20.25
v -11.44999980926514 -18.85000038146973 -11.44999980926514
v -18.85000038146973 -18.85000038146973 -18.85000038146973
v -8.75 -29.10000038146973 -16.89999961853027
v -10.44999980926514 -29.10000038146973 -10.44999980926514
v -16.89999961853027 -29.10000038146973 -8.75
v -13.44999980926514 -29.10000038146973 -21.60000038146973
v 15.14999961853027 -31.14999961853027 15.14999961853027
v 21.60000038146973 -29.10000038146973 13.44999980926514
v 19.85000038146973 -29.10000038146973 19.85000038146973
v 13.30000019073486 -14.75 13.30000019073486
v 20.25 -18.85000038146973 13.80000019073486
v 16.5 -18.85000038146973 10.10000038146973
v 10.10000038146973 -18.85000038146973 16.5
v 13.80000019073486 -18.85000038146973 20.25
v 11.44999980926514 -18.85000038146973 11.44999980926514
v 18.85000038146973 -18.85000038146973 18.85000038146973
v 8.75 -29.10000038146973 16.89999961853027
v 10.44999980926514 -29.10000038146973 10.44999980926514
v 16.89999961853027 -29.10000038146973 8.75
v 13.44999980926514 -29.10000038146973 21.60000038146973
v -21.60000038146973 -29.10000038146973 13.44999980926514
v -15.14999961853027 -31.14999961853027 15.14999961853027
v -19.85000038146973 -29.10000038146973 19.85000038146973
v -20.25 -18.85000038146973 13.80000019073486
v -13.30000019073486 -14.75 13.30000019073486
v -16.5 -18.85000038146973 10.10000038146973
v -10.10000038146973 -18.85000038146973 16.5
v -13.80000019073486 -18.85000038146973 20.25
v -11.44999980926514 -18.85000038146973 11.44999980926514
v -18.85000038146973 -18.85000038146973 18.85000038146973
v -8.75 -29.10000038146973 16.89999961853027
v -10.44999980926514 -29.10000038146973 10.44999980926514
v -16.89999961853027 -29.10000038146973 8.75
v -13.44999980926514 -29.10000038146973 21.60000038146973
# 89 vertices

vn -0.57547152042389 0.81782084703445 0.00128254969604
vn -0.92136615514755 0.27584844827652 -0.27384665608406
vn -0.84670490026474 0.27666315436363 0.45447590947151
vn 0 0 0
vn 0.69605082273483 0.1761434674263 -0.69605082273483
vn 0.6617603302002 0.74971163272858 0.00238717789762
vn 0.07221890240908 0.78843158483505 -0.6108683347702
vn -0.69605082273483 0.1761434674263 -0.69605082273483
vn -0.92778700590134 0.00224917661399 0.37310349941254
vn -0.82352918386459 -0.40839618444443 -0.39371600747108
vn -0.35786533355713 -0.93063932657242 0.07643855363131
vn 0.83975505828857 -0.26003122329712 0.47664994001389
vn 0.35786533355713 -0.93063932657242 -0.07643854618073
vn 0.92758125066757 0.00274878228083 -0.37361136078835
vn 0.28229257464409 -0.0978534668684 0.95432466268539
vn -0.39346179366112 -0.40944114327431 0.82313168048859
vn 0.09171099215746 -0.89846152067184 0.42936691641808
vn 0.39353623986244 -0.40910169482231 -0.82326489686966
vn -0.09171099215746 -0.89846152067184 -0.42936691641808
vn -0.37441235780716 0.00279576331377 -0.9272580742836
vn 0.27299350500107 0.27749684453011 -0.9211243391037
vn -0.45659989118576 0.42193657159805 -0.78325349092484
vn 0.86095505952835 0.32070377469063 0.39484867453575
vn 0.78340721130371 0.42223554849625 -0.45605945587158
vn 0.07238849252462 0.78684097528458 0.61289578676224
vn -0.6905432343483 0.17474971711636 0.70186358690262
vn 0.34408521652222 0.42370304465294 0.83790278434753
vn -0.30588009953499 0.42532357573509 0.85178470611572
vn 0.6905432343483 0.17474971711636 0.70186358690262
vn -0.43397930264473 0.13652177155018 0.89051878452301
vn 0.43525171279907 0.03909639269114 0.89945954084396
vn 0.9531187415123 0.01952928490937 -0.3019657433033
vn 0.94016563892364 0.15517574548721 0.30333000421524
vn -0.30433306097984 0.02063146233559 -0.95234221220016
vn 0.43393740057945 0.13751372694969 -0.89038664102554
vn -0.95321518182755 0.01886435970664 0.30170348286629
vn -0.89030420780182 0.13678629696369 -0.434336155653
vn 0.82398289442062 -0.43254369497299 0.36600297689438
vn 0.00004339104999 -1 -0.00004339368752
vn 0.72814095020294 -0.43032744526863 -0.53350633382797
vn 0.87100267410278 0.47468742728233 0.1265947073698
vn -0.10558228939772 0.98878955841064 0.10558225959539
vn 0.32687899470329 0.37119534611702 0.86911690235138
vn -0.92368465662003 0.36951869726181 -0.10130458325148
vn -0.35927993059158 0.47261053323746 -0.80470943450928
vn -0.58676731586456 0.30497875809669 0.75012803077698
vn 0.5183864235878 0.50679224729538 -0.68879395723343
vn -0.82518047094345 -0.43085116147995 -0.36530056595802
vn -0.72921544313431 -0.43185797333717 0.53079521656036
vn 0.09686160087585 -0.4309603869915 0.89715719223022
vn -0.09142952412367 -0.43256762623787 -0.89695370197296
vn -0.00004340686792 -1 -0.00004340423038
vn -0.82398289442062 -0.43254366517067 0.36600297689438
vn -0.72814095020294 -0.43032744526863 -0.53350639343262
vn 0.1055822968483 0.98878955841064 0.10558225214481
vn -0.87100267410278 0.47468742728233 0.1265947073698
vn -0.32687893509865 0.37119534611702 0.86911690235138
vn 0.92368465662003 0.36951869726181 -0.10130459815264
vn 0.35927993059158 0.47261050343513 -0.80470943450928
vn 0.58676731586456 0.30497878789902 0.75012803077698
vn -0.51838648319244 0.50679224729538 -0.68879395723343
vn 0.82518041133881 -0.43085119128227 -0.36530065536499
vn 0.72921544313431 -0.4318580031395 0.53079521656036
vn -0.09686160087585 -0.43096032738686 0.89715719223022
vn 0.09142954647541 -0.43256759643555 -0.89695370197296
vn 0.00004340686792 -1 0.00004340423038
vn 0.82398289442062 -0.43254366517067 -0.36600297689438
vn 0.72814095020294 -0.43032744526863 0.53350639343262
vn -0.1055822968483 0.98878955841064 -0.10558225214481
vn 0.87100267410278 0.47468742728233 -0.1265947073698
vn 0.32687893509865 0.37119534611702 -0.86911690235138
vn -0.92368465662003 0.36951869726181 0.10130459815264
vn -0.35927993059158 0.47261050343513 0.80470943450928
vn -0.58676731586456 0.30497878789902 -0.75012803077698
vn 0.51838648319244 0.50679224729538 0.68879395723343
vn -0.82518041133881 -0.43085119128227 0.36530065536499
vn -0.72921544313431 -0.4318580031395 -0.53079521656036
vn 0.09686160087585 -0.43096032738686 -0.89715719223022
vn -0.09142954647541 -0.43256759643555 0.89695370197296
vn -0.82398289442062 -0.43254369497299 -0.36600297689438
vn -0.00004339104999 -1 0.00004339368752
vn -0.72814095020294 -0.43032744526863 0.53350633382797
vn -0.87100267410278 0.47468742728233 -0.1265947073698
vn 0.10558228939772 0.98878955841064 -0.10558225959539
vn -0.32687899470329 0.37119534611702 -0.86911690235138
vn 0.92368465662003 0.36951869726181 0.10130459815264
vn 0.35927993059158 0.47261050343513 0.80470943450928
vn 0.58676731586456 0.30497875809669 -0.75012803077698
vn -0.5183864235878 0.50679224729538 0.68879395723343
vn 0.82518041133881 -0.43085113167763 0.36530062556267
vn 0.72921544313431 -0.43185797333717 -0.53079521656036
vn -0.09686160087585 -0.4309603869915 -0.89715719223022
vn 0.09142952412367 -0.43256762623787 0.89695370197296
# 93 normals

vt 0.58431375026703 0.51968502998352 0
vt 0.54509806632996 0.29133856296539 0
vt 0.6235294342041 0.29133856296539 0
vt 0.83529412746429 0.96850395202637 0
vt 0.79607844352722 1 0
vt 0.79607844352722 0.96850395202637 0
vt 0.79607844352722 0.92913389205933 0
vt 0.16862745583057 0.110236287117 0
vt 0.00392156885937 0.110236287117 0
vt 0.08627451211214 -0.00787401199341 0
vt 0 0.11811029911041 0
vt 0.16862745583057 0.11811029911041 0
vt 0.39607843756676 0.51968502998352 0
vt 0.35686275362968 0.29133856296539 0
vt 0.43529412150383 0.29133856296539 0
vt 0.94901961088181 0.51968502998352 0
vt 0.90980392694473 0.29133856296539 0
vt 0.98823529481888 0.29133856296539 0
vt 0.80000001192093 0.29133856296539 0
vt 0.76078432798386 0.51968502998352 0
vt 0.72156864404678 0.29133856296539 0
vt 0.50588238239288 0.52755904197693 0
vt 0.45882353186607 0.29133856296539 0
vt 0.53725492954254 0.29133856296539 0
vt 0.48627451062202 0.52755904197693 0
vt 0.0274509806186 0.56692916154861 0
vt 0.17254902422428 0.13385832309723 0
vt 0.14509804546833 0.56692916154861 0
vt 0 0.13385832309723 0
vt 0.28627452254295 0.2047244310379 0
vt 0.20784313976765 0.01574802398682 0
vt 0.28235295414925 0.01574802398682 0
vt 0.20392157137394 0.2047244310379 0
vt 0.21176470816135 0.01574802398682 0
vt 0.29019609093666 0.21259844303131 0
vt 0.20784313976765 0.21259844303131 0
vt 0.29019609093666 0.01574802398682 0
vt 0.20392157137394 0.21259844303131 0
vt 0.28627452254295 0.01574802398682 0
vt 0.32156863808632 0.58267718553543 0
vt 0.42745098471642 0.83464568853378 0
vt 0.41568627953529 0.58267718553543 0
vt 0.3098039329052 0.83464568853378 0
vt 0.21176470816135 0.58267718553543 0
vt 0.10588235408068 0.83464568853378 0
vt 0.11372549086809 0.58267718553543 0
vt 0.21960784494877 0.83464568853378 0
vt 0.61960786581039 0.58267718553543 0
vt 0.5137255191803 0.83464568853378 0
vt 0.52156865596771 0.58267718553543 0
vt 0.62745100259781 0.83464568853378 0
vt 0.16862745583057 0.13385832309723 0
vt 0.14117647707462 0.56692916154861 0
vt 0.20000000298023 0.39370083808899 0
vt 0.32549020648003 0.39370083808899 0
vt 0.26274511218071 0.55905514955521 0
vt 0.26274511218071 0.23622047901154 0
vt 0.43137255311012 0.83464568853378 0
vt 0.45098039507866 0.58267718553543 0
vt 0.50980395078659 0.83464568853378 0
vt 0.10588235408068 0.58267718553543 0
vt 0 0.83464568853378 0
vt 0.00784313771874 0.58267718553543 0
vt 0.11372549086809 0.83464568853378 0
vt 0.32549020648003 0.58267718553543 0
vt 0.22745098173618 0.58267718553543 0
vt 0.33333334326744 0.83464568853378 0
vt 0.45490196347237 0.58267718553543 0
vt 0.97254902124405 0.26771652698517 0
vt 0.92156863212585 0.02362203598022 0
vt 1 0.02362203598022 0
vt 0.94901961088181 0.26771652698517 0
vt 0.8901960849762 0.28346455097198 0
vt 0.839215695858 0.51968502998352 0
vt 0.81176471710205 0.28346455097198 0
vt 0.85882353782654 0.51968502998352 0
vt 0.66666668653488 0.53543311357498 0
vt 0.71764707565308 0.29133856296539 0
vt 0.69019609689713 0.53543311357498 0
vt 0.63921570777893 0.29133856296539 0
vt 0.34901961684227 0.5511811375618 0
vt 0.90196079015732 0.88976377248764 0
vt 0.96078431606293 1 0
vt 0.96862745285034 0.88976377248764 0
vt 0.96470588445663 0.88976377248764 0
vt 0.89803922176361 0.88976377248764 0
vt 1 0.88976377248764 0
vt 0.86666667461395 0.88976377248764 0
vt 0.7843137383461 0.58267718553543 0
vt 0.70980393886566 0.87401574850082 0
vt 0.70980393886566 0.58267718553543 0
vt 0.7843137383461 0.88188976049423 0
vt 0.81960785388947 0.58267718553543 0
vt 0.74117648601532 0.88188976049423 0
vt 0.74117648601532 0.58267718553543 0
vt 0.81960785388947 0.87401574850082 0
vt 0.96078431606293 0.58267718553543 0
vt 0.88627451658249 0.87401574850082 0
vt 0.88627451658249 0.58267718553543 0
vt 0.96078431606293 0.87401574850082 0
vt 0.81176471710205 0.58267718553543 0
vt 0.8901960849762 0.87401574850082 0
vt 0.8901960849762 0.58267718553543 0
vt 0.81176471710205 0.87401574850082 0
vt 0.34901961684227 0.54330712556839 0
vt 0.35294118523598 0.55905514955521 0
# 106 texture coordinates

o Mesh
usemtl material
f 1/1/1 2/2/2 3/3/3
f 4/4/5 5/5/6 6/6/7
f 1/7/1 4/4/8 6/6/7
f 7/8/9 8/9/10 9/10/11
f 10/9/12 11/10/13 12/8/14
f 13/8/15 14/9/16 15/10/17
f 16/11/18 17/10/19 18/12/20
f 6/13/7 19/14/21 20/15/22
f 5/16/6 21/17/23 22/18/24
f 1/7/1 23/6/25 4/4/26
f 24/19/27 23/20/25 25/21/28
f 5/5/6 4/4/29 23/6/25
f 1/22/1 20/23/22 2/24/2
f 1/22/1 6/25/7 20/23/22
f 26/26/30 13/27/15 27/28/31
f 26/26/30 14/29/16 13/27/15
f 16/30/18 11/31/13 17/32/19
f 16/30/18 12/33/14 11/31/13
f 15/34/17 10/35/12 13/36/15
f 15/34/17 11/37/13 10/35/12
f 9/31/11 14/35/16 7/38/9
f 9/31/11 15/39/17 14/35/16
f 17/31/19 8/35/10 18/38/20
f 17/31/19 9/39/11 8/35/10
f 28/40/32 21/41/23 29/42/33
f 28/40/32 22/43/24 21/41/23
f 30/44/34 19/45/21 31/46/35
f 30/44/34 20/47/22 19/45/21
f 32/42/36 2/43/2 33/40/37
f 32/42/36 3/41/3 2/43/2
f 27/48/31 25/49/28 26/50/30
f 27/48/31 24/51/27 25/49/28
f 29/26/33 12/52/14 28/53/32
f 29/26/33 10/29/12 12/52/14
f 31/26/35 18/52/20 30/53/34
f 31/26/35 16/29/18 18/52/20
f 33/26/37 7/52/9 32/53/36
f 33/26/37 8/29/10 7/52/9
f 31/53/35 12/29/14 16/52/18
f 31/53/35 28/26/32 12/29/14
f 27/26/31 10/27/12 29/28/33
f 27/26/31 13/29/15 10/27/12
f 11/54/13 9/55/11 17/56/19
f 11/54/13 15/57/17 9/55/11
f 33/28/37 18/29/20 8/27/10
f 33/28/37 30/26/34 18/29/20
f 21/58/23 27/50/31 29/59/33
f 21/58/23 24/60/27 27/50/31
f 31/61/35 22/62/24 28/63/32
f 31/61/35 19/64/21 22/62/24
f 33/65/37 20/47/22 30/66/34
f 33/65/37 2/67/2 20/47/22
f 26/50/30 3/58/3 32/68/36
f 26/50/30 25/49/28 3/58/3
f 26/28/30 7/29/9 14/27/16
f 26/28/30 32/26/36 7/29/9
f 6/69/7 22/70/24 19/71/21
f 6/69/7 5/72/6 22/70/24
f 21/73/23 23/74/25 24/75/27
f 21/73/23 5/76/6 23/74/25
f 1/77/1 25/78/28 23/79/25
f 1/77/1 3/80/3 25/78/28
f 34/81/38 35/81/39 36/81/40
f 37/82/41 38/83/42 39/84/43
f 40/85/44 38/83/42 41/86/45
f 40/85/44 42/87/46 38/83/42
f 42/87/46 39/84/43 38/83/42
f 37/82/41 43/88/47 38/83/42
f 41/86/45 38/83/42 43/88/47
f 44/81/48 35/81/39 45/81/49
f 34/81/38 46/81/50 35/81/39
f 45/81/49 35/81/39 46/81/50
f 44/81/48 47/81/51 35/81/39
f 36/81/40 35/81/39 47/81/51
f 36/89/40 37/90/41 34/91/38
f 36/89/40 43/92/47 37/90/41
f 47/93/51 43/94/47 36/95/40
f 47/93/51 41/96/45 43/94/47
f 46/97/50 42/98/46 45/99/49
f 46/97/50 39/100/43 42/98/46
f 34/101/38 39/102/43 46/103/50
f 34/101/38 37/104/41 39/102/43
f 45/97/49 40/98/44 44/99/48
f 45/97/49 42/100/46 40/98/44
f 44/103/48 41/104/45 47/101/51
f 44/103/48 40/102/44 41/104/45
f 48/81/52 49/81/53 50/81/54
f 51/83/55 52/82/56 53/84/57
f 51/83/55 54/85/58 55/86/59
f 56/87/60 54/85/58 51/83/55
f 53/84/57 56/87/60 51/83/55
f 57/88/61 52/82/56 51/83/55
f 51/83/55 55/86/59 57/88/61
f 48/81/52 58/81/62 59/81/63
f 60/81/64 49/81/53 48/81/52
f 48/81/52 59/81/63 60/81/64
f 61/81/65 58/81/62 48/81/52
f 48/81/52 50/81/54 61/81/65
f 52/90/56 50/89/54 49/91/53
f 52/90/56 57/92/61 50/89/54
f 57/94/61 61/93/65 50/95/54
f 57/94/61 55/96/59 61/93/65
f 56/98/60 60/97/64 59/99/63
f 56/98/60 53/100/57 60/97/64
f 53/102/57 49/101/53 60/103/64
f 53/102/57 52/104/56 49/101/53
f 54/98/58 59/97/63 58/99/62
f 54/98/58 56/100/60 59/97/63
f 55/104/59 58/103/62 61/101/65
f 55/104/59 54/102/58 58/103/62
f 62/105/66 63/105/67 64/105/68
f 65/83/69 66/82/70 67/84/71
f 65/83/69 68/85/72 69/86/73
f 70/87/74 68/85/72 65/83/69
f 67/84/71 70/87/74 65/83/69
f 71/88/75 66/82/70 65/83/69
f 65/83/69 69/86/73 71/88/75
f 62/105/66 72/105/76 73/105/77
f 74/105/78 63/105/67 62/105/66
f 62/105/66 73/105/77 74/105/78
f 75/105/79 72/105/76 62/105/66
f 62/105/66 64/105/68 75/105/79
f 66/90/70 64/89/68 63/91/67
f 66/90/70 71/92/75 64/89/68
f 71/94/75 75/93/79 64/95/68
f 71/94/75 69/96/73 75/93/79
f 70/98/74 74/97/78 73/99/77
f 70/98/74 67/100/71 74/97/78
f 67/102/71 63/101/67 74/103/78
f 67/102/71 66/104/70 63/101/67
f 68/98/72 73/97/77 72/99/76
f 68/98/72 70/100/74 73/97/77
f 69/104/73 72/103/76 75/101/79
f 69/104/73 68/102/72 72/103/76
f 76/106/80 77/106/81 78/106/82
f 79/82/83 80/83/84 81/84/85
f 82/85/86 80/83/84 83/86/87
f 82/85/86 84/87/88 80/83/84
f 84/87/88 81/84/85 80/83/84
f 79/82/83 85/88/89 80/83/84
f 83/86/87 80/83/84 85/88/89
f 86/106/90 77/106/81 87/106/91
f 76/106/80 88/106/92 77/106/81
f 87/106/91 77/106/81 88/106/92
f 86/106/90 89/106/93 77/106/81
f 78/106/82 77/106/81 89/106/93
f 78/89/82 79/90/83 76/91/80
f 78/89/82 85/92/89 79/90/83
f 89/93/93 85/94/89 78/95/82
f 89/93/93 83/96/87 85/94/89
f 88/97/92 84/98/88 87/99/91
f 88/97/92 81/100/85 84/98/88
f 76/101/80 81/102/85 88/103/92
f 76/101/80 79/104/83 81/102/85
f 87/97/91 82/98/86 86/99/90
f 87/97/91 84/100/88 82/98/86
f 86/103/90 83/104/87 89/101/93
f 86/103/90 82/102/86 83/104/87

