<?xml version="1.0" encoding="UTF-8"?>
<COLLADA xmlns="http://www.collada.org/2008/03/COLLADASchema" version="1.5.0">
	<asset>
		<contributor>
			<authoring_tool>CINEMA4D 20.057 COLLADA Exporter</authoring_tool>
		</contributor>
		<created>2019-09-15T11:19:05Z</created>
		<modified>2019-09-15T11:19:05Z</modified>
		<unit/>
		<up_axis>Y_UP</up_axis>
	</asset>
	<library_images>
		<image id="ID3">
			<init_from>
				<ref>support-car.png</ref>
			</init_from>
		</image>
	</library_images>
	<library_effects>
		<effect id="ID2">
			<profile_COMMON>
				<newparam sid="ID4">
					<sampler2D>
						<instance_image url="#ID3"/>
					</sampler2D>
				</newparam>
				<technique sid="COMMON">
					<blinn>
						<diffuse>
							<texture texture="ID4" texcoord="UVSET0"/>
						</diffuse>
					</blinn>
				</technique>
			</profile_COMMON>
		</effect>
	</library_effects>
	<library_materials>
		<material id="ID1" name="material">
			<instance_effect url="#ID2"/>
		</material>
	</library_materials>
	<library_geometries>
		<geometry id="ID10">
			<mesh>
				<source id="ID11">
					<float_array id="ID12" count="315" digits="2490374">16.4 31.8 79.8 0 46.55 90.2 16.4 62.35 77.5 -16.4 31.8 79.8 -16.4 62.35 77.5 56.2 65.6 33.05 41.6 69.7 -0.65 56.2 65.6 -45.2 -56.2 65.6 33.05 -56.2 65.6 -45.2 -41.6 69.7 -0.65 -41.6 69.7 -77.9 -28.7 69.7 -77.9 -41.6 102.5 -77.9 28.7 69.7 -77.9 41.6 69.7 -77.9 41.6 102.5 -77.9 32.5 8.2 65.6 52.8 20.7 65.6 52.8 8.2 65.6 32.5 20.7 65.6 32.5 20.7 32.8 32.5 8.2 32.8 -28.7 37.1 -77.9 28.7 37.1 -77.9 -49.15 110.7 -84.35 -49.15 127.1 0 -49.15 110.7 0.6 -49.15 127.1 -84.35 -41.6 69.7 76.65 -56.2 65.6 77.05 -52.8 0 -53.3 -32.5 8.2 -45.1 -32.5 0 -53.3 -52.8 8.2 -45.1 -41.6 102.5 -2.25 52.8 0 41 32.5 0 41 52.8 8.2 32.8 -32.5 8.2 -77.9 -32.5 0 -69.7 -32.5 20.7 -45.1 -32.5 20.7 -77.9 -52.8 8.2 65.6 -32.5 20.7 65.6 -32.5 8.2 65.6 -52.8 20.7 65.6 41.6 102.5 73.35 41.6 69.7 76.65 41.6 102.5 -2.25 -32.5 8.2 32.8 -52.8 20.7 32.8 -52.8 8.2 32.8 -32.5 20.7 32.8 52.8 0 -69.7 32.5 8.2 -77.9 32.5 0 -69.7 52.8 8.2 -77.9 -52.8 8.2 -77.9 -52.8 0 -69.7 -37.8 143.5 -12.3 37.8 143.5 -72.05 37.8 143.5 -12.3 -37.8 143.5 -72.05 56.2 65.6 77.05 52.8 20.7 32.8 -52.8 20.7 -77.9 52.8 8.2 -45.1 32.5 0 -53.3 32.5 8.2 -45.1 52.8 0 -53.3 52.8 0 57.4 32.5 0 57.4 -52.8 20.7 -45.1 52.8 20.5 80.8 -52.8 20.5 80.8 32.5 20.7 -77.9 52.8 20.7 -77.9 32.5 20.7 -45.1 49.15 127.1 -84.35 49.15 110.7 -84.35 52.8 20.7 -45.1 -32.5 0 41 -52.8 0 41 -52.8 0 57.4 -32.5 0 57.4 -28.7 36.9 -89 28.7 36.9 -89 52.8 20.5 -90.2 -52.8 20.5 -90.2 28.7 65.6 -87.3 -28.7 65.6 -87.3 -56.2 65.6 -87.3 56.2 65.6 -87.3 -41.6 102.5 73.35 49.15 110.7 85.55 -49.15 110.7 85.55 -52.8 20.5 -45.2 -49.15 127.1 85.35 49.15 127.1 85.35 52.8 20.5 33.1 52.8 20.5 -45.2 49.15 127.1 0 49.15 110.7 0.6 -52.8 20.5 33.1</float_array>
					<technique_common>
						<accessor count="105" source="#ID12" stride="3">
							<param name="X" type="float"/>
							<param name="Y" type="float"/>
							<param name="Z" type="float"/>
						</accessor>
					</technique_common>
				</source>
				<source id="ID13">
					<float_array id="ID14" count="240" digits="2490374">0.147436 0.0810284 0.985747 0.573395 0.0615066 0.816967 0.0860123 0.17631 0.98057 -0 -0.576248 0.817275 -0.123073 0.208428 0.970263 0 0.626498 0.779423 -0.573395 0.0615066 0.816967 -0.149364 0.0796664 0.985568 0.270363 0.962758 -0 0.270364 0.962758 -0 0.270363 0.962758 -0 -0.270363 0.962758 -0 -0.270364 0.962758 -0 0 0 -1 0 -0.161164 -0.986928 0 -0.327119 -0.944983 0 0 1 -1 0 -0 -0.989098 0.147262 -0 -0.918544 0.39532 -0 -0.000643203 0.109011 0.99404 -0.00203367 0.088084 0.996111 0 -0.707107 0.707107 0 -0.707107 -0.707107 1 0 -0 0 -0.707107 -0.707107 0 1 -0 0.270364 0.962758 -0 0 -1 -0 0.000146705 0.0819174 0.996639 0.00355119 0.0943536 0.995532 0 -0.707107 0.707107 0.000538793 0.0864288 0.996258 0 0.316228 -0.948683 0 -0.327119 -0.944983 0 0.316228 -0.948683 -0.270364 0.962758 -0 0 0.999838 -0.0180148 -0.139338 0.968572 -0.206043 0 0.916605 -0.399795 -0 0.916604 -0.399795 -0.139338 0.968572 -0.206043 0.139338 0.968572 -0.206043 0.139338 0.968572 -0.206043 0 -0.829951 0.557836 0 -0.829951 0.557836 -0.99717 -0.0751747 -0 -0.99717 -0.0751747 -0 -0.99717 -0.0751747 -0 0 0.0121945 0.999926 0.99717 -0.0751747 -0 0.99717 -0.0751748 -0 0.99717 -0.0751747 -0 0 0.6 0.8 0 0.6 0.8 -0.822282 0.56908 -0 -0.822282 0.56908 -0 0 0.6 -0.8 -0 0.6 -0.8 0.822282 0.56908 -0 0.971263 0.23801 -0 0.822282 0.56908 -0 0.954537 0.298092 -0 0.735662 -0.677348 -0 0.735663 -0.677348 -0 -0.735663 -0.677348 -0 -0.735662 -0.677348 -0 -0.735663 -0.677348 -0 0.00286443 0.0618643 -0.99808 0.00143223 0.067421 -0.997724 -0 0.0591297 -0.99825 0.00286444 0.0687876 -0.997627 -0.00190963 0.0701838 -0.997532 -0.00190964 0.065569 -0.997846 -0.00286443 0.0618643 -0.99808 0.99717 -0.0751748 -0 0 0.100104 0.994977 0.000643202 0.105317 0.994438 0 0.100104 0.994977 -0.99717 -0.0751748 -0</float_array>
					<technique_common>
						<accessor count="80" source="#ID14" stride="3">
							<param name="X" type="float"/>
							<param name="Y" type="float"/>
							<param name="Z" type="float"/>
						</accessor>
					</technique_common>
				</source>
				<source id="ID15">
					<float_array id="ID16" count="310" digits="2490374">0.133333 0.362205 0.0745098 0.496063 0.0235294 0.362205 0.133333 0.645669 0.0235294 0.645669 0.317647 0.740157 0.407843 0.76378 0.533333 0.740157 0.32549 0.724409 0.537255 0.724409 0.415686 0.771654 0.431373 0.00787401 0.478431 0.00787401 0.431373 0.299213 0.682353 0.00787401 0.729412 0.00787401 0.729412 0.299213 0.196078 0.212598 0.180392 0.244094 0.180392 0.212598 0.196078 0.244094 0.196078 0.23622 0.196078 0.204724 0.784314 0.811024 0.87451 0.385827 0.87451 0.811024 0.784314 0.385827 0.65098 0.307087 0.411765 0.417323 0.411765 0.307087 0.65098 0.417323 0 0.866142 0.0117647 0.992126 0.254902 0.181102 0.239216 0.19685 0.239216 0.181102 0.254902 0.19685 0.623529 0.771654 0.419608 1 0.411765 0.771654 0.623529 1 0.180392 0.188976 0.196078 0.188976 0.180392 0.204724 0.239216 0.228346 0.254902 0.212598 0.239216 0.244094 0.239216 0.212598 0.254902 0.244094 0.203922 1 0.196078 0.76378 0.415686 1 0.239216 0.204724 0.254902 0.23622 0.254902 0.204724 0.239216 0.23622 0.180392 0.181102 0.196078 0.19685 0.196078 0.181102 0.180392 0.19685 0.666667 0.338583 0.776471 0.708661 0.666667 0.708661 0.776471 0.338583 0.192157 0.740157 0.180392 0.23622 0.254902 0.228346 0.415686 0.220472 0.388235 0.00787401 0.415686 0.0866143 0.388235 0.299213 0.172549 0.0393701 0.0117647 0.015748 0.341176 0.299213 0.341176 0.00787401 0.419608 0.220472 0.419608 0.0866143 0.172549 0.968504 0.196078 0.228346 0.180392 0.228346 0.639216 0.393701 0.270588 0.330709 0.639216 0.330709 0.270588 0.393701 0.239216 0.188976 0.254902 0.188976 0.207843 0.771654 0.207843 0.724409 0.941176 0.0944883 0.780392 0 0.941176 0 0.780392 0.0944883 0.796078 0.811024 0.796078 0.385827 0.780392 0.283465 0.803922 0.377953 0.780392 0.377953 0.803922 0.181102 0.803922 0.811024 0.780392 0.905512 0.780392 0.811024 0.803922 1 0.247059 0.19685 0.180392 0.220472 0.188235 0.19685 0.254902 0.220472 0.654902 0.76378 0.537255 0.433071 0.662745 0.433071 0.537255 0.76378 0.937255 1 1 0.0472441 1 1 0.937255 0.0472441 0.313726 0.433071 0.533333 0.76378 0.533333 0.433071 0.313726 0.76378 0.764706 0.251969 0.745098 0.15748 0.760784 0.251969 0.756863 0.251969 0.741176 0.15748 0.419608 0.425197 0.176471 0.425197 0.796078 0.188976 0.917647 0.212598 0.917647 0.984252 0.796078 1 0.188235 0.76378 0.180392 0.433071 0.337255 0.291339 0.184314 0.149606 0.337255 0.149606 0.184314 0.291339 0 0.141732 0.211765 1 0.203922 0.771654 0.627451 0.771654 0.65098 0.724409 0.317647 0.433071 0.192157 0.76378 0.184314 0.433071 0.317647 0.76378 0.65098 0.76378 0.658824 0.433071 0.623529 0.76378 0.65098 0.740157 0.419608 0.417323 0.654902 0.307087 0.419608 0.307087 0.654902 0.417323 0.180392 0.417323 0.180392 0.307087 0.176471 0.307087</float_array>
					<technique_common>
						<accessor count="155" source="#ID16" stride="2">
							<param name="S" type="float"/>
							<param name="T" type="float"/>
						</accessor>
					</technique_common>
				</source>
				<vertices id="ID17">
					<input semantic="POSITION" source="#ID11"/>
				</vertices>
				<polylist count="178" material="Material1">
					<input offset="0" semantic="VERTEX" source="#ID17" set="0"/>
					<input offset="1" semantic="NORMAL" source="#ID13" set="0"/>
					<input offset="2" semantic="TEXCOORD" source="#ID15" set="0"/>
					<vcount>3 3 3 3 3 3 3 3 3 3 3 3 3 3 3 3 3 3 3 3 3 3 3 3 3 3 3 3 3 3 3 3 3 3 3 3 3 3 3 3 3 3 3 3 3 3 3 3 3 3 3 3 3 3 3 3 3 3 3 3 3 3 3 3 3 3 3 3 3 3 3 3 3 3 3 3 3 3 3 3 3 3 3 3 3 3 3 3 3 3 3 3 3 3 3 3 3 3 3 3 3 3 3 3 3 3 3 3 3 3 3 3 3 3 3 3 3 3 3 3 3 3 3 3 3 3 3 3 3 3 3 3 3 3 3 3 3 3 3 3 3 3 3 3 3 3 3 3 3 3 3 3 3 3 3 3 3 3 3 3 3 3 3 3 3 3 3 3 3 3 3 3 3 3 3 3 3 3</vcount>
					<p>2 2 2 1 1 1 0 0 0 1 3 1 3 3 3 0 3 0 1 5 1 2 2 2 4 4 4 3 7 3 1 6 1 4 4 4 7 10 7 6 9 6 5 8 5 10 12 10 9 12 9 8 11 8 13 14 13 12 13 12 11 13 11 16 15 16 15 13 15 14 13 14 19 16 19 18 16 18 17 16 17 18 16 18 20 16 20 17 16 17 20 17 20 21 17 21 17 17 17 21 17 21 22 17 22 17 17 17 24 13 25 23 13 24 14 13 23 23 13 24 12 13 26 14 13 23 27 17 29 26 18 28 25 17 27 26 18 28 28 19 30 25 17 27 30 21 32 4 4 4 29 20 31 4 4 4 2 2 2 29 20 31 33 22 35 32 22 34 31 22 33 32 22 34 34 22 36 31 22 33 10 17 39 35 17 38 11 17 37 35 17 38 13 17 40 11 17 37 37 23 42 22 23 22 36 23 41 22 23 22 38 23 43 36 23 41 40 24 35 39 24 34 33 24 35 39 24 34 32 24 34 33 24 35 42 24 44 41 24 44 39 24 34 41 24 44 32 24 34 39 24 34 45 16 47 44 16 46 43 16 45 44 16 46 46 16 48 43 16 45 48 24 50 6 24 6 47 24 49 6 24 6 49 24 51 47 24 49 52 13 54 51 13 53 50 13 52 51 13 53 53 13 55 50 13 52 56 25 58 55 25 57 54 25 56 55 25 57 57 25 59 54 25 56 39 25 34 40 25 35 58 25 36 40 25 35 59 25 33 58 25 36 62 26 62 61 26 61 60 26 60 61 26 61 63 26 63 60 26 60 6 9 6 48 27 50 5 8 5 48 27 50 64 27 64 5 8 5 22 13 22 21 13 21 38 13 43 21 13 21 65 13 65 38 13 43 58 13 36 66 13 66 39 13 34 66 13 66 42 13 44 39 13 34 31 17 69 34 17 68 59 17 67 34 17 68 58 17 70 59 17 67 69 22 57 68 22 58 67 22 59 68 22 58 70 22 56 67 22 59 72 28 42 37 28 42 71 28 41 37 28 42 36 28 41 71 28 41 32 16 34 41 16 44 34 16 36 41 16 44 73 16 66 34 16 36 64 30 72 2 2 2 74 29 71 2 2 2 0 0 0 74 29 71 73 17 74 66 17 73 34 17 68 66 17 73 58 17 70 34 17 68 54 24 69 57 24 68 70 24 67 57 24 68 67 24 70 70 24 67 36 24 76 38 24 68 71 24 75 38 24 68 19 24 70 71 24 75 17 31 17 72 31 42 19 31 19 72 31 42 71 31 41 19 31 19 68 17 58 69 17 57 56 17 58 69 17 57 55 17 57 56 17 58 72 17 42 17 17 17 37 17 42 17 17 17 22 17 22 37 17 42 53 24 55 44 24 46 50 24 52 44 24 46 45 24 47 50 24 52 65 24 74 18 24 73 38 24 68 18 24 73 19 24 70 38 24 68 75 32 77 3 7 3 30 21 32 3 7 3 4 4 4 30 21 32 55 13 57 76 13 78 57 13 59 76 13 78 77 13 79 57 13 59 78 17 78 76 17 78 69 17 57 76 17 78 55 17 57 69 17 57 68 28 58 56 28 58 70 28 56 56 28 58 54 28 56 70 28 56 46 17 74 51 17 73 43 17 68 51 17 73 52 17 70 43 17 68 80 34 82 25 34 81 79 33 80 25 34 81 28 35 83 79 33 80 67 16 59 81 16 79 69 16 57 81 16 79 78 16 78 69 16 57 77 24 74 81 24 73 57 24 68 81 24 73 67 24 70 57 24 68 50 23 52 82 23 84 52 23 54 82 23 84 83 23 85 52 23 54 85 31 84 45 31 47 84 31 85 45 31 47 43 31 45 84 31 85 84 17 76 43 17 68 83 17 75 43 17 68 52 17 70 83 17 75 84 28 85 83 28 85 85 28 84 83 28 85 82 28 84 85 28 84 10 12 10 8 11 8 29 36 86 8 11 8 30 36 87 29 36 86 87 37 90 86 37 89 24 37 88 86 37 89 23 37 91 24 37 88 74 28 18 75 28 48 88 28 79 75 28 48 89 28 66 88 28 79 87 17 25 24 17 25 90 17 92 24 17 25 14 17 23 90 17 92 86 24 24 91 24 93 23 24 24 91 24 93 12 24 26 23 24 24 12 40 96 91 39 95 11 38 94 91 39 95 92 41 97 11 38 94 14 40 100 15 42 99 90 40 98 15 42 99 93 43 101 90 40 98 31 28 33 59 28 33 33 28 35 59 28 33 40 28 35 33 28 35 82 24 84 50 24 52 85 24 84 50 24 52 45 24 47 85 24 84 47 45 104 95 44 103 94 44 102 95 44 103 96 44 105 94 44 102 89 46 108 97 47 107 92 46 106 97 47 107 9 48 109 92 46 106 96 49 112 95 49 111 98 49 110 95 49 111 99 49 113 98 49 110 101 52 116 7 51 115 100 50 114 7 51 115 5 50 117 100 50 114 60 54 118 26 53 119 62 53 118 26 53 119 102 53 119 62 53 118 63 56 120 28 19 119 60 55 120 28 19 119 26 18 119 60 55 120 61 58 120 79 33 119 63 57 120 79 33 119 28 35 119 63 57 120 62 61 121 102 60 122 61 59 121 102 60 122 79 62 122 61 59 121 13 14 102 25 34 105 16 15 104 25 34 105 80 34 103 16 15 104 95 63 103 47 64 104 103 63 103 47 64 104 49 63 104 103 63 103 26 26 123 98 26 124 102 26 123 98 26 124 99 26 124 102 26 123 96 67 105 27 66 105 94 65 102 27 66 105 35 66 102 94 65 102 91 70 93 86 69 24 92 68 125 86 69 24 89 71 126 92 68 125 89 71 126 86 69 24 88 72 127 86 69 24 87 73 25 88 72 127 90 70 92 93 74 128 87 73 25 93 74 128 88 72 127 87 73 25 74 52 130 100 50 114 64 75 129 100 50 114 5 50 117 64 75 129 74 29 71 0 0 0 75 32 77 0 0 0 3 7 3 75 32 77 29 20 133 48 77 132 94 76 131 48 77 132 47 78 134 94 76 131 64 30 72 48 77 135 2 2 2 48 77 135 29 20 31 2 2 2 27 66 105 25 65 105 35 66 102 25 65 105 13 65 102 35 66 102 29 17 137 94 17 136 10 17 39 94 17 136 35 17 38 10 17 39 92 41 139 9 12 9 11 38 138 9 12 9 10 12 10 11 38 138 75 46 142 30 79 141 104 46 140 30 79 141 8 46 143 104 46 140 104 46 140 8 46 143 97 47 107 8 46 143 9 48 109 97 47 107 88 52 145 93 52 144 101 52 116 93 52 144 7 51 115 101 52 116 93 43 147 15 42 146 7 10 7 15 42 146 6 9 6 7 10 7 6 24 6 15 24 146 49 24 51 15 24 146 16 24 40 49 24 51 16 64 104 80 64 103 49 63 104 80 64 103 103 63 103 49 63 104 103 24 150 80 24 149 102 60 148 80 24 149 79 62 151 102 60 148 102 60 148 99 24 152 103 24 150 99 24 152 95 24 153 103 24 150 26 18 123 27 17 150 98 17 124 27 17 150 96 17 154 98 17 124 12 13 12 13 14 13 14 13 14 13 14 13 16 15 16 14 13 14</p>
				</polylist>
			</mesh>
		</geometry>
	</library_geometries>
	<library_controllers>
		<controller id="ID9">
			<skin source="#ID10">
				<bind_shape_matrix>1 0 0 0 0 1 0 0 0 0 1 0 0 0 0 1</bind_shape_matrix>
				<source id="ID18">
					<Name_array id="ID19" count="1">joint1</Name_array>
					<technique_common>
						<accessor count="1" source="#ID19">
							<param name="JOINT" type="Name"/>
						</accessor>
					</technique_common>
				</source>
				<source id="ID20">
					<float_array id="ID21" count="2" digits="2490374">0 1</float_array>
					<technique_common>
						<accessor count="2" source="#ID21">
							<param name="WEIGHT" type="float"/>
						</accessor>
					</technique_common>
				</source>
				<source id="ID22">
					<float_array id="ID23" count="16" digits="2490374">1 0 0 -0 0 1 0 0 0 0 1 0 0 0 0 1</float_array>
					<technique_common>
						<accessor count="1" source="#ID23" stride="16">
							<param name="TRANSFORM" type="float4x4"/>
						</accessor>
					</technique_common>
				</source>
				<joints>
					<input semantic="JOINT" source="#ID18"/>
					<input semantic="INV_BIND_MATRIX" source="#ID22"/>
				</joints>
				<vertex_weights count="105">
					<input offset="0" semantic="JOINT" source="#ID18" set="0"/>
					<input offset="1" semantic="WEIGHT" source="#ID20" set="0"/>
					<vcount>1 1 1 1 1 1 1 1 1 1 1 1 1 1 1 1 1 1 1 1 1 1 1 1 1 1 1 1 1 1 1 1 1 1 1 1 1 1 1 1 1 1 1 1 1 1 1 1 1 1 1 1 1 1 1 1 1 1 1 1 1 1 1 1 1 1 1 1 1 1 1 1 1 1 1 1 1 1 1 1 1 1 1 1 1 1 1 1 1 1 1 1 1 1 1 1 1 1 1 1 1 1 1 1 1</vcount>
					<v>0 1 0 1 0 1 0 1 0 1 0 1 0 1 0 1 0 1 0 1 0 1 0 1 0 1 0 1 0 1 0 1 0 1 0 1 0 1 0 1 0 1 0 1 0 1 0 1 0 1 0 1 0 1 0 1 0 1 0 1 0 1 0 1 0 1 0 1 0 1 0 1 0 1 0 1 0 1 0 1 0 1 0 1 0 1 0 1 0 1 0 1 0 1 0 1 0 1 0 1 0 1 0 1 0 1 0 1 0 1 0 1 0 1 0 1 0 1 0 1 0 1 0 1 0 1 0 1 0 1 0 1 0 1 0 1 0 1 0 1 0 1 0 1 0 1 0 1 0 1 0 1 0 1 0 1 0 1 0 1 0 1 0 1 0 1 0 1 0 1 0 1 0 1 0 1 0 1 0 1 0 1 0 1 0 1 0 1 0 1 0 1 0 1 0 1 0 1 0 1 0 1 0 1 0 1 0 1 0 1</v>
				</vertex_weights>
			</skin>
		</controller>
	</library_controllers>
	<library_visual_scenes>
		<visual_scene id="ID5">
			<node id="ID6" name="Mesh">
				<translate sid="translate">0 0 -0</translate>
				<rotate sid="rotateY">0 1 0 -0</rotate>
				<rotate sid="rotateX">1 0 0 0</rotate>
				<rotate sid="rotateZ">0 0 1 -0</rotate>
				<scale sid="scale">1 1 1</scale>
				<instance_controller url="#ID9">
					<skeleton>#ID5</skeleton>
					<bind_material>
						<technique_common>
							<instance_material symbol="Material1" target="#ID1">
								<bind_vertex_input semantic="UVSET0" input_semantic="TEXCOORD" input_set="0"/>
							</instance_material>
						</technique_common>
					</bind_material>
				</instance_controller>
			</node>
			<node id="ID7" name="Armature">
				<translate sid="translate">0 0 -0</translate>
				<rotate sid="rotateY">0 1 0 -0</rotate>
				<rotate sid="rotateX">1 0 0 0</rotate>
				<rotate sid="rotateZ">0 0 1 -0</rotate>
				<scale sid="scale">1 1 1</scale>
				<node id="ID8" name="Bone000" sid="joint1" type="JOINT">
					<translate sid="translate">0 0 -0</translate>
					<rotate sid="rotateY">0 1 0 -0</rotate>
					<rotate sid="rotateX">1 0 0 0</rotate>
					<rotate sid="rotateZ">0 0 1 -0</rotate>
					<scale sid="scale">1 1 1</scale>
				</node>
			</node>
		</visual_scene>
	</library_visual_scenes>
	<scene>
		<instance_visual_scene url="#ID5"/>
	</scene>
</COLLADA>
