# WaveFront *.obj file (generated by CINEMA 4D)

mtllib ./support-car.mtl

v 16.39999961853027 31.79999923706055 -79.80000305175781
v 0 46.54999923706055 -90.19999694824219
v 16.39999961853027 62.34999847412109 -77.5
v -16.39999961853027 31.79999923706055 -79.80000305175781
v -16.39999961853027 62.34999847412109 -77.5
v 56.20000076293945 65.59999847412109 -33.04999923706055
v 41.59999847412109 69.69999694824219 0.64999997615814
v 56.20000076293945 65.59999847412109 45.20000076293945
v -56.20000076293945 65.59999847412109 -33.04999923706055
v -56.20000076293945 65.59999847412109 45.20000076293945
v -41.59999847412109 69.69999694824219 0.64999997615814
v -41.59999847412109 69.69999694824219 77.90000152587891
v -28.70000076293945 69.69999694824219 77.90000152587891
v -41.59999847412109 102.5 77.90000152587891
v 28.70000076293945 69.69999694824219 77.90000152587891
v 41.59999847412109 69.69999694824219 77.90000152587891
v 41.59999847412109 102.5 77.90000152587891
v 32.5 8.19999980926514 -65.59999847412109
v 52.79999923706055 20.70000076293945 -65.59999847412109
v 52.79999923706055 8.19999980926514 -65.59999847412109
v 32.5 20.70000076293945 -65.59999847412109
v 32.5 20.70000076293945 -32.79999923706055
v 32.5 8.19999980926514 -32.79999923706055
v -28.70000076293945 37.09999847412109 77.90000152587891
v 28.70000076293945 37.09999847412109 77.90000152587891
v -49.15000152587891 110.69999694824219 84.34999847412109
v -49.15000152587891 127.09999847412109 0
v -49.15000152587891 110.69999694824219 -0.60000002384186
v -49.15000152587891 127.09999847412109 84.34999847412109
v -41.59999847412109 69.69999694824219 -76.65000152587891
v -56.20000076293945 65.59999847412109 -77.05000305175781
v -52.79999923706055 0 53.29999923706055
v -32.5 8.19999980926514 45.09999847412109
v -32.5 0 53.29999923706055
v -52.79999923706055 8.19999980926514 45.09999847412109
v -41.59999847412109 102.5 2.25
v 52.79999923706055 0 -41
v 32.5 0 -41
v 52.79999923706055 8.19999980926514 -32.79999923706055
v -32.5 8.19999980926514 77.90000152587891
v -32.5 0 69.69999694824219
v -32.5 20.70000076293945 45.09999847412109
v -32.5 20.70000076293945 77.90000152587891
v -52.79999923706055 8.19999980926514 -65.59999847412109
v -32.5 20.70000076293945 -65.59999847412109
v -32.5 8.19999980926514 -65.59999847412109
v -52.79999923706055 20.70000076293945 -65.59999847412109
v 41.59999847412109 102.5 -73.34999847412109
v 41.59999847412109 69.69999694824219 -76.65000152587891
v 41.59999847412109 102.5 2.25
v -32.5 8.19999980926514 -32.79999923706055
v -52.79999923706055 20.70000076293945 -32.79999923706055
v -52.79999923706055 8.19999980926514 -32.79999923706055
v -32.5 20.70000076293945 -32.79999923706055
v 52.79999923706055 0 69.69999694824219
v 32.5 8.19999980926514 77.90000152587891
v 32.5 0 69.69999694824219
v 52.79999923706055 8.19999980926514 77.90000152587891
v -52.79999923706055 8.19999980926514 77.90000152587891
v -52.79999923706055 0 69.69999694824219
v -37.79999923706055 143.5 12.30000019073486
v 37.79999923706055 143.5 72.05000305175781
v 37.79999923706055 143.5 12.30000019073486
v -37.79999923706055 143.5 72.05000305175781
v 56.20000076293945 65.59999847412109 -77.05000305175781
v 52.79999923706055 20.70000076293945 -32.79999923706055
v -52.79999923706055 20.70000076293945 77.90000152587891
v 52.79999923706055 8.19999980926514 45.09999847412109
v 32.5 0 53.29999923706055
v 32.5 8.19999980926514 45.09999847412109
v 52.79999923706055 0 53.29999923706055
v 52.79999923706055 0 -57.40000152587891
v 32.5 0 -57.40000152587891
v -52.79999923706055 20.70000076293945 45.09999847412109
v 52.79999923706055 20.5 -80.80000305175781
v -52.79999923706055 20.5 -80.80000305175781
v 32.5 20.70000076293945 77.90000152587891
v 52.79999923706055 20.70000076293945 77.90000152587891
v 32.5 20.70000076293945 45.09999847412109
v 49.15000152587891 127.09999847412109 84.34999847412109
v 49.15000152587891 110.69999694824219 84.34999847412109
v 52.79999923706055 20.70000076293945 45.09999847412109
v -32.5 0 -41
v -52.79999923706055 0 -41
v -52.79999923706055 0 -57.40000152587891
v -32.5 0 -57.40000152587891
v -28.70000076293945 36.90000152587891 89
v 28.70000076293945 36.90000152587891 89
v 52.79999923706055 20.5 90.19999694824219
v -52.79999923706055 20.5 90.19999694824219
v 28.70000076293945 65.59999847412109 87.30000305175781
v -28.70000076293945 65.59999847412109 87.30000305175781
v -56.20000076293945 65.59999847412109 87.30000305175781
v 56.20000076293945 65.59999847412109 87.30000305175781
v -41.59999847412109 102.5 -73.34999847412109
v 49.15000152587891 110.69999694824219 -85.55000305175781
v -49.15000152587891 110.69999694824219 -85.55000305175781
v -52.79999923706055 20.5 45.20000076293945
v -49.15000152587891 127.09999847412109 -85.34999847412109
v 49.15000152587891 127.09999847412109 -85.34999847412109
v 52.79999923706055 20.5 -33.09999847412109
v 52.79999923706055 20.5 45.20000076293945
v 49.15000152587891 127.09999847412109 0
v 49.15000152587891 110.69999694824219 -0.60000002384186
v -52.79999923706055 20.5 -33.09999847412109
# 105 vertices

vn 0.14743560552597 0.08102844655514 -0.98574697971344
vn 0.57339489459991 0.06150661036372 -0.81696712970734
vn 0.08601234853268 0.17630989849567 -0.98056960105896
vn 0 0 0
vn 0 -0.57624781131744 -0.81727504730225
vn -0.12307292222977 0.20842751860619 -0.97026336193085
vn 0 0.62649804353714 -0.77942299842834
vn -0.57339483499527 0.06150661036372 -0.81696712970734
vn -0.14936375617981 0.07966642826796 -0.9855677485466
vn 0.27036347985268 0.9627583026886 0
vn 0.27036347985268 0.9627583026886 0
vn 0.27036345005035 0.9627583026886 0
vn -0.27036347985268 0.9627583026886 0
vn -0.27036347985268 0.9627583026886 0
vn 0 0 1
vn 0 -0.16116352379322 0.9869276881218
vn 0 -0.32711949944496 0.94498300552368
vn 0 0 -1
vn -1 0 0
vn -0.98909759521484 0.14726155996323 0
vn -0.91854351758957 0.39531981945038 0
vn -0.00064320262754 0.10901133716106 -0.99404031038284
vn -0.00203366833739 0.08808399736881 -0.99611097574234
vn 0 -0.70710682868958 -0.70710676908493
vn 0 -0.70710682868958 0.70710676908493
vn 1 0 0
vn 1 0 0
vn 0 0 1
vn 0 -0.70710694789886 0.707106590271
vn 0 1 0
vn 0.270363509655 0.9627583026886 0
vn 0 -0.70710682868958 -0.70710676908493
vn 0 -1 0
vn 0.00014670481323 0.08191741257906 -0.99663913249969
vn 0.00355118815787 0.09435360133648 -0.99553239345551
vn 0 -0.70710664987564 -0.70710694789886
vn 0 -0.70710664987564 -0.70710694789886
vn 0.0005387927522 0.08642884343863 -0.99625790119171
vn 0 0.31622767448425 0.94868332147598
vn 0 -0.32711949944496 0.94498300552368
vn 0 0.31622767448425 0.94868332147598
vn -0.270363509655 0.9627583026886 0
vn 0 0.99983769655228 0.01801482215524
vn 0 -1 0
vn 0 -1 0
vn -1 0 0
vn -1 0 0
vn 1 0 0
vn -0.1393378674984 0.96857166290283 0.20604345202446
vn 0 0.91660445928574 0.39979532361031
vn 0 0.91660439968109 0.39979535341263
vn -0.1393378674984 0.96857166290283 0.2060434371233
vn 0 0.91660439968109 0.39979535341263
vn 0.13933783769608 0.96857166290283 0.20604348182678
vn 0.1393378674984 0.96857166290283 0.20604346692562
vn 0 -0.82995140552521 -0.55783575773239
vn 0 -0.82995134592056 -0.55783575773239
vn -0.99717038869858 -0.07517474889755 0
vn -0.99717038869858 -0.07517474144697 0
vn -0.99717038869858 -0.07517474144697 0
vn 0 0.01219449285418 -0.99992567300797
vn 0.99717038869858 -0.07517474144697 0
vn 0.99717038869858 -0.07517475634813 0
vn 0.99717038869858 -0.07517474889755 0
vn 0 0.59999996423721 -0.80000007152557
vn 0 0.59999996423721 -0.80000001192093
vn -0.82228237390518 0.56907969713211 0
vn -0.82228237390518 0.56907963752747 0
vn 0 0.59999984502792 0.80000013113022
vn 0 0.59999984502792 0.80000013113022
vn 0.82228243350983 0.56907963752747 0
vn 0.9712627530098 0.23800975084305 0
vn 0.82228237390518 0.56907963752747 0
vn 0.95453715324402 0.29809191823006 0
vn 0.73566246032715 -0.67734831571579 0
vn 0.73566246032715 -0.67734831571579 0
vn -0.73566246032715 -0.67734831571579 0
vn -0.73566246032715 -0.67734831571579 0
vn -0.73566251993179 -0.67734825611114 0
vn 0.0028644290287 0.06186430901289 0.99808043241501
vn 0.00143223255873 0.06742102652788 0.99772357940674
vn 0 0.05912970751524 0.99825030565262
vn 0.0028644434642 0.06878758966923 0.99762719869614
vn -0.00190962688066 0.07018375396729 0.99753224849701
vn -0.00190964294598 0.06556901335716 0.99784618616104
vn -0.00286442996003 0.06186430901289 0.99808043241501
vn 0 0.05912970751524 0.99825030565262
vn 0.99717038869858 -0.07517474889755 0
vn 0 0.10010446608067 -0.99497693777084
vn 0.00064320169622 0.10531713813543 -0.99443846940994
vn 0 0.10010446608067 -0.99497693777084
vn -0.99717038869858 -0.07517474889755 0
vn -0.99717038869858 -0.07517474889755 0
# 93 normals

vt 0.13333334028721 0.36220479011536 0
vt 0.07450980693102 0.4960629940033 0
vt 0.02352941222489 0.36220479011536 0
vt 0.13333334028721 0.6456692814827 0
vt 0.02352941222489 0.6456692814827 0
vt 0.31764706969261 0.74015748500824 0
vt 0.40784314274788 0.76377952098846 0
vt 0.53333336114883 0.74015748500824 0
vt 0.32549020648003 0.72440946102142 0
vt 0.53725492954254 0.72440946102142 0
vt 0.41568627953529 0.77165353298187 0
vt 0.43137255311012 0.00787401199341 0
vt 0.47843137383461 0.00787401199341 0
vt 0.43137255311012 0.2992125749588 0
vt 0.68235296010971 0.00787401199341 0
vt 0.7294117808342 0.00787401199341 0
vt 0.7294117808342 0.2992125749588 0
vt 0.19607843458652 0.21259844303131 0
vt 0.1803921610117 0.24409449100494 0
vt 0.1803921610117 0.21259844303131 0
vt 0.19607843458652 0.24409449100494 0
vt 0.19607843458652 0.23622047901154 0
vt 0.19607843458652 0.2047244310379 0
vt 0.7843137383461 0.81102359294891 0
vt 0.87450981140137 0.38582682609558 0
vt 0.87450981140137 0.81102359294891 0
vt 0.7843137383461 0.38582682609558 0
vt 0.65098041296005 0.30708658695221 0
vt 0.41176471114159 0.41732287406921 0
vt 0.41176471114159 0.30708658695221 0
vt 0.65098041296005 0.41732287406921 0
vt 0 0.86614173650742 0
vt 0.01176470611244 0.99212598800659 0
vt 0.2549019753933 0.18110239505768 0
vt 0.2392156869173 0.19685041904449 0
vt 0.2392156869173 0.18110239505768 0
vt 0.2549019753933 0.19685041904449 0
vt 0.6235294342041 0.77165353298187 0
vt 0.419607847929 1 0
vt 0.41176471114159 0.77165353298187 0
vt 0.6235294342041 1 0
vt 0.1803921610117 0.18897640705109 0
vt 0.19607843458652 0.18897640705109 0
vt 0.1803921610117 0.2047244310379 0
vt 0.2392156869173 0.22834646701813 0
vt 0.2549019753933 0.21259844303131 0
vt 0.2392156869173 0.24409449100494 0
vt 0.2392156869173 0.21259844303131 0
vt 0.2549019753933 0.24409449100494 0
vt 0.20392157137394 1 0
vt 0.19607843458652 0.76377952098846 0
vt 0.41568627953529 1 0
vt 0.2392156869173 0.2047244310379 0
vt 0.2549019753933 0.23622047901154 0
vt 0.2549019753933 0.2047244310379 0
vt 0.2392156869173 0.23622047901154 0
vt 0.1803921610117 0.18110239505768 0
vt 0.19607843458652 0.19685041904449 0
vt 0.19607843458652 0.18110239505768 0
vt 0.1803921610117 0.19685041904449 0
vt 0.66666668653488 0.33858275413513 0
vt 0.77647060155869 0.70866143703461 0
vt 0.66666668653488 0.70866143703461 0
vt 0.77647060155869 0.33858275413513 0
vt 0.19215686619282 0.74015748500824 0
vt 0.1803921610117 0.23622047901154 0
vt 0.2549019753933 0.22834646701813 0
vt 0.41568627953529 0.22047245502472 0
vt 0.38823530077934 0.00787401199341 0
vt 0.41568627953529 0.08661425113678 0
vt 0.38823530077934 0.2992125749588 0
vt 0.17254902422428 0.03937005996704 0
vt 0.01176470611244 0.01574802398682 0
vt 0.34117648005486 0.2992125749588 0
vt 0.34117648005486 0.00787401199341 0
vt 0.419607847929 0.22047245502472 0
vt 0.419607847929 0.08661425113678 0
vt 0.17254902422428 0.96850395202637 0
vt 0.19607843458652 0.22834646701813 0
vt 0.1803921610117 0.22834646701813 0
vt 0.63921570777893 0.39370083808899 0
vt 0.27058824896812 0.33070874214172 0
vt 0.63921570777893 0.33070874214172 0
vt 0.27058824896812 0.39370083808899 0
vt 0.2392156869173 0.18897640705109 0
vt 0.2549019753933 0.18897640705109 0
vt 0.20784313976765 0.77165353298187 0
vt 0.20784313976765 0.72440946102142 0
vt 0.94117647409439 0.09448826313019 0
vt 0.78039216995239 0 0
vt 0.94117647409439 0 0
vt 0.78039216995239 0.09448826313019 0
vt 0.79607844352722 0.81102359294891 0
vt 0.79607844352722 0.38582682609558 0
vt 0.78039216995239 0.28346455097198 0
vt 0.80392158031464 0.37795281410217 0
vt 0.78039216995239 0.37795281410217 0
vt 0.80392158031464 0.18110239505768 0
vt 0.80392158031464 0.81102359294891 0
vt 0.78039216995239 0.90551179647446 0
vt 0.78039216995239 0.81102359294891 0
vt 0.80392158031464 1 0
vt 0.24705882370472 0.19685041904449 0
vt 0.1803921610117 0.22047245502472 0
vt 0.18823529779911 0.19685041904449 0
vt 0.2549019753933 0.22047245502472 0
vt 0.65490198135376 0.76377952098846 0
vt 0.53725492954254 0.43307089805603 0
vt 0.66274511814117 0.43307089805603 0
vt 0.53725492954254 0.76377952098846 0
vt 0.93725490570068 1 0
vt 1 0.04724407196045 0
vt 1 1 0
vt 0.93725490570068 0.04724407196045 0
vt 0.3137255012989 0.43307089805603 0
vt 0.53333336114883 0.76377952098846 0
vt 0.53333336114883 0.43307089805603 0
vt 0.3137255012989 0.76377952098846 0
vt 0.76470589637756 0.25196850299835 0
vt 0.74509805440903 0.15748035907745 0
vt 0.76078432798386 0.25196850299835 0
vt 0.75686275959015 0.25196850299835 0
vt 0.74117648601532 0.15748035907745 0
vt 0.419607847929 0.42519688606262 0
vt 0.17647059261799 0.42519688606262 0
vt 0.79607844352722 0.18897640705109 0
vt 0.91764706373215 0.21259844303131 0
vt 0.91764706373215 0.98425197601318 0
vt 0.79607844352722 1 0
vt 0.18823529779911 0.76377952098846 0
vt 0.1803921610117 0.43307089805603 0
vt 0.33725491166115 0.29133856296539 0
vt 0.1843137294054 0.14960634708405 0
vt 0.33725491166115 0.14960634708405 0
vt 0.1843137294054 0.29133856296539 0
vt 0 0.14173233509064 0
vt 0.21176470816135 1 0
vt 0.20392157137394 0.77165353298187 0
vt 0.62745100259781 0.77165353298187 0
vt 0.65098041296005 0.72440946102142 0
vt 0.31764706969261 0.43307089805603 0
vt 0.19215686619282 0.76377952098846 0
vt 0.1843137294054 0.43307089805603 0
vt 0.31764706969261 0.76377952098846 0
vt 0.65098041296005 0.76377952098846 0
vt 0.65882354974747 0.43307089805603 0
vt 0.6235294342041 0.76377952098846 0
vt 0.65098041296005 0.74015748500824 0
vt 0.419607847929 0.41732287406921 0
vt 0.65490198135376 0.30708658695221 0
vt 0.419607847929 0.30708658695221 0
vt 0.65490198135376 0.41732287406921 0
vt 0.1803921610117 0.41732287406921 0
vt 0.1803921610117 0.30708658695221 0
vt 0.17647059261799 0.30708658695221 0
# 155 texture coordinates

o Mesh
usemtl material
f 1/1/1 2/2/2 3/3/3
f 1/1/5 4/4/5 2/2/5
f 5/5/6 3/3/3 2/2/7
f 5/5/6 2/2/8 4/4/9
f 6/6/10 7/7/11 8/8/12
f 9/9/13 10/10/14 11/11/14
f 12/12/15 13/13/15 14/14/16
f 15/15/15 16/16/15 17/17/17
f 18/18/18 19/19/18 20/20/18
f 18/18/18 21/21/18 19/19/18
f 18/18/19 22/22/19 21/21/19
f 18/18/19 23/23/19 22/22/19
f 15/24/15 24/25/15 25/26/15
f 15/24/15 13/27/15 24/25/15
f 26/28/19 27/29/20 28/30/19
f 26/28/19 29/31/21 27/29/20
f 30/32/22 5/5/6 31/33/23
f 30/32/22 3/3/3 5/5/6
f 32/34/24 33/35/24 34/36/24
f 32/34/24 35/37/24 33/35/24
f 12/38/19 36/39/19 11/40/19
f 12/38/19 14/41/19 36/39/19
f 37/42/25 23/23/25 38/43/25
f 37/42/25 39/44/25 23/23/25
f 34/36/26 40/35/26 41/36/26
f 34/36/26 33/35/26 40/35/26
f 40/35/26 42/45/26 43/45/27
f 40/35/26 33/35/26 42/45/26
f 44/46/18 45/47/18 46/48/18
f 44/46/18 47/49/18 45/47/18
f 48/50/26 7/7/26 49/51/26
f 48/50/26 50/52/26 7/7/26
f 51/53/15 52/54/15 53/55/15
f 51/53/15 54/56/28 52/54/15
f 55/57/29 56/58/29 57/59/29
f 55/57/29 58/60/29 56/58/29
f 59/37/29 41/36/29 40/35/29
f 59/37/29 60/34/29 41/36/29
f 61/61/30 62/62/30 63/63/30
f 61/61/30 64/64/30 62/62/30
f 6/6/10 49/51/31 7/7/11
f 6/6/10 65/65/31 49/51/31
f 39/44/15 22/22/15 23/23/15
f 39/44/15 66/66/28 22/22/15
f 40/35/15 67/67/15 59/37/15
f 40/35/15 43/45/28 67/67/15
f 60/68/19 35/69/19 32/70/19
f 60/68/19 59/71/19 35/69/19
f 68/60/24 69/59/24 70/58/32
f 68/60/24 71/57/24 69/59/24
f 72/42/33 38/43/33 73/43/33
f 72/42/33 37/42/33 38/43/33
f 35/37/18 42/45/18 33/35/18
f 35/37/18 74/67/18 42/45/18
f 75/72/34 3/3/3 65/73/35
f 75/72/34 1/1/1 3/3/3
f 35/69/19 67/74/19 74/75/19
f 35/69/19 59/71/19 67/74/19
f 71/68/26 58/69/26 55/70/26
f 71/68/26 68/71/26 58/69/26
f 72/76/26 39/69/26 37/77/26
f 72/76/26 20/71/26 39/69/26
f 20/20/36 73/43/36 18/18/37
f 20/20/36 72/42/36 73/43/36
f 57/59/19 70/58/19 69/59/19
f 57/59/19 56/58/19 70/58/19
f 38/43/19 18/18/19 73/43/19
f 38/43/19 23/23/19 18/18/19
f 51/53/26 45/47/26 54/56/27
f 51/53/26 46/48/26 45/47/26
f 39/69/26 19/74/26 66/75/27
f 39/69/26 20/71/26 19/74/26
f 31/33/23 4/4/9 76/78/38
f 31/33/23 5/5/6 4/4/9
f 58/60/15 77/79/15 56/58/15
f 58/60/15 78/80/28 77/79/15
f 70/58/19 77/79/19 79/79/19
f 70/58/19 56/58/19 77/79/19
f 71/57/33 57/59/33 69/59/33
f 71/57/33 55/57/33 57/59/33
f 44/69/19 52/74/19 47/75/19
f 44/69/19 53/71/19 52/74/19
f 80/81/39 26/82/40 81/83/40
f 80/81/39 29/84/41 26/82/40
f 70/58/18 82/80/18 68/60/18
f 70/58/18 79/79/18 82/80/18
f 58/69/26 82/74/26 78/75/27
f 58/69/26 68/71/26 82/74/26
f 53/55/25 83/85/25 51/53/25
f 53/55/25 84/86/25 83/85/25
f 85/86/36 46/48/36 86/85/36
f 85/86/36 44/46/36 46/48/36
f 84/76/19 44/69/19 85/77/19
f 84/76/19 53/71/19 44/69/19
f 86/85/33 84/86/33 85/86/33
f 86/85/33 83/85/33 84/86/33
f 30/87/42 9/9/13 11/11/14
f 30/87/42 31/88/42 9/9/13
f 25/89/43 87/90/43 88/91/43
f 25/89/43 24/92/43 87/90/43
f 89/80/33 76/49/33 75/19/44
f 89/80/33 90/67/45 76/49/33
f 91/93/19 25/26/19 88/26/46
f 91/93/19 15/24/47 25/26/19
f 24/25/26 92/94/26 87/25/48
f 24/25/26 13/27/26 92/94/26
f 12/95/49 92/96/50 13/97/51
f 12/95/49 93/98/52 92/96/50
f 91/99/53 16/100/54 15/101/53
f 91/99/53 94/102/55 16/100/54
f 34/36/33 60/34/33 32/34/33
f 34/36/33 41/36/33 60/34/33
f 86/85/26 51/53/26 83/85/26
f 86/85/26 46/48/26 51/53/26
f 95/103/56 96/104/56 48/105/57
f 95/103/56 97/106/56 96/104/56
f 93/107/58 98/108/59 90/109/58
f 93/107/58 10/110/60 98/108/59
f 99/111/61 96/112/61 97/113/61
f 99/111/61 100/114/61 96/112/61
f 101/115/62 8/116/63 102/117/64
f 101/115/62 6/118/62 8/116/63
f 63/119/65 27/120/65 61/119/66
f 63/119/65 103/120/65 27/120/65
f 61/121/67 29/120/21 64/121/68
f 61/121/67 27/120/20 29/120/21
f 64/121/69 80/120/39 62/121/70
f 64/121/69 29/120/41 80/120/39
f 62/122/71 103/123/72 63/122/73
f 62/122/71 80/123/74 103/123/72
f 17/105/17 26/106/40 14/103/16
f 17/105/17 81/104/40 26/106/40
f 104/104/75 48/105/76 96/104/75
f 104/104/75 50/105/75 48/105/76
f 103/124/30 99/125/30 27/124/30
f 103/124/30 100/125/30 99/125/30
f 95/103/77 28/106/78 97/106/79
f 95/103/77 36/103/78 28/106/78
f 93/126/80 87/25/81 92/94/82
f 93/126/80 90/127/83 87/25/81
f 89/128/84 87/25/81 90/127/83
f 89/128/84 88/26/85 87/25/81
f 88/26/85 94/129/86 91/93/87
f 88/26/85 89/128/84 94/129/86
f 65/130/88 101/115/62 75/131/64
f 65/130/88 6/118/62 101/115/62
f 76/78/38 1/1/1 75/72/34
f 76/78/38 4/4/9 1/1/1
f 95/132/89 49/133/90 30/134/22
f 95/132/89 48/135/91 49/133/90
f 3/3/3 49/136/90 65/73/35
f 3/3/3 30/32/22 49/136/90
f 36/103/78 26/106/77 28/106/78
f 36/103/78 14/103/77 26/106/77
f 11/40/19 95/137/19 30/138/19
f 11/40/19 36/39/19 95/137/19
f 12/139/49 10/10/14 93/140/52
f 12/139/49 11/11/14 10/10/14
f 105/141/58 31/142/92 76/143/93
f 105/141/58 9/144/58 31/142/92
f 98/108/59 9/144/58 105/141/58
f 98/108/59 10/110/60 9/144/58
f 102/117/64 94/145/64 89/146/64
f 102/117/64 8/116/63 94/145/64
f 8/8/12 16/147/54 94/148/55
f 8/8/12 7/7/11 16/147/54
f 50/52/26 16/147/26 7/7/26
f 50/52/26 17/41/48 16/147/26
f 50/105/75 81/104/76 17/105/76
f 50/105/75 104/104/75 81/104/76
f 103/149/72 81/150/26 104/151/26
f 103/149/72 80/152/74 81/150/26
f 104/151/26 100/153/26 103/149/72
f 104/151/26 96/154/26 100/153/26
f 99/125/19 28/151/19 27/124/20
f 99/125/19 97/155/46 28/151/19
f 15/15/15 14/14/16 13/13/15
f 15/15/15 17/17/17 14/14/16

